<svg width="113" height="102" viewBox="0 0 113 102" fill="none" xmlns="http://www.w3.org/2000/svg">
<g style="mix-blend-mode:multiply" filter="url(#filter0_d)">
<path fill-rule="evenodd" clip-rule="evenodd" d="M73.0225 59.5191C81.6897 53.305 87.2286 44.1111 87.2286 33.8973C87.2286 15.1761 68.821 0 46.1137 0C23.4076 0 5 15.1761 5 33.8973C5 52.6185 23.4076 67.7951 46.1137 67.7951C50.805 67.7951 55.3349 67.131 59.5348 65.9359C59.9165 65.8206 60.3221 65.758 60.7427 65.758C61.5323 65.758 62.2494 65.9956 62.9259 66.3825L71.9266 71.5239C72.1784 71.6674 72.4209 71.777 72.7185 71.777C73.4757 71.777 74.0889 71.1691 74.0889 70.4206C74.0889 70.0854 73.9537 69.7502 73.8679 69.4293C73.8156 69.2376 72.7075 65.1467 72.016 62.5918C71.937 62.3048 71.8709 62.0281 71.8709 61.7273C71.8709 60.817 72.3258 60.0111 73.0225 59.5191Z" fill="#00CE52" fill-opacity="0.01"/>
</g>
<mask id="mask0" mask-type="alpha" maskUnits="userSpaceOnUse" x="5" y="0" width="83" height="72">
<path fill-rule="evenodd" clip-rule="evenodd" d="M73.0225 59.5191C81.6897 53.305 87.2286 44.1111 87.2286 33.8973C87.2286 15 68.8198 0 46.1137 0C23.4076 0 5 15.1761 5 33.8973C5 52.6185 23.4076 67.7951 46.1137 67.7951C50.805 67.7951 55.3349 67.131 59.5348 65.9359C59.9165 65.8206 60.3221 65.758 60.7427 65.758C61.5323 65.758 62.2494 65.9956 62.9259 66.3825L71.9266 71.5239C72.1784 71.6674 72.4209 71.777 72.7185 71.777C73.4757 71.777 74.0889 71.1691 74.0889 70.4206C74.0889 70.0854 73.9537 69.7502 73.8679 69.4293C73.8156 69.2376 72.7075 65.1467 72.016 62.5918C71.9371 62.3048 71.8709 62.0281 71.8709 61.7273C71.8709 60.817 72.3258 60.0111 73.0225 59.5191Z" fill="white"/>
</mask>
<g mask="url(#mask0)">
<g filter="url(#filter1_i)">
<path fill-rule="evenodd" clip-rule="evenodd" d="M73.0225 59.5191C81.6897 53.305 87.2286 44.1111 87.2286 33.8973C87.2286 15 68.8198 0 46.1137 0C23.4076 0 5 15.1761 5 33.8973C5 52.6185 23.4076 67.7951 46.1137 67.7951C50.805 67.7951 55.3349 67.131 59.5348 65.9359C59.9165 65.8206 60.3221 65.758 60.7427 65.758C61.5323 65.758 62.2494 65.9956 62.9259 66.3825L71.9266 71.5239C72.1784 71.6674 72.4209 71.777 72.7185 71.777C73.4757 71.777 74.0889 71.1691 74.0889 70.4206C74.0889 70.0854 73.9537 69.7502 73.8679 69.4293C73.8156 69.2376 72.7075 65.1467 72.016 62.5918C71.9371 62.3048 71.8709 62.0281 71.8709 61.7273C71.8709 60.817 72.3258 60.0111 73.0225 59.5191Z" fill="url(#paint0_linear)"/>
</g>
<g style="mix-blend-mode:overlay" filter="url(#filter2_if)">
<path fill-rule="evenodd" clip-rule="evenodd" d="M72.4271 57.5191C81.0184 51.305 87 42.1111 87 31.8973C87 13 71.2855 -1 45.7538 -1C20.2221 -1 5 13.1761 5 31.8973C5 50.6185 23.2465 65.7951 45.7538 65.7951C50.404 65.7951 54.8943 65.131 59.0574 63.9359C59.4358 63.8206 59.8378 63.758 60.2547 63.758C61.0374 63.758 61.7482 63.9956 62.4188 64.3825L71.3407 69.5239C71.5903 69.6674 71.8307 69.777 72.1257 69.777C72.8762 69.777 73.4841 69.1691 73.4841 68.4206C73.4841 68.0854 73.3501 67.7502 73.265 67.4293C73.2132 67.2376 72.1148 63.1467 71.4293 60.5918C71.3511 60.3048 71.2855 60.0281 71.2855 59.7273C71.2855 58.817 71.7364 58.0111 72.4271 57.5191Z" fill="white" fill-opacity="0.01"/>
</g>
<g style="mix-blend-mode:overlay" filter="url(#filter3_if)">
<path fill-rule="evenodd" clip-rule="evenodd" d="M88.2286 33.8973C88.2286 15 69.8198 0 47.1137 0C24.4076 0 6 15.1761 6 33.8973C6 52.6185 23.4076 66.7951 46.1137 66.7951C65.2211 66.7951 88.2286 55.1895 88.2286 33.8973Z" fill="white" fill-opacity="0.01"/>
</g>
<g style="mix-blend-mode:multiply" filter="url(#filter4_if)">
<path fill-rule="evenodd" clip-rule="evenodd" d="M89.2286 33.8973C89.2286 15 70.8198 0 48.1137 0C25.4076 0 7 15.1761 7 33.8973C7 52.6185 25.6137 66.7951 47.1137 66.7951C55.622 66.7951 84.4625 63.5 84.4625 63.5C84.4625 63.5 81.2279 54.8424 84.4625 50C87.477 45.4871 89.2286 40.1037 89.2286 33.8973Z" fill="white" fill-opacity="0.01"/>
</g>
</g>
<defs>
<filter id="filter0_d" x="0" y="0" width="112.229" height="101.777" filterUnits="userSpaceOnUse" color-interpolation-filters="sRGB">
<feFlood flood-opacity="0" result="BackgroundImageFix"/>
<feColorMatrix in="SourceAlpha" type="matrix" values="0 0 0 0 0 0 0 0 0 0 0 0 0 0 0 0 0 0 127 0"/>
<feOffset dx="10" dy="15"/>
<feGaussianBlur stdDeviation="7.5"/>
<feColorMatrix type="matrix" values="0 0 0 0 0 0 0 0 0 0.447059 0 0 0 0 0.0313726 0 0 0 0.3 0"/>
<feBlend mode="normal" in2="BackgroundImageFix" result="effect1_dropShadow"/>
<feBlend mode="normal" in="SourceGraphic" in2="effect1_dropShadow" result="shape"/>
</filter>
<filter id="filter1_i" x="5" y="0" width="82.2286" height="71.777" filterUnits="userSpaceOnUse" color-interpolation-filters="sRGB">
<feFlood flood-opacity="0" result="BackgroundImageFix"/>
<feBlend mode="normal" in="SourceGraphic" in2="BackgroundImageFix" result="shape"/>
<feColorMatrix in="SourceAlpha" type="matrix" values="0 0 0 0 0 0 0 0 0 0 0 0 0 0 0 0 0 0 127 0" result="hardAlpha"/>
<feOffset/>
<feGaussianBlur stdDeviation="0.5"/>
<feComposite in2="hardAlpha" operator="arithmetic" k2="-1" k3="1"/>
<feColorMatrix type="matrix" values="0 0 0 0 0 0 0 0 0 0.366667 0 0 0 0 0.0272523 0 0 0 1 0"/>
<feBlend mode="normal" in2="shape" result="effect1_innerShadow"/>
</filter>
<filter id="filter2_if" x="4.5" y="-1.5" width="83" height="71.777" filterUnits="userSpaceOnUse" color-interpolation-filters="sRGB">
<feFlood flood-opacity="0" result="BackgroundImageFix"/>
<feBlend mode="normal" in="SourceGraphic" in2="BackgroundImageFix" result="shape"/>
<feColorMatrix in="SourceAlpha" type="matrix" values="0 0 0 0 0 0 0 0 0 0 0 0 0 0 0 0 0 0 127 0" result="hardAlpha"/>
<feOffset dx="-1" dy="-1"/>
<feComposite in2="hardAlpha" operator="arithmetic" k2="-1" k3="1"/>
<feColorMatrix type="matrix" values="0 0 0 0 1 0 0 0 0 1 0 0 0 0 1 0 0 0 1 0"/>
<feBlend mode="normal" in2="shape" result="effect1_innerShadow"/>
<feGaussianBlur stdDeviation="0.25" result="effect2_foregroundBlur"/>
</filter>
<filter id="filter3_if" x="5.5" y="-0.5" width="83.2286" height="67.7951" filterUnits="userSpaceOnUse" color-interpolation-filters="sRGB">
<feFlood flood-opacity="0" result="BackgroundImageFix"/>
<feBlend mode="normal" in="SourceGraphic" in2="BackgroundImageFix" result="shape"/>
<feColorMatrix in="SourceAlpha" type="matrix" values="0 0 0 0 0 0 0 0 0 0 0 0 0 0 0 0 0 0 127 0" result="hardAlpha"/>
<feOffset dx="1"/>
<feComposite in2="hardAlpha" operator="arithmetic" k2="-1" k3="1"/>
<feColorMatrix type="matrix" values="0 0 0 0 1 0 0 0 0 1 0 0 0 0 1 0 0 0 0.3 0"/>
<feBlend mode="normal" in2="shape" result="effect1_innerShadow"/>
<feGaussianBlur stdDeviation="0.25" result="effect2_foregroundBlur"/>
</filter>
<filter id="filter4_if" x="6.5" y="-0.5" width="83.2286" height="67.7951" filterUnits="userSpaceOnUse" color-interpolation-filters="sRGB">
<feFlood flood-opacity="0" result="BackgroundImageFix"/>
<feBlend mode="normal" in="SourceGraphic" in2="BackgroundImageFix" result="shape"/>
<feColorMatrix in="SourceAlpha" type="matrix" values="0 0 0 0 0 0 0 0 0 0 0 0 0 0 0 0 0 0 127 0" result="hardAlpha"/>
<feOffset dx="-3" dy="1"/>
<feComposite in2="hardAlpha" operator="arithmetic" k2="-1" k3="1"/>
<feColorMatrix type="matrix" values="0 0 0 0 0 0 0 0 0 0.8625 0 0 0 0 0.294643 0 0 0 1 0"/>
<feBlend mode="normal" in2="shape" result="effect1_innerShadow"/>
<feGaussianBlur stdDeviation="0.25" result="effect2_foregroundBlur"/>
</filter>
<linearGradient id="paint0_linear" x1="45.5557" y1="0.422913" x2="45.5557" y2="72.1999" gradientUnits="userSpaceOnUse">
<stop stop-color="#00FF66" stop-opacity="0.5"/>
<stop offset="1" stop-color="#00CE52" stop-opacity="0.6"/>
</linearGradient>
</defs>
</svg>
