<svg width="99" height="87" viewBox="0 0 99 87" fill="none" xmlns="http://www.w3.org/2000/svg">
<g id="logo-wechat-hover-big" filter="url(#filter0_wehcat_big)">
<path fill-rule="evenodd" clip-rule="evenodd" d="M0 40.678C0 18 21.5 0 49.337 0C81.5 0 99 21.8498 99 40.678C99 63.5 74 81.3543 49.337 81.3543C43.5 81.3543 38.2715 80.5576 33.2327 79.1243C32.7738 78.9848 32.2876 78.9096 31.7823 78.9096C30.8348 78.9096 29.975 79.1955 29.1622 79.6593L18.3624 85.8287C18.0613 86.0003 17.7689 86.1323 17.412 86.1323C16.5029 86.1323 15.7673 85.4039 15.7673 84.505C15.7673 84.2002 15.8598 83.8954 15.9501 83.5981C15.979 83.5029 16.0077 83.4085 16.033 83.3151C16.0951 83.0855 17.4242 78.176 18.255 75.1114C18.3502 74.7659 18.4279 74.4341 18.4279 74.0742C18.4279 72.9807 17.8831 72.0135 17.0471 71.4229C6.64584 63.9665 0 52.9336 0 40.678ZM31.8917 34.169C28.2587 34.169 25.3137 31.2553 25.3137 27.6609C25.3137 24.0659 28.2587 21.1523 31.8917 21.1523C35.5247 21.1523 38.4696 24.0659 38.4696 27.6609C38.4696 31.2553 35.5247 34.169 31.8917 34.169ZM58.2041 27.6609C58.2041 31.2553 61.149 34.169 64.7832 34.169C68.4157 34.169 71.3606 31.2553 71.3606 27.6609C71.3606 24.0659 68.4157 21.1523 64.7832 21.1523C61.149 21.1523 58.2041 24.0659 58.2041 27.6609Z" fill="url(#paint0_linear_wechat_big)"/>
</g>
<defs>
<filter id="filter0_wehcat_big" x="0" y="0" width="99" height="86.1323" filterUnits="userSpaceOnUse" color-interpolation-filters="sRGB">
<feFlood flood-opacity="0" result="BackgroundImageFix"/>
<feBlend mode="normal" in="SourceGraphic" in2="BackgroundImageFix" result="shape"/>
<feColorMatrix in="SourceAlpha" type="matrix" values="0 0 0 0 0 0 0 0 0 0 0 0 0 0 0 0 0 0 127 0" result="hardAlpha"/>
<feOffset dy="0.5"/>
<feComposite in2="hardAlpha" operator="arithmetic" k2="-1" k3="1"/>
<feColorMatrix type="matrix" values="0 0 0 0 0 0 0 0 0 0.579167 0 0 0 0 0.044127 0 0 0 0.5 0"/>
<feBlend mode="normal" in2="shape" result="effect1_innerShadow"/>
<feColorMatrix in="SourceAlpha" type="matrix" values="0 0 0 0 0 0 0 0 0 0 0 0 0 0 0 0 0 0 127 0" result="hardAlpha"/>
<feOffset dx="1" dy="-1"/>
<feComposite in2="hardAlpha" operator="arithmetic" k2="-1" k3="1"/>
<feColorMatrix type="matrix" values="0 0 0 0 0 0 0 0 0 0.580392 0 0 0 0 0.0431373 0 0 0 0.5 0"/>
<feBlend mode="normal" in2="effect1_innerShadow" result="effect2_innerShadow"/>
<feColorMatrix in="SourceAlpha" type="matrix" values="0 0 0 0 0 0 0 0 0 0 0 0 0 0 0 0 0 0 127 0" result="hardAlpha"/>
<feOffset dx="-2"/>
<feComposite in2="hardAlpha" operator="arithmetic" k2="-1" k3="1"/>
<feColorMatrix type="matrix" values="0 0 0 0 0.394878 0 0 0 0 0.933333 0 0 0 0 0.307222 0 0 0 0.96 0"/>
<feBlend mode="normal" in2="effect2_innerShadow" result="effect3_innerShadow"/>
</filter>
<linearGradient id="paint0_linear_wechat_big" x1="48.8274" y1="0.507494" x2="48.8274" y2="86.6398" gradientUnits="userSpaceOnUse">
<stop stop-color="#84FFF8" stop-opacity="0.7"/>
<stop offset="1" stop-color="#00CE52" stop-opacity="0.9"/>
</linearGradient>
</defs>
</svg>
