<svg width="45" height="50" viewBox="0 0 45 50" fill="none" xmlns="http://www.w3.org/2000/svg">
<path fill-rule="evenodd" clip-rule="evenodd" d="M19.0614 6C18.0934 6 17.2085 6.5469 16.7756 7.41268L5.23284 30.4982C4.66645 31.631 5.49018 32.9638 6.75668 32.9638H17.2507C18.2187 32.9638 19.1036 32.4169 19.5365 31.5512L31.0793 8.46562C31.6456 7.33283 30.8219 6 29.5554 6H19.0614ZM29.0613 19C28.0934 19 27.2085 19.5469 26.7756 20.4127L15.2328 43.4982C14.6664 44.631 15.4901 45.9638 16.7567 45.9638H27.2507C28.2187 45.9638 29.1036 45.4169 29.5364 44.5512L41.0792 21.4656C41.6456 20.3328 40.8219 19 39.5554 19H29.0613Z" fill="#F1EC6B"/>
</svg>
