<svg width="134" height="151" viewBox="0 0 134 151" fill="none" xmlns="http://www.w3.org/2000/svg">
  <g filter="url(#filter0_qq)">
    <path d="M91.4154 51.6032C91.4193 51.4582 91.4816 49.0041 91.4816 47.7385C91.4816 26.4214 81.4182 5.00142 56.671 5C31.9241 5.00142 21.8607 26.4214 21.8607 47.7385C21.8607 48.9486 21.9178 51.2451 21.9259 51.5712L21.9267 51.6034L16.9329 64.0685C15.5648 67.6358 14.2135 71.3503 13.2238 74.5358C8.50398 89.7246 10.033 96.0103 11.1972 96.1511C13.6961 96.4532 20.9226 84.7169 20.9226 84.7169C20.9226 91.5126 24.4187 100.382 31.9886 106.786C29.1574 107.659 25.6885 109.002 23.4595 110.648C21.4553 112.128 21.7049 113.637 22.0663 114.246C23.6521 116.922 49.2766 115.955 56.674 115.121C64.0718 115.955 89.6961 116.922 91.2819 114.246C91.6432 113.637 91.8929 112.128 89.889 110.648C87.6585 109.001 84.1872 107.657 81.3555 106.784C88.9243 100.381 92.42 91.5121 92.42 84.7169C92.42 84.7169 99.6465 96.4532 102.145 96.1511C103.31 96.0103 104.839 89.7246 100.119 74.5358C99.1288 71.3503 97.7778 67.6358 96.4101 64.0685L91.4154 51.6032Z" fill="#002B7E" fill-opacity="0.01"/>
  </g>
  <mask id="mask0_qq" mask-type="alpha" maskUnits="userSpaceOnUse" x="10" y="5" width="94" height="111">
    <path d="M91.4154 51.6032C91.4193 51.4582 91.4816 49.0041 91.4816 47.7385C91.4816 26.4214 81.4182 5.00142 56.671 5C31.9241 5.00142 21.8607 26.4214 21.8607 47.7385C21.8607 48.9486 21.9178 51.2451 21.9259 51.5712L21.9267 51.6034L16.9329 64.0685C15.5648 67.6358 14.2135 71.3503 13.2238 74.5358C8.50398 89.7246 10.033 96.0103 11.1972 96.1511C13.6961 96.4532 20.9226 84.7169 20.9226 84.7169C20.9226 91.5126 24.4187 100.382 31.9886 106.786C29.1574 107.659 25.6885 109.002 23.4595 110.648C21.4553 112.128 21.7049 113.637 22.0663 114.246C23.6521 116.922 49.2766 115.955 56.674 115.121C64.0718 115.955 89.6961 116.922 91.2819 114.246C91.6432 113.637 91.8929 112.128 89.889 110.648C87.6585 109.001 84.1872 107.657 81.3555 106.784C88.9243 100.381 92.42 91.5121 92.42 84.7169C92.42 84.7169 99.6465 96.4532 102.145 96.1511C103.31 96.0103 104.839 89.7246 100.119 74.5358C99.1288 71.3503 97.7778 67.6358 96.4101 64.0685L91.4154 51.6032Z" fill="white"/>
  </mask>
  <g mask="url(#mask0_qq)">
    <g filter="url(#filter1_qq)">
      <path d="M91.4154 51.6032C91.4193 51.4582 91.4816 49.0041 91.4816 47.7385C91.4816 26.4214 81.4182 5.00142 56.671 5C31.9241 5.00142 21.8607 26.4214 21.8607 47.7385C21.8607 48.9486 21.9178 51.2451 21.9259 51.5712L21.9267 51.6034L16.9329 64.0685C15.5648 67.6358 14.2135 71.3503 13.2238 74.5358C8.50398 89.7246 10.033 96.0103 11.1972 96.1511C13.6961 96.4532 20.9226 84.7169 20.9226 84.7169C20.9226 91.5126 24.4187 100.382 31.9886 106.786C29.1574 107.659 25.6885 109.002 23.4595 110.648C21.4553 112.128 21.7049 113.637 22.0663 114.246C23.6521 116.922 49.2766 115.955 56.674 115.121C64.0718 115.955 89.6961 116.922 91.2819 114.246C91.6432 113.637 91.8929 112.128 89.889 110.648C87.6585 109.001 84.1872 107.657 81.3555 106.784C88.9243 100.381 92.42 91.5121 92.42 84.7169C92.42 84.7169 99.6465 96.4532 102.145 96.1511C103.31 96.0103 104.839 89.7246 100.119 74.5358C99.1288 71.3503 97.7778 67.6358 96.4101 64.0685L91.4154 51.6032Z" fill="url(#paint0_qq)"/>
    </g>
    <g style="mix-blend-mode:overlay" filter="url(#filter2_qq)">
      <path d="M91.4154 51.6032C91.4193 51.4582 91.4815 49.0041 91.4815 47.7385C91.4815 26.4214 81.4182 5.00142 56.6709 5C31.924 5.00142 21.8607 26.4214 21.8607 47.7385C21.8607 48.9486 21.9178 51.2451 21.9259 51.5712L21.9266 51.6034L16.9329 64.0685C15.5648 67.6358 14.2134 71.3503 13.2237 74.5358C8.50394 89.7246 11.033 95.0103 12.1972 95.1511C14.6961 95.4532 21.9226 83.7169 21.9226 83.7169C21.9226 90.5126 24.4187 99.3818 31.9886 105.786C29.1573 106.659 26.6884 108.002 24.4595 109.648C22.4553 111.128 22.7049 112.637 23.0662 113.246C24.652 115.922 49.2766 114.955 56.674 114.121C64.0718 114.955 88.6961 115.922 90.2819 113.246C90.6432 112.637 90.8928 111.128 88.889 109.648C86.6585 108.001 83.1872 107.657 80.3554 106.784C87.9243 100.381 92.42 90.5121 92.42 83.7169C92.42 83.7169 99.6465 95.4532 102.145 95.1511C103.31 95.0103 104.839 89.7246 100.119 74.5358C99.1288 71.3503 97.7777 67.6358 96.41 64.0685L91.4154 51.6032Z" fill="white" fill-opacity="0.01"/>
    </g>
    <g style="mix-blend-mode:overlay" opacity="0.2" filter="url(#filter3_qq)">
      <path d="M91.4154 52.6032C91.4193 52.4582 91.4815 50.0041 91.4815 48.7385C91.4815 27.4214 81.4182 6.00142 56.6709 6C31.924 6.00142 21.8607 27.4214 21.8607 48.7385C21.8607 49.9486 21.9178 52.2451 21.9259 52.5712L21.9266 52.6034L16.9329 65.0685C15.5648 68.6358 14.2134 72.3503 13.2237 75.5358C8.50394 90.7246 11.033 96.0103 12.1972 96.1511C14.6961 96.4532 21.9226 84.7169 21.9226 84.7169C21.9226 91.5126 24.4187 100.382 31.9886 106.786C29.1573 107.659 26.6884 109.002 24.4595 110.648C22.4553 112.128 22.7049 113.637 23.0662 114.246C24.652 116.922 49.2766 115.955 56.674 115.121C64.0718 115.955 88.6961 116.922 90.2819 114.246C90.6432 113.637 90.8928 112.128 88.889 110.648C86.6585 109.001 83.1872 108.657 80.3554 107.784C87.9243 101.381 92.42 91.5121 92.42 84.7169C92.42 84.7169 99.6465 96.4532 102.145 96.1511C103.31 96.0103 104.839 90.7246 100.119 75.5358C99.1288 72.3503 97.7777 68.6358 96.41 65.0685L91.4154 52.6032Z" fill="white" fill-opacity="0.01"/>
    </g>
    <g style="mix-blend-mode:multiply" filter="url(#filter4_qq)">
      <path d="M92.4154 50.6032C92.4193 50.4582 92.4816 49.0041 92.4816 47.7385C92.4816 26.4214 82.4182 5.00142 57.671 5C32.9241 5.00142 22.8607 26.4214 22.8607 47.7385C22.8607 48.9486 22.9178 50.2451 22.9259 50.5712L22.9267 50.6034L17.9329 63.0685C16.5648 66.6358 15.2135 70.3503 14.2238 73.5358C9.50398 91.7246 11.033 98.0103 12.1972 98.1511C14.6961 98.4532 21.9226 87.7169 21.9226 87.7169C21.9226 94.5126 25.4187 102.382 32.9886 105.786C30.1574 106.659 26.6885 108.002 24.4595 109.648C22.4553 111.128 22.7049 112.637 23.0663 113.246C24.6521 115.922 50.2766 114.955 57.674 114.121C65.0718 114.955 90.6961 115.922 92.2819 113.246C92.6432 112.637 92.8929 111.128 90.889 109.648C88.6585 108.001 85.1872 106.657 82.3555 105.784C91.9243 98.3805 95.42 89.5121 95.42 82.7169C95.42 82.7169 100.647 97.4532 103.145 97.1511C104.31 97.0103 105.839 88.7246 101.119 73.5358C100.129 70.3503 98.7778 66.6358 97.4101 63.0685L92.4154 50.6032Z" fill="white" fill-opacity="0.01"/>
    </g>
    <g style="mix-blend-mode:overlay" filter="url(#filter5_qq)">
      <path d="M92.4154 50.6032C92.4193 50.4582 92.4816 49.0041 92.4816 47.7385C92.4816 26.4214 82.4182 5.00142 57.671 5C32.9241 5.00142 22.8607 26.4214 22.8607 47.7385C22.8607 48.9486 22.9178 50.2451 22.9259 50.5712L22.9267 50.6034L17.9329 63.0685C16.5648 66.6358 15.2135 70.3503 14.2238 73.5358C9.50398 88.7246 11.033 95.0103 12.1972 95.1511C14.6961 95.4532 21.9226 83.7169 21.9226 83.7169C21.9226 90.5126 25.4187 99.3818 32.9886 105.786C30.1574 106.659 26.6885 108.002 24.4595 109.648C22.4553 111.128 22.7049 112.637 23.0663 113.246C24.6521 115.922 50.2766 114.955 57.674 114.121C65.0718 114.955 90.6961 115.922 92.2819 113.246C92.6432 112.637 92.8929 111.128 90.889 109.648C88.6585 108.001 85.1872 106.657 82.3555 105.784C89.9243 99.3805 93.42 90.5121 93.42 83.7169C93.42 83.7169 100.647 95.4532 103.145 95.1511C104.31 95.0103 105.839 88.7246 101.119 73.5358C100.129 70.3503 98.7778 66.6358 97.4101 63.0685L92.4154 50.6032Z" fill="white" fill-opacity="0.01"/>
    </g>
  </g>
  <defs>
    <filter id="filter0_qq" x="0" y="0" width="133.343" height="151" filterUnits="userSpaceOnUse" color-interpolation-filters="sRGB">
      <feFlood flood-opacity="0" result="BackgroundImageFix"/>
      <feColorMatrix in="SourceAlpha" type="matrix" values="0 0 0 0 0 0 0 0 0 0 0 0 0 0 0 0 0 0 127 0"/>
      <feOffset dx="10" dy="15"/>
      <feGaussianBlur stdDeviation="10"/>
      <feColorMatrix type="matrix" values="0 0 0 0 0 0 0 0 0 0.168627 0 0 0 0 0.494118 0 0 0 0.25 0"/>
      <feBlend mode="normal" in2="BackgroundImageFix" result="effect1_dropShadow"/>
      <feBlend mode="normal" in="SourceGraphic" in2="effect1_dropShadow" result="shape"/>
    </filter>
    <filter id="filter1_qq" x="10" y="5" width="93.3426" height="111" filterUnits="userSpaceOnUse" color-interpolation-filters="sRGB">
      <feFlood flood-opacity="0" result="BackgroundImageFix"/>
      <feBlend mode="normal" in="SourceGraphic" in2="BackgroundImageFix" result="shape"/>
      <feColorMatrix in="SourceAlpha" type="matrix" values="0 0 0 0 0 0 0 0 0 0 0 0 0 0 0 0 0 0 127 0" result="hardAlpha"/>
      <feOffset/>
      <feGaussianBlur stdDeviation="1"/>
      <feComposite in2="hardAlpha" operator="arithmetic" k2="-1" k3="1"/>
      <feColorMatrix type="matrix" values="0 0 0 0 0 0 0 0 0 0.20339 0 0 0 0 0.6 0 0 0 1 0"/>
      <feBlend mode="normal" in2="shape" result="effect1_innerShadow"/>
    </filter>
    <filter id="filter2_qq" x="9.96997" y="4.5" width="93.8726" height="111" filterUnits="userSpaceOnUse" color-interpolation-filters="sRGB">
      <feFlood flood-opacity="0" result="BackgroundImageFix"/>
      <feBlend mode="normal" in="SourceGraphic" in2="BackgroundImageFix" result="shape"/>
      <feColorMatrix in="SourceAlpha" type="matrix" values="0 0 0 0 0 0 0 0 0 0 0 0 0 0 0 0 0 0 127 0" result="hardAlpha"/>
      <feOffset dx="-1" dy="-1"/>
      <feComposite in2="hardAlpha" operator="arithmetic" k2="-1" k3="1"/>
      <feColorMatrix type="matrix" values="0 0 0 0 1 0 0 0 0 1 0 0 0 0 1 0 0 0 1 0"/>
      <feBlend mode="normal" in2="shape" result="effect1_innerShadow"/>
      <feGaussianBlur stdDeviation="0.25" result="effect2_foregroundBlur"/>
    </filter>
    <filter id="filter3_qq" x="9.96997" y="5.5" width="93.8726" height="111" filterUnits="userSpaceOnUse" color-interpolation-filters="sRGB">
      <feFlood flood-opacity="0" result="BackgroundImageFix"/>
      <feBlend mode="normal" in="SourceGraphic" in2="BackgroundImageFix" result="shape"/>
      <feColorMatrix in="SourceAlpha" type="matrix" values="0 0 0 0 0 0 0 0 0 0 0 0 0 0 0 0 0 0 127 0" result="hardAlpha"/>
      <feOffset dx="-1" dy="-3"/>
      <feComposite in2="hardAlpha" operator="arithmetic" k2="-1" k3="1"/>
      <feColorMatrix type="matrix" values="0 0 0 0 1 0 0 0 0 1 0 0 0 0 1 0 0 0 1 0"/>
      <feBlend mode="normal" in2="shape" result="effect1_innerShadow"/>
      <feGaussianBlur stdDeviation="0.25" result="effect2_foregroundBlur"/>
    </filter>
    <filter id="filter4_qq" x="10.5" y="4.5" width="94.3426" height="111" filterUnits="userSpaceOnUse" color-interpolation-filters="sRGB">
      <feFlood flood-opacity="0" result="BackgroundImageFix"/>
      <feBlend mode="normal" in="SourceGraphic" in2="BackgroundImageFix" result="shape"/>
      <feColorMatrix in="SourceAlpha" type="matrix" values="0 0 0 0 0 0 0 0 0 0 0 0 0 0 0 0 0 0 127 0" result="hardAlpha"/>
      <feOffset dx="-3" dy="1"/>
      <feComposite in2="hardAlpha" operator="arithmetic" k2="-1" k3="1"/>
      <feColorMatrix type="matrix" values="0 0 0 0 0.0952604 0 0 0 0 0.312969 0 0 0 0 0.7375 0 0 0 0.8 0"/>
      <feBlend mode="normal" in2="shape" result="effect1_innerShadow"/>
      <feGaussianBlur stdDeviation="0.25" result="effect2_foregroundBlur"/>
    </filter>
    <filter id="filter5_qq" x="10.5" y="4.5" width="94.3426" height="111" filterUnits="userSpaceOnUse" color-interpolation-filters="sRGB">
      <feFlood flood-opacity="0" result="BackgroundImageFix"/>
      <feBlend mode="normal" in="SourceGraphic" in2="BackgroundImageFix" result="shape"/>
      <feColorMatrix in="SourceAlpha" type="matrix" values="0 0 0 0 0 0 0 0 0 0 0 0 0 0 0 0 0 0 127 0" result="hardAlpha"/>
      <feOffset dx="1"/>
      <feComposite in2="hardAlpha" operator="arithmetic" k2="-1" k3="1"/>
      <feColorMatrix type="matrix" values="0 0 0 0 1 0 0 0 0 1 0 0 0 0 1 0 0 0 0.4 0"/>
      <feBlend mode="normal" in2="shape" result="effect1_innerShadow"/>
      <feGaussianBlur stdDeviation="0.25" result="effect2_foregroundBlur"/>
    </filter>
    <radialGradient id="paint0_qq" cx="0" cy="0" r="1" gradientUnits="userSpaceOnUse" gradientTransform="translate(17 40) rotate(36.9331) scale(90.7001 76.2719)">
      <stop stop-color="#D988FF" stop-opacity="0.5"/>
      <stop offset="1" stop-color="#1D47DA" stop-opacity="0.9"/>
    </radialGradient>
  </defs>
</svg>
