<svg width="60" height="50" viewBox="0 0 60 50" fill="none" xmlns="http://www.w3.org/2000/svg">
<path fill-rule="evenodd" clip-rule="evenodd" d="M4 19.6454C4 11.0046 12.4959 4 22.9758 4C32.4428 4 40.2885 9.71599 41.7175 17.1902C41.3763 17.1734 41.0333 17.1628 40.6868 17.1628C31.1287 17.1628 23.3806 23.551 23.3806 31.4313C23.3806 32.7603 23.6059 34.0452 24.0183 35.2656C23.6731 35.2811 23.3257 35.2901 22.9758 35.2901C20.8106 35.2901 18.7198 34.9837 16.7818 34.4324C16.6053 34.3788 16.4183 34.3498 16.2239 34.3498C15.8596 34.3498 15.5289 34.4598 15.2162 34.6382L11.0624 37.011C10.9466 37.077 10.8342 37.1278 10.6969 37.1278C10.3473 37.1278 10.0643 36.8477 10.0643 36.5019C10.0643 36.3847 10.0999 36.2675 10.1347 36.1531C10.1458 36.1165 10.1568 36.0802 10.1665 36.0443C10.1904 35.956 10.7016 34.0677 11.0212 32.889C11.0578 32.7561 11.0877 32.6285 11.0877 32.4901C11.0877 32.0695 10.8781 31.6975 10.5566 31.4703C6.55609 28.6025 4 24.3591 4 19.6454ZM56.5 31.4309C56.5 35.3593 54.3697 38.8954 51.0362 41.2854C50.7682 41.4746 50.5933 41.7846 50.5933 42.1347C50.5933 42.2504 50.6187 42.3568 50.649 42.4672C50.915 43.4499 51.3412 45.0233 51.3613 45.097C51.3696 45.1279 51.379 45.159 51.3885 45.1904C51.4171 45.2848 51.4463 45.3816 51.4463 45.4783C51.4463 45.7662 51.2105 46 50.9193 46C50.8048 46 50.7115 45.9578 50.6147 45.9026L47.1529 43.9252C46.8927 43.7764 46.6169 43.685 46.3132 43.685C46.1514 43.685 45.9954 43.7091 45.8486 43.7534C44.2333 44.2131 42.491 44.4685 40.6866 44.4685C31.9535 44.4685 24.8737 38.6313 24.8737 31.4309C24.8737 24.2304 31.9535 18.3935 40.6866 18.3935C49.4202 18.3935 56.5 24.2304 56.5 31.4309ZM33.3074 27.2589C33.3074 28.4111 34.2513 29.3448 35.4154 29.3448C36.5805 29.3448 37.5243 28.4111 37.5243 27.2589C37.5243 26.1067 36.5805 25.1731 35.4154 25.1731C34.2513 25.1731 33.3074 26.1067 33.3074 27.2589ZM43.8494 27.2589C43.8494 28.4111 44.7933 29.3448 45.9579 29.3448C47.1225 29.3448 48.0659 28.4111 48.0659 27.2589C48.0659 26.1067 47.1225 25.1731 45.9579 25.1731C44.7933 25.1731 43.8494 26.1067 43.8494 27.2589ZM16.6506 17.1419C15.2533 17.1419 14.1206 16.0213 14.1206 14.6388C14.1206 13.2561 15.2533 12.1355 16.6506 12.1355C18.0479 12.1355 19.1806 13.2561 19.1806 14.6388C19.1806 16.0213 18.0479 17.1419 16.6506 17.1419ZM29.3013 17.1419C27.9035 17.1419 26.7708 16.0213 26.7708 14.6388C26.7708 13.2561 27.9035 12.1355 29.3013 12.1355C30.6984 12.1355 31.831 13.2561 31.831 14.6388C31.831 16.0213 30.6984 17.1419 29.3013 17.1419Z" fill="#D7BF91"/>
</svg>
