<svg width="129" height="117" viewBox="0 0 129 117" fill="none" xmlns="http://www.w3.org/2000/svg">
<g style="mix-blend-mode:multiply" filter="url(#filter0_d)">
<path fill-rule="evenodd" clip-rule="evenodd" d="M5 40.678C5 18.212 27.0894 0 54.337 0C86.5 0 104 21.8498 104 40.678C104 64 79.5 81.3543 54.337 81.3543C48.5 81.3543 43.2715 80.5576 38.2327 79.1243C37.7738 78.9848 37.2876 78.9096 36.7823 78.9096C35.8348 78.9096 34.975 79.1955 34.1622 79.6593L23.3624 85.8287C23.0613 86.0003 22.7689 86.1323 22.412 86.1323C21.5029 86.1323 20.7673 85.4039 20.7673 84.505C20.7673 84.2002 20.8598 83.8954 20.9501 83.5981C20.979 83.5029 21.0077 83.4085 21.033 83.3151C21.0951 83.0855 22.4242 78.176 23.255 75.1114C23.3502 74.7659 23.4279 74.4341 23.4279 74.0742C23.4279 72.9807 22.8831 72.0135 22.0471 71.4229C11.6458 63.9665 5 52.9336 5 40.678ZM36.8917 34.169C33.2587 34.169 30.3137 31.2553 30.3137 27.6609C30.3137 24.0659 33.2587 21.1523 36.8917 21.1523C40.5247 21.1523 43.4696 24.0659 43.4696 27.6609C43.4696 31.2553 40.5247 34.169 36.8917 34.169ZM63.2041 27.6609C63.2041 31.2553 66.149 34.169 69.7832 34.169C73.4157 34.169 76.3606 31.2553 76.3606 27.6609C76.3606 24.0659 73.4157 21.1523 69.7832 21.1523C66.149 21.1523 63.2041 24.0659 63.2041 27.6609Z" fill="#00CE52" fill-opacity="0.01"/>
</g>
<mask id="mask0" mask-type="alpha" maskUnits="userSpaceOnUse" x="5" y="0" width="99" height="87">
<path fill-rule="evenodd" clip-rule="evenodd" d="M5 40.678C5 18 26.5 0 54.337 0C86.5 0 104 21.8498 104 40.678C104 63.5 79 81.3543 54.337 81.3543C48.5 81.3543 43.2715 80.5576 38.2327 79.1243C37.7738 78.9848 37.2876 78.9096 36.7823 78.9096C35.8348 78.9096 34.975 79.1955 34.1622 79.6593L23.3624 85.8287C23.0613 86.0003 22.7689 86.1323 22.412 86.1323C21.5029 86.1323 20.7673 85.4039 20.7673 84.505C20.7673 84.2002 20.8598 83.8954 20.9501 83.5981C20.979 83.5029 21.0077 83.4085 21.033 83.3151C21.0951 83.0855 22.4242 78.176 23.255 75.1114C23.3502 74.7659 23.4279 74.4341 23.4279 74.0742C23.4279 72.9807 22.8831 72.0135 22.0471 71.4229C11.6458 63.9665 5 52.9336 5 40.678ZM36.8917 34.169C33.2587 34.169 30.3137 31.2553 30.3137 27.6609C30.3137 24.0659 33.2587 21.1523 36.8917 21.1523C40.5247 21.1523 43.4696 24.0659 43.4696 27.6609C43.4696 31.2553 40.5247 34.169 36.8917 34.169ZM63.2041 27.6609C63.2041 31.2553 66.149 34.169 69.7832 34.169C73.4157 34.169 76.3606 31.2553 76.3606 27.6609C76.3606 24.0659 73.4157 21.1523 69.7832 21.1523C66.149 21.1523 63.2041 24.0659 63.2041 27.6609Z" fill="white"/>
</mask>
<g mask="url(#mask0)">
<g filter="url(#filter1_i)">
<path fill-rule="evenodd" clip-rule="evenodd" d="M5 40.678C5 18 26.5 0 54.337 0C86.5 0 104 21.8498 104 40.678C104 63.5 79 81.3543 54.337 81.3543C48.5 81.3543 43.2715 80.5576 38.2327 79.1243C37.7738 78.9848 37.2876 78.9096 36.7823 78.9096C35.8348 78.9096 34.975 79.1955 34.1622 79.6593L23.3624 85.8287C23.0613 86.0003 22.7689 86.1323 22.412 86.1323C21.5029 86.1323 20.7673 85.4039 20.7673 84.505C20.7673 84.2002 20.8598 83.8954 20.9501 83.5981C20.979 83.5029 21.0077 83.4085 21.033 83.3151C21.0951 83.0855 22.4242 78.176 23.255 75.1114C23.3502 74.7659 23.4279 74.4341 23.4279 74.0742C23.4279 72.9807 22.8831 72.0135 22.0471 71.4229C11.6458 63.9665 5 52.9336 5 40.678ZM36.8917 34.169C33.2587 34.169 30.3137 31.2553 30.3137 27.6609C30.3137 24.0659 33.2587 21.1523 36.8917 21.1523C40.5247 21.1523 43.4696 24.0659 43.4696 27.6609C43.4696 31.2553 40.5247 34.169 36.8917 34.169ZM63.2041 27.6609C63.2041 31.2553 66.149 34.169 69.7832 34.169C73.4157 34.169 76.3606 31.2553 76.3606 27.6609C76.3606 24.0659 73.4157 21.1523 69.7832 21.1523C66.149 21.1523 63.2041 24.0659 63.2041 27.6609Z" fill="url(#paint0_linear)"/>
</g>
<g style="mix-blend-mode:overlay" filter="url(#filter2_if)">
<path fill-rule="evenodd" clip-rule="evenodd" d="M5 38.678C5 16 26.5 -2 54.337 -2C86.5 -2 104 19.8498 104 38.678C104 61.5 79 79.3543 54.337 79.3543C48.5 79.3543 43.2715 78.5576 38.2327 77.1243C37.7738 76.9848 37.2876 76.9096 36.7823 76.9096C35.8348 76.9096 34.975 77.1955 34.1622 77.6593L23.3624 83.8287C23.0613 84.0003 22.7689 84.1323 22.412 84.1323C21.5029 84.1323 20.7673 83.4039 20.7673 82.505C20.7673 82.2002 20.8598 81.8954 20.9501 81.5981C20.979 81.5029 21.0077 81.4085 21.033 81.3151C21.0951 81.0855 22.4242 76.176 23.255 73.1114C23.3502 72.7659 23.4279 72.4341 23.4279 72.0742C23.4279 70.9807 22.8831 70.0135 22.0471 69.4229C11.6458 61.9665 5 50.9336 5 38.678ZM36.8917 33.169C33.2587 33.169 29.3137 30.2553 29.3137 26.6609C29.3137 23.0659 33.2587 20.1523 36.8917 20.1523C40.5247 20.1523 44.4696 23.0659 44.4696 26.6609C44.4696 30.2553 40.5247 33.169 36.8917 33.169ZM62.2041 26.6609C62.2041 30.2553 66.149 33.169 69.7832 33.169C73.4157 33.169 77.3606 30.2553 77.3606 26.6609C77.3606 23.0659 73.4157 20.1523 69.7832 20.1523C66.149 20.1523 62.2041 23.0659 62.2041 26.6609Z" fill="white" fill-opacity="0.01"/>
</g>
<g style="mix-blend-mode:multiply" filter="url(#filter3_if)">
<path fill-rule="evenodd" clip-rule="evenodd" d="M7 40.678C7 18 28.5 0 56.337 0C88.5 0 106 21.8498 106 40.678C106 63.5 81 81.3543 56.337 81.3543C50.5 81.3543 45.2715 80.5576 40.2327 79.1243C39.7738 78.9848 39.2876 78.9096 38.7823 78.9096C37.8348 78.9096 36.975 79.1955 36.1622 79.6593L25.3624 85.8287C25.0613 86.0003 24.7689 86.1323 24.412 86.1323C23.5029 86.1323 22.7673 85.4039 22.7673 84.505C22.7673 84.2002 22.8598 83.8954 22.9501 83.5981C22.979 83.5029 23.0077 83.4085 23.033 83.3151C23.0951 83.0855 24.4242 78.176 25.255 75.1114C25.3502 74.7659 25.4279 74.4341 25.4279 74.0742C25.4279 72.9807 24.8831 72.0135 24.0471 71.4229C13.6458 63.9665 7 52.9336 7 40.678ZM38.8917 34.169C35.2587 33.169 32.3137 30.2553 32.3137 26.6609C32.3137 23.0659 35.2587 20.1523 38.8917 20.1523C42.5247 20.1523 45.4696 23.0659 45.4696 26.6609C45.4696 30.2553 42.5247 34.169 38.8917 34.169ZM65.2041 26.6609C65.2041 30.2553 68.149 33.169 71.7832 33.169C75.4157 33.169 78.3606 30.2553 78.3606 26.6609C78.3606 23.0659 75.4157 20.1523 71.7832 20.1523C68.149 20.1523 65.2041 23.0659 65.2041 26.6609Z" fill="white" fill-opacity="0.01"/>
</g>
<g style="mix-blend-mode:overlay" filter="url(#filter4_if)">
<path fill-rule="evenodd" clip-rule="evenodd" d="M6 40.678C6 18 27.5 0 55.337 0C87.5 0 105 21.8498 105 40.678C105 63.5 80 81.3543 55.337 81.3543C49.5 81.3543 44.2715 80.5576 39.2327 79.1243C38.7738 78.9848 38.2876 78.9096 37.7823 78.9096C36.8348 78.9096 35.975 79.1955 35.1622 79.6593L24.3624 85.8287C24.0613 86.0003 23.7689 86.1323 23.412 86.1323C22.5029 86.1323 21.7673 85.4039 21.7673 84.505C21.7673 84.2002 21.8598 83.8954 21.9501 83.5981C21.979 83.5029 22.0077 83.4085 22.033 83.3151C22.0951 83.0855 23.4242 78.176 24.255 75.1114C24.3502 74.7659 24.4279 74.4341 24.4279 74.0742C24.4279 72.9807 23.8831 72.0135 23.0471 71.4229C12.6458 63.9665 6 52.9336 6 40.678ZM36.8917 34.169C33.2587 34.169 30.3137 31.2553 30.3137 27.6609C30.3137 24.0659 33.2587 21.1523 36.8917 21.1523C40.5247 21.1523 43.4696 24.0659 43.4696 27.6609C43.4696 31.2553 40.5247 34.169 36.8917 34.169ZM63.2041 27.6609C63.2041 31.2553 66.149 34.169 69.7832 34.169C73.4157 34.169 76.3606 31.2553 76.3606 27.6609C76.3606 24.0659 73.4157 21.1523 69.7832 21.1523C66.149 21.1523 63.2041 24.0659 63.2041 27.6609Z" fill="white" fill-opacity="0.01"/>
</g>
</g>
<defs>
<filter id="filter0_d" x="0" y="0" width="129" height="116.132" filterUnits="userSpaceOnUse" color-interpolation-filters="sRGB">
<feFlood flood-opacity="0" result="BackgroundImageFix"/>
<feColorMatrix in="SourceAlpha" type="matrix" values="0 0 0 0 0 0 0 0 0 0 0 0 0 0 0 0 0 0 127 0"/>
<feOffset dx="10" dy="15"/>
<feGaussianBlur stdDeviation="7.5"/>
<feColorMatrix type="matrix" values="0 0 0 0 0 0 0 0 0 0.447059 0 0 0 0 0.0313726 0 0 0 0.3 0"/>
<feBlend mode="normal" in2="BackgroundImageFix" result="effect1_dropShadow"/>
<feBlend mode="normal" in="SourceGraphic" in2="effect1_dropShadow" result="shape"/>
</filter>
<filter id="filter1_i" x="5" y="0" width="99" height="86.1323" filterUnits="userSpaceOnUse" color-interpolation-filters="sRGB">
<feFlood flood-opacity="0" result="BackgroundImageFix"/>
<feBlend mode="normal" in="SourceGraphic" in2="BackgroundImageFix" result="shape"/>
<feColorMatrix in="SourceAlpha" type="matrix" values="0 0 0 0 0 0 0 0 0 0 0 0 0 0 0 0 0 0 127 0" result="hardAlpha"/>
<feOffset/>
<feGaussianBlur stdDeviation="0.5"/>
<feComposite in2="hardAlpha" operator="arithmetic" k2="-1" k3="1"/>
<feColorMatrix type="matrix" values="0 0 0 0 0 0 0 0 0 0.366667 0 0 0 0 0.0272523 0 0 0 1 0"/>
<feBlend mode="normal" in2="shape" result="effect1_innerShadow"/>
</filter>
<filter id="filter2_if" x="4.5" y="-2.5" width="100" height="87.1323" filterUnits="userSpaceOnUse" color-interpolation-filters="sRGB">
<feFlood flood-opacity="0" result="BackgroundImageFix"/>
<feBlend mode="normal" in="SourceGraphic" in2="BackgroundImageFix" result="shape"/>
<feColorMatrix in="SourceAlpha" type="matrix" values="0 0 0 0 0 0 0 0 0 0 0 0 0 0 0 0 0 0 127 0" result="hardAlpha"/>
<feOffset dy="-1"/>
<feComposite in2="hardAlpha" operator="arithmetic" k2="-1" k3="1"/>
<feColorMatrix type="matrix" values="0 0 0 0 1 0 0 0 0 1 0 0 0 0 1 0 0 0 1 0"/>
<feBlend mode="normal" in2="shape" result="effect1_innerShadow"/>
<feGaussianBlur stdDeviation="0.25" result="effect2_foregroundBlur"/>
</filter>
<filter id="filter3_if" x="6.5" y="-0.5" width="100" height="87.1323" filterUnits="userSpaceOnUse" color-interpolation-filters="sRGB">
<feFlood flood-opacity="0" result="BackgroundImageFix"/>
<feBlend mode="normal" in="SourceGraphic" in2="BackgroundImageFix" result="shape"/>
<feColorMatrix in="SourceAlpha" type="matrix" values="0 0 0 0 0 0 0 0 0 0 0 0 0 0 0 0 0 0 127 0" result="hardAlpha"/>
<feOffset dx="-3" dy="1"/>
<feComposite in2="hardAlpha" operator="arithmetic" k2="-1" k3="1"/>
<feColorMatrix type="matrix" values="0 0 0 0 0 0 0 0 0 0.8625 0 0 0 0 0.294643 0 0 0 1 0"/>
<feBlend mode="normal" in2="shape" result="effect1_innerShadow"/>
<feGaussianBlur stdDeviation="0.25" result="effect2_foregroundBlur"/>
</filter>
<filter id="filter4_if" x="5.5" y="-0.5" width="100" height="87.1323" filterUnits="userSpaceOnUse" color-interpolation-filters="sRGB">
<feFlood flood-opacity="0" result="BackgroundImageFix"/>
<feBlend mode="normal" in="SourceGraphic" in2="BackgroundImageFix" result="shape"/>
<feColorMatrix in="SourceAlpha" type="matrix" values="0 0 0 0 0 0 0 0 0 0 0 0 0 0 0 0 0 0 127 0" result="hardAlpha"/>
<feOffset dx="1"/>
<feComposite in2="hardAlpha" operator="arithmetic" k2="-1" k3="1"/>
<feColorMatrix type="matrix" values="0 0 0 0 1 0 0 0 0 1 0 0 0 0 1 0 0 0 0.3 0"/>
<feBlend mode="normal" in2="shape" result="effect1_innerShadow"/>
<feGaussianBlur stdDeviation="0.25" result="effect2_foregroundBlur"/>
</filter>
<linearGradient id="paint0_linear" x1="53.8274" y1="0.507494" x2="53.8274" y2="86.6398" gradientUnits="userSpaceOnUse">
<stop stop-color="#00FF66" stop-opacity="0.5"/>
<stop offset="1" stop-color="#00CE52" stop-opacity="0.6"/>
</linearGradient>
</defs>
</svg>
