<svg width="250" height="242" viewBox="0 0 250 242" fill="none" xmlns="http://www.w3.org/2000/svg">
<g style="mix-blend-mode:multiply" filter="url(#filter0_d)">
<g style="mix-blend-mode:multiply">
<path d="M101.323 33.5342C102.293 31.3831 104.433 30 106.793 30H144.216C148.572 30 151.476 34.4949 149.686 38.4658L99.1796 150.508C98.2099 152.659 96.0693 154.042 93.7096 154.042H56.2861C51.9305 154.042 49.0262 149.547 50.8162 145.576L101.323 33.5342Z" fill="url(#paint0_linear)" fill-opacity="0.01"/>
</g>
<g style="mix-blend-mode:multiply">
<path d="M151.323 83.5342C152.293 81.3831 154.433 80 156.793 80H194.216C198.572 80 201.476 84.4949 199.686 88.4658L149.18 200.508C148.21 202.659 146.069 204.042 143.71 204.042H106.286C101.931 204.042 99.0262 199.547 100.816 195.576L151.323 83.5342Z" fill="url(#paint1_linear)" fill-opacity="0.01"/>
</g>
</g>
<defs>
<filter id="filter0_d" x="45.2793" y="30" width="179.944" height="204.042" filterUnits="userSpaceOnUse" color-interpolation-filters="sRGB">
<feFlood flood-opacity="0" result="BackgroundImageFix"/>
<feColorMatrix in="SourceAlpha" type="matrix" values="0 0 0 0 0 0 0 0 0 0 0 0 0 0 0 0 0 0 127 0"/>
<feOffset dx="10" dy="15"/>
<feGaussianBlur stdDeviation="7.5"/>
<feColorMatrix type="matrix" values="0 0 0 0 0.916667 0 0 0 0 0.554583 0 0 0 0 0.0114583 0 0 0 0.5 0"/>
<feBlend mode="normal" in2="BackgroundImageFix" result="effect1_dropShadow"/>
<feBlend mode="normal" in="SourceGraphic" in2="effect1_dropShadow" result="shape"/>
</filter>
<linearGradient id="paint0_linear" x1="85.2513" y1="10" x2="85.2513" y2="154.042" gradientUnits="userSpaceOnUse">
<stop stop-color="#FFFA8E"/>
<stop offset="1" stop-color="#FFC806"/>
</linearGradient>
<linearGradient id="paint1_linear" x1="135.251" y1="60" x2="135.251" y2="204.042" gradientUnits="userSpaceOnUse">
<stop stop-color="#FFFA8E"/>
<stop offset="1" stop-color="#FFC806"/>
</linearGradient>
</defs>
</svg>
