<svg width="83" height="72" viewBox="0 0 83 72" fill="none" xmlns="http://www.w3.org/2000/svg">
<g id="logo-wechat-hover-small" filter="url(#filter0_wechat_hover_small)">
<path fill-rule="evenodd" clip-rule="evenodd" d="M68.0225 59.5191C76.6897 53.305 82.2286 44.1111 82.2286 33.8973C82.2286 15 63.8198 0 41.1137 0C18.4076 0 0 15.1761 0 33.8973C0 52.6185 18.4076 67.7951 41.1137 67.7951C45.805 67.7951 50.3349 67.131 54.5348 65.9359C54.9165 65.8206 55.3221 65.758 55.7427 65.758C56.5323 65.758 57.2494 65.9956 57.9259 66.3825L66.9266 71.5239C67.1784 71.6674 67.4209 71.777 67.7185 71.777C68.4757 71.777 69.0889 71.1691 69.0889 70.4206C69.0889 70.0854 68.9537 69.7502 68.8679 69.4293C68.8156 69.2376 67.7075 65.1467 67.016 62.5918C66.9371 62.3048 66.8709 62.0281 66.8709 61.7273C66.8709 60.817 67.3258 60.0111 68.0225 59.5191Z" fill="url(#paint0_linear_wechat_small)"/>
</g>
<defs>
<filter id="filter0_wechat_hover_small" x="0" y="0" width="82.2286" height="71.777" filterUnits="userSpaceOnUse" color-interpolation-filters="sRGB">
<feFlood flood-opacity="0" result="BackgroundImageFix"/>
<feBlend mode="normal" in="SourceGraphic" in2="BackgroundImageFix" result="shape"/>
<feColorMatrix in="SourceAlpha" type="matrix" values="0 0 0 0 0 0 0 0 0 0 0 0 0 0 0 0 0 0 127 0" result="hardAlpha"/>
<feOffset dy="0.5"/>
<feComposite in2="hardAlpha" operator="arithmetic" k2="-1" k3="1"/>
<feColorMatrix type="matrix" values="0 0 0 0 0 0 0 0 0 0.579167 0 0 0 0 0.044127 0 0 0 0.5 0"/>
<feBlend mode="normal" in2="shape" result="effect1_innerShadow"/>
<feColorMatrix in="SourceAlpha" type="matrix" values="0 0 0 0 0 0 0 0 0 0 0 0 0 0 0 0 0 0 127 0" result="hardAlpha"/>
<feOffset dx="1" dy="-1"/>
<feComposite in2="hardAlpha" operator="arithmetic" k2="-1" k3="1"/>
<feColorMatrix type="matrix" values="0 0 0 0 0 0 0 0 0 0.580392 0 0 0 0 0.0431373 0 0 0 0.5 0"/>
<feBlend mode="normal" in2="effect1_innerShadow" result="effect2_innerShadow"/>
<feColorMatrix in="SourceAlpha" type="matrix" values="0 0 0 0 0 0 0 0 0 0 0 0 0 0 0 0 0 0 127 0" result="hardAlpha"/>
<feOffset dx="-2"/>
<feComposite in2="hardAlpha" operator="arithmetic" k2="-1" k3="1"/>
<feColorMatrix type="matrix" values="0 0 0 0 0.394878 0 0 0 0 0.933333 0 0 0 0 0.307222 0 0 0 0.96 0"/>
<feBlend mode="normal" in2="effect2_innerShadow" result="effect3_innerShadow"/>
</filter>
<linearGradient id="paint0_linear_wechat_small" x1="40.5557" y1="0.422913" x2="40.5557" y2="72.1999" gradientUnits="userSpaceOnUse">
<stop stop-color="#84FFF8" stop-opacity="0.7"/>
<stop offset="1" stop-color="#00CE52" stop-opacity="0.9"/>
</linearGradient>
</defs>
</svg>
