<svg width="191" height="215" viewBox="0 0 191 215" fill="none" xmlns="http://www.w3.org/2000/svg">
  <g filter="url(#filter0_echo)">
    <path fill-rule="evenodd" clip-rule="evenodd" d="M66.793 5C64.4333 5 62.2928 6.38306 61.3231 8.53424L10.8163 120.576C9.02626 124.547 11.9305 129.042 16.2862 129.042H53.7097C56.0693 129.042 58.2099 127.659 59.1796 125.508L109.686 13.4658C111.476 9.49493 108.572 5 104.216 5H66.793ZM116.793 55C114.433 55 112.293 56.3831 111.323 58.5342L60.8163 170.576C59.0263 174.547 61.9305 179.042 66.2862 179.042H103.71C106.069 179.042 108.21 177.659 109.18 175.508L159.686 63.4658C161.476 59.4949 158.572 55 154.216 55H116.793Z" fill="#936A00" fill-opacity="0.01"/>
  </g>
  <mask id="mask0_echo" mask-type="alpha" maskUnits="userSpaceOnUse" x="10" y="5" width="150" height="175">
    <path fill-rule="evenodd" clip-rule="evenodd" d="M66.5137 5C64.154 5 62.0135 6.38306 61.0438 8.53424L10.537 120.576C8.74696 124.547 11.6512 129.042 16.0069 129.042H53.4304C55.79 129.042 57.9306 127.659 58.9003 125.508L109.407 13.4658C111.197 9.49493 108.293 5 103.937 5H66.5137ZM116.514 55C114.154 55 112.013 56.3831 111.044 58.5342L60.537 170.576C58.747 174.547 61.6512 179.042 66.0069 179.042H103.43C105.79 179.042 107.931 177.659 108.9 175.508L159.407 63.4658C161.197 59.4949 158.293 55 153.937 55H116.514Z" fill="white"/>
  </mask>
  <g mask="url(#mask0_echo)">
    <g filter="url(#filter1_echo)">
      <path fill-rule="evenodd" clip-rule="evenodd" d="M66.5137 5C64.154 5 62.0135 6.38306 61.0438 8.53424L10.537 120.576C8.74696 124.547 11.6512 129.042 16.0069 129.042H53.4304C55.79 129.042 57.9306 127.659 58.9003 125.508L109.407 13.4658C111.197 9.49493 108.293 5 103.937 5H66.5137ZM116.514 55C114.154 55 112.013 56.3831 111.044 58.5342L60.537 170.576C58.747 174.547 61.6512 179.042 66.0069 179.042H103.43C105.79 179.042 107.931 177.659 108.9 175.508L159.407 63.4658C161.197 59.4949 158.293 55 153.937 55H116.514Z" fill="url(#paint0_echo)"/>
    </g>
    <g style="mix-blend-mode:overlay" filter="url(#filter2_echo)">
      <path fill-rule="evenodd" clip-rule="evenodd" d="M66.793 3C64.4334 3 62.2928 4.38306 61.3231 6.53424L10.1803 119.987C8.68859 123.296 11.1088 127.042 14.7385 127.042H51.7097C54.0693 127.042 56.2099 125.659 57.1796 123.508L107.686 11.4658C109.476 7.49493 106.572 3 102.217 3H66.793ZM116.793 53C114.433 53 112.293 54.3831 111.323 56.5342L60.1803 169.987C58.6886 173.296 61.1088 177.042 64.7385 177.042H101.71C104.069 177.042 106.21 175.659 107.18 173.508L157.686 61.4658C159.476 57.4949 156.572 53 152.217 53H116.793Z" fill="white" fill-opacity="0.01"/>
    </g>
    <g style="mix-blend-mode:overlay" filter="url(#filter3_echo)">
      <path fill-rule="evenodd" clip-rule="evenodd" d="M66.8089 5C64.4411 5 62.2948 6.39245 61.3298 8.55459L11.7694 119.596C9.99815 123.565 12.9025 128.042 17.2485 128.042H54.6939C57.0616 128.042 59.2079 126.649 60.173 124.487L110.99 10.6303C112.171 7.9845 110.234 5 107.337 5H66.8089ZM116.809 55C114.441 55 112.295 56.3924 111.33 58.5546L61.7694 169.596C59.9981 173.565 62.9025 178.042 67.2485 178.042H104.694C107.062 178.042 109.208 176.649 110.173 174.487L160.99 60.6303C162.171 57.9845 160.234 55 157.337 55H116.809Z" fill="white" fill-opacity="0.01"/>
    </g>
    <g style="mix-blend-mode:overlay" filter="url(#filter4_echo)">
      <path fill-rule="evenodd" clip-rule="evenodd" d="M67.3549 5.5C65.0065 5.5 62.8739 6.87014 61.8978 9.00614L11.3816 119.548C9.56567 123.522 12.4698 128.042 16.8388 128.042H53.7003C56.0647 128.042 58.2087 126.653 59.1756 124.496L108.714 13.9537C110.493 9.98417 107.589 5.5 103.239 5.5H67.3549ZM116.767 56C114.421 56 112.29 57.3677 111.312 59.5008L60.8941 169.543C59.0732 173.517 61.9773 178.042 66.3489 178.042H103.707C106.068 178.042 108.21 176.657 109.178 174.504L158.695 64.4621C160.482 60.4916 157.577 56 153.223 56H116.767Z" fill="white" fill-opacity="0.01"/>
    </g>
  </g>
  <defs>
    <filter id="filter0_echo" x="0.279297" y="0" width="189.944" height="214.042" filterUnits="userSpaceOnUse" color-interpolation-filters="sRGB">
      <feFlood flood-opacity="0" result="BackgroundImageFix"/>
      <feColorMatrix in="SourceAlpha" type="matrix" values="0 0 0 0 0 0 0 0 0 0 0 0 0 0 0 0 0 0 127 0"/>
      <feOffset dx="10" dy="15"/>
      <feGaussianBlur stdDeviation="10"/>
      <feColorMatrix type="matrix" values="0 0 0 0 0.575 0 0 0 0 0.414 0 0 0 0 0 0 0 0 0.3 0"/>
      <feBlend mode="normal" in2="BackgroundImageFix" result="effect1_dropShadow"/>
      <feBlend mode="normal" in="SourceGraphic" in2="effect1_dropShadow" result="shape"/>
    </filter>
    <filter id="filter1_echo" x="10" y="5" width="149.944" height="174.042" filterUnits="userSpaceOnUse" color-interpolation-filters="sRGB">
      <feFlood flood-opacity="0" result="BackgroundImageFix"/>
      <feBlend mode="normal" in="SourceGraphic" in2="BackgroundImageFix" result="shape"/>
      <feColorMatrix in="SourceAlpha" type="matrix" values="0 0 0 0 0 0 0 0 0 0 0 0 0 0 0 0 0 0 127 0" result="hardAlpha"/>
      <feOffset/>
      <feGaussianBlur stdDeviation="0.5"/>
      <feComposite in2="hardAlpha" operator="arithmetic" k2="-1" k3="1"/>
      <feColorMatrix type="matrix" values="0 0 0 0 0.808333 0 0 0 0 0.388 0 0 0 0 0 0 0 0 0.3 0"/>
      <feBlend mode="normal" in2="shape" result="effect1_innerShadow"/>
    </filter>
    <filter id="filter2_echo" x="9.23279" y="2.5" width="149.491" height="175.042" filterUnits="userSpaceOnUse" color-interpolation-filters="sRGB">
      <feFlood flood-opacity="0" result="BackgroundImageFix"/>
      <feBlend mode="normal" in="SourceGraphic" in2="BackgroundImageFix" result="shape"/>
      <feColorMatrix in="SourceAlpha" type="matrix" values="0 0 0 0 0 0 0 0 0 0 0 0 0 0 0 0 0 0 127 0" result="hardAlpha"/>
      <feOffset dy="-1"/>
      <feComposite in2="hardAlpha" operator="arithmetic" k2="-1" k3="1"/>
      <feColorMatrix type="matrix" values="0 0 0 0 1 0 0 0 0 1 0 0 0 0 1 0 0 0 1 0"/>
      <feBlend mode="normal" in2="shape" result="effect1_innerShadow"/>
      <feGaussianBlur stdDeviation="0.25" result="effect2_foregroundBlur"/>
    </filter>
    <filter id="filter3_echo" x="10.7417" y="4.5" width="151.1" height="174.042" filterUnits="userSpaceOnUse" color-interpolation-filters="sRGB">
      <feFlood flood-opacity="0" result="BackgroundImageFix"/>
      <feBlend mode="normal" in="SourceGraphic" in2="BackgroundImageFix" result="shape"/>
      <feColorMatrix in="SourceAlpha" type="matrix" values="0 0 0 0 0 0 0 0 0 0 0 0 0 0 0 0 0 0 127 0" result="hardAlpha"/>
      <feOffset dx="-3"/>
      <feComposite in2="hardAlpha" operator="arithmetic" k2="-1" k3="1"/>
      <feColorMatrix type="matrix" values="0 0 0 0 0.4 0 0 0 0 0.0719999 0 0 0 0 0 0 0 0 0.8 0"/>
      <feBlend mode="normal" in2="shape" result="effect1_innerShadow"/>
      <feGaussianBlur stdDeviation="0.25" result="effect2_foregroundBlur"/>
    </filter>
    <filter id="filter4_echo" x="10.3318" y="5" width="149.398" height="173.542" filterUnits="userSpaceOnUse" color-interpolation-filters="sRGB">
      <feFlood flood-opacity="0" result="BackgroundImageFix"/>
      <feBlend mode="normal" in="SourceGraphic" in2="BackgroundImageFix" result="shape"/>
      <feColorMatrix in="SourceAlpha" type="matrix" values="0 0 0 0 0 0 0 0 0 0 0 0 0 0 0 0 0 0 127 0" result="hardAlpha"/>
      <feOffset dx="1"/>
      <feComposite in2="hardAlpha" operator="arithmetic" k2="-1" k3="1"/>
      <feColorMatrix type="matrix" values="0 0 0 0 1 0 0 0 0 1 0 0 0 0 1 0 0 0 0.5 0"/>
      <feBlend mode="normal" in2="shape" result="effect1_innerShadow"/>
      <feGaussianBlur stdDeviation="0.25" result="effect2_foregroundBlur"/>
    </filter>
    <linearGradient id="paint0_echo" x1="63.2207" y1="5" x2="63.2207" y2="179" gradientUnits="userSpaceOnUse">
      <stop stop-color="#FFF500" stop-opacity="0.6"/>
      <stop offset="1" stop-color="#FFC700" stop-opacity="0.9"/>
    </linearGradient>
  </defs>
</svg>
