<svg width="78" height="29" viewBox="0 0 78 29" fill="none" xmlns="http://www.w3.org/2000/svg">
<path d="M6.3539 5.21094V24H11.9008C14.7393 24 16.7185 22.6003 17.8383 19.8008C18.4503 18.2643 18.7562 16.4349 18.7562 14.3125C18.7562 11.3828 18.294 9.13672 17.3695 7.57422C16.4581 5.9987 14.6352 5.21094 11.9008 5.21094H6.3539ZM12.9164 0.210938C14.7003 0.236979 16.1846 0.445312 17.3695 0.835938C19.3878 1.5 21.0219 2.71745 22.2719 4.48828C23.2745 5.92057 23.9581 7.47005 24.3227 9.13672C24.6872 10.8034 24.8695 12.3919 24.8695 13.9023C24.8695 17.7305 24.1013 20.9727 22.5648 23.6289C20.4815 27.2096 17.2654 29 12.9164 29H0.514061V0.210938H12.9164ZM34.8602 5.21094V24H40.407C43.2456 24 45.2247 22.6003 46.3445 19.8008C46.9565 18.2643 47.2625 16.4349 47.2625 14.3125C47.2625 11.3828 46.8003 9.13672 45.8758 7.57422C44.9643 5.9987 43.1414 5.21094 40.407 5.21094H34.8602ZM41.4227 0.210938C43.2065 0.236979 44.6909 0.445312 45.8758 0.835938C47.894 1.5 49.5281 2.71745 50.7781 4.48828C51.7807 5.92057 52.4643 7.47005 52.8289 9.13672C53.1935 10.8034 53.3758 12.3919 53.3758 13.9023C53.3758 17.7305 52.6076 20.9727 51.0711 23.6289C48.9878 27.2096 45.7716 29 41.4227 29H29.0203V0.210938H41.4227ZM55.4953 23.9219L70.3586 5.30859H55.8664V0.210938H77.8586V5.03516L62.8 23.9219H77.8977V29H55.4953V23.9219Z" fill="white"/>
</svg>
