<svg width="139" height="127" viewBox="0 0 139 127" fill="none" xmlns="http://www.w3.org/2000/svg">
  <g filter="url(#filter0_wechat_big)">
    <path fill-rule="evenodd" clip-rule="evenodd" d="M10 45.678C10 23.212 32.0894 5 59.337 5C91.5 5 109 26.8498 109 45.678C109 69 84.5 86.3543 59.337 86.3543C53.5 86.3543 48.2715 85.5576 43.2327 84.1243C42.7738 83.9848 42.2876 83.9096 41.7823 83.9096C40.8348 83.9096 39.975 84.1955 39.1622 84.6593L28.3624 90.8287C28.0613 91.0003 27.7689 91.1323 27.412 91.1323C26.5029 91.1323 25.7673 90.4039 25.7673 89.505C25.7673 89.2002 25.8598 88.8954 25.9501 88.5981C25.979 88.5029 26.0077 88.4085 26.033 88.3151C26.0951 88.0855 27.4242 83.176 28.255 80.1114C28.3502 79.7659 28.4279 79.4341 28.4279 79.0742C28.4279 77.9807 27.8831 77.0135 27.0471 76.4229C16.6458 68.9665 10 57.9336 10 45.678ZM41.8917 39.169C38.2587 39.169 35.3137 36.2553 35.3137 32.6609C35.3137 29.0659 38.2587 26.1523 41.8917 26.1523C45.5247 26.1523 48.4696 29.0659 48.4696 32.6609C48.4696 36.2553 45.5247 39.169 41.8917 39.169ZM68.2041 32.6609C68.2041 36.2553 71.149 39.169 74.7832 39.169C78.4157 39.169 81.3606 36.2553 81.3606 32.6609C81.3606 29.0659 78.4157 26.1523 74.7832 26.1523C71.149 26.1523 68.2041 29.0659 68.2041 32.6609Z" fill="#00CE52" fill-opacity="0.01"/>
  </g>
  <mask id="mask0_wechat_big" mask-type="alpha" maskUnits="userSpaceOnUse" x="10" y="5" width="99" height="87">
    <path fill-rule="evenodd" clip-rule="evenodd" d="M10 45.678C10 23 31.5 5 59.337 5C91.5 5 109 26.8498 109 45.678C109 68.5 84 86.3543 59.337 86.3543C53.5 86.3543 48.2715 85.5576 43.2327 84.1243C42.7738 83.9848 42.2876 83.9096 41.7823 83.9096C40.8348 83.9096 39.975 84.1955 39.1622 84.6593L28.3624 90.8287C28.0613 91.0003 27.7689 91.1323 27.412 91.1323C26.5029 91.1323 25.7673 90.4039 25.7673 89.505C25.7673 89.2002 25.8598 88.8954 25.9501 88.5981C25.979 88.5029 26.0077 88.4085 26.033 88.3151C26.0951 88.0855 27.4242 83.176 28.255 80.1114C28.3502 79.7659 28.4279 79.4341 28.4279 79.0742C28.4279 77.9807 27.8831 77.0135 27.0471 76.4229C16.6458 68.9665 10 57.9336 10 45.678ZM41.8917 39.169C38.2587 39.169 35.3137 36.2553 35.3137 32.6609C35.3137 29.0659 38.2587 26.1523 41.8917 26.1523C45.5247 26.1523 48.4696 29.0659 48.4696 32.6609C48.4696 36.2553 45.5247 39.169 41.8917 39.169ZM68.2041 32.6609C68.2041 36.2553 71.149 39.169 74.7832 39.169C78.4157 39.169 81.3606 36.2553 81.3606 32.6609C81.3606 29.0659 78.4157 26.1523 74.7832 26.1523C71.149 26.1523 68.2041 29.0659 68.2041 32.6609Z" fill="white"/>
  </mask>
  <g mask="url(#mask0_wechat_big)">
    <g filter="url(#filter1_wechat_big)">
      <path fill-rule="evenodd" clip-rule="evenodd" d="M10 45.678C10 23 31.5 5 59.337 5C91.5 5 109 26.8498 109 45.678C109 68.5 84 86.3543 59.337 86.3543C53.5 86.3543 48.2715 85.5576 43.2327 84.1243C42.7738 83.9848 42.2876 83.9096 41.7823 83.9096C40.8348 83.9096 39.975 84.1955 39.1622 84.6593L28.3624 90.8287C28.0613 91.0003 27.7689 91.1323 27.412 91.1323C26.5029 91.1323 25.7673 90.4039 25.7673 89.505C25.7673 89.2002 25.8598 88.8954 25.9501 88.5981C25.979 88.5029 26.0077 88.4085 26.033 88.3151C26.0951 88.0855 27.4242 83.176 28.255 80.1114C28.3502 79.7659 28.4279 79.4341 28.4279 79.0742C28.4279 77.9807 27.8831 77.0135 27.0471 76.4229C16.6458 68.9665 10 57.9336 10 45.678ZM41.8917 39.169C38.2587 39.169 35.3137 36.2553 35.3137 32.6609C35.3137 29.0659 38.2587 26.1523 41.8917 26.1523C45.5247 26.1523 48.4696 29.0659 48.4696 32.6609C48.4696 36.2553 45.5247 39.169 41.8917 39.169ZM68.2041 32.6609C68.2041 36.2553 71.149 39.169 74.7832 39.169C78.4157 39.169 81.3606 36.2553 81.3606 32.6609C81.3606 29.0659 78.4157 26.1523 74.7832 26.1523C71.149 26.1523 68.2041 29.0659 68.2041 32.6609Z" fill="url(#paint0_wechat_big)"/>
    </g>
    <g style="mix-blend-mode:overlay" filter="url(#filter2_wechat_big)">
      <path fill-rule="evenodd" clip-rule="evenodd" d="M10 43.678C10 21 31.5 3 59.337 3C91.5 3 109 24.8498 109 43.678C109 66.5 84 84.3543 59.337 84.3543C53.5 84.3543 48.2715 83.5576 43.2327 82.1243C42.7738 81.9848 42.2876 81.9096 41.7823 81.9096C40.8348 81.9096 39.975 82.1955 39.1622 82.6593L28.3624 88.8287C28.0613 89.0003 27.7689 89.1323 27.412 89.1323C26.5029 89.1323 25.7673 88.4039 25.7673 87.505C25.7673 87.2002 25.8598 86.8954 25.9501 86.5981C25.979 86.5029 26.0077 86.4085 26.033 86.3151C26.0951 86.0855 27.4242 81.176 28.255 78.1114C28.3502 77.7659 28.4279 77.4341 28.4279 77.0742C28.4279 75.9807 27.8831 75.0135 27.0471 74.4229C16.6458 66.9665 10 55.9336 10 43.678ZM41.8917 38.169C38.2587 38.169 34.3137 35.2553 34.3137 31.6609C34.3137 28.0659 38.2587 25.1523 41.8917 25.1523C45.5247 25.1523 49.4696 28.0659 49.4696 31.6609C49.4696 35.2553 45.5247 38.169 41.8917 38.169ZM67.2041 31.6609C67.2041 35.2553 71.149 38.169 74.7832 38.169C78.4157 38.169 82.3606 35.2553 82.3606 31.6609C82.3606 28.0659 78.4157 25.1523 74.7832 25.1523C71.149 25.1523 67.2041 28.0659 67.2041 31.6609Z" fill="white" fill-opacity="0.01"/>
    </g>
    <g style="mix-blend-mode:multiply" filter="url(#filter3_wechat_big)">
      <path fill-rule="evenodd" clip-rule="evenodd" d="M12 45.678C12 23 33.5 5 61.337 5C93.5 5 111 26.8498 111 45.678C111 68.5 86 86.3543 61.337 86.3543C55.5 86.3543 50.2715 85.5576 45.2327 84.1243C44.7738 83.9848 44.2876 83.9096 43.7823 83.9096C42.8348 83.9096 41.975 84.1955 41.1622 84.6593L30.3624 90.8287C30.0613 91.0003 29.7689 91.1323 29.412 91.1323C28.5029 91.1323 27.7673 90.4039 27.7673 89.505C27.7673 89.2002 27.8598 88.8954 27.9501 88.5981C27.979 88.5029 28.0077 88.4085 28.033 88.3151C28.0951 88.0855 29.4242 83.176 30.255 80.1114C30.3502 79.7659 30.4279 79.4341 30.4279 79.0742C30.4279 77.9807 29.8831 77.0135 29.0471 76.4229C18.6458 68.9665 12 57.9336 12 45.678ZM43.8917 39.169C40.2587 38.169 37.3137 35.2553 37.3137 31.6609C37.3137 28.0659 40.2587 25.1523 43.8917 25.1523C47.5247 25.1523 50.4696 28.0659 50.4696 31.6609C50.4696 35.2553 47.5247 39.169 43.8917 39.169ZM70.2041 31.6609C70.2041 35.2553 73.149 38.169 76.7832 38.169C80.4157 38.169 83.3606 35.2553 83.3606 31.6609C83.3606 28.0659 80.4157 25.1523 76.7832 25.1523C73.149 25.1523 70.2041 28.0659 70.2041 31.6609Z" fill="white" fill-opacity="0.01"/>
    </g>
    <g style="mix-blend-mode:overlay" filter="url(#filter4_wechat_big)">
      <path fill-rule="evenodd" clip-rule="evenodd" d="M11 45.678C11 23 32.5 5 60.337 5C92.5 5 110 26.8498 110 45.678C110 68.5 85 86.3543 60.337 86.3543C54.5 86.3543 49.2715 85.5576 44.2327 84.1243C43.7738 83.9848 43.2876 83.9096 42.7823 83.9096C41.8348 83.9096 40.975 84.1955 40.1622 84.6593L29.3624 90.8287C29.0613 91.0003 28.7689 91.1323 28.412 91.1323C27.5029 91.1323 26.7673 90.4039 26.7673 89.505C26.7673 89.2002 26.8598 88.8954 26.9501 88.5981C26.979 88.5029 27.0077 88.4085 27.033 88.3151C27.0951 88.0855 28.4242 83.176 29.255 80.1114C29.3502 79.7659 29.4279 79.4341 29.4279 79.0742C29.4279 77.9807 28.8831 77.0135 28.0471 76.4229C17.6458 68.9665 11 57.9336 11 45.678ZM41.8917 39.169C38.2587 39.169 35.3137 36.2553 35.3137 32.6609C35.3137 29.0659 38.2587 26.1523 41.8917 26.1523C45.5247 26.1523 48.4696 29.0659 48.4696 32.6609C48.4696 36.2553 45.5247 39.169 41.8917 39.169ZM68.2041 32.6609C68.2041 36.2553 71.149 39.169 74.7832 39.169C78.4157 39.169 81.3606 36.2553 81.3606 32.6609C81.3606 29.0659 78.4157 26.1523 74.7832 26.1523C71.149 26.1523 68.2041 29.0659 68.2041 32.6609Z" fill="white" fill-opacity="0.01"/>
    </g>
  </g>
  <defs>
    <filter id="filter0_wechat_big" x="0" y="0" width="139" height="126.132" filterUnits="userSpaceOnUse" color-interpolation-filters="sRGB">
      <feFlood flood-opacity="0" result="BackgroundImageFix"/>
      <feColorMatrix in="SourceAlpha" type="matrix" values="0 0 0 0 0 0 0 0 0 0 0 0 0 0 0 0 0 0 127 0"/>
      <feOffset dx="10" dy="15"/>
      <feGaussianBlur stdDeviation="10"/>
      <feColorMatrix type="matrix" values="0 0 0 0 0 0 0 0 0 0.445833 0 0 0 0 0.0301239 0 0 0 0.4 0"/>
      <feBlend mode="normal" in2="BackgroundImageFix" result="effect1_dropShadow"/>
      <feBlend mode="normal" in="SourceGraphic" in2="effect1_dropShadow" result="shape"/>
    </filter>
    <filter id="filter1_wechat_big" x="10" y="5" width="99" height="86.1323" filterUnits="userSpaceOnUse" color-interpolation-filters="sRGB">
      <feFlood flood-opacity="0" result="BackgroundImageFix"/>
      <feBlend mode="normal" in="SourceGraphic" in2="BackgroundImageFix" result="shape"/>
      <feColorMatrix in="SourceAlpha" type="matrix" values="0 0 0 0 0 0 0 0 0 0 0 0 0 0 0 0 0 0 127 0" result="hardAlpha"/>
      <feOffset/>
      <feGaussianBlur stdDeviation="0.5"/>
      <feComposite in2="hardAlpha" operator="arithmetic" k2="-1" k3="1"/>
      <feColorMatrix type="matrix" values="0 0 0 0 0 0 0 0 0 0.366667 0 0 0 0 0.0272523 0 0 0 1 0"/>
      <feBlend mode="normal" in2="shape" result="effect1_innerShadow"/>
    </filter>
    <filter id="filter2_wechat_big" x="9.5" y="2.5" width="100" height="87.1323" filterUnits="userSpaceOnUse" color-interpolation-filters="sRGB">
      <feFlood flood-opacity="0" result="BackgroundImageFix"/>
      <feBlend mode="normal" in="SourceGraphic" in2="BackgroundImageFix" result="shape"/>
      <feColorMatrix in="SourceAlpha" type="matrix" values="0 0 0 0 0 0 0 0 0 0 0 0 0 0 0 0 0 0 127 0" result="hardAlpha"/>
      <feOffset dy="-1"/>
      <feComposite in2="hardAlpha" operator="arithmetic" k2="-1" k3="1"/>
      <feColorMatrix type="matrix" values="0 0 0 0 1 0 0 0 0 1 0 0 0 0 1 0 0 0 1 0"/>
      <feBlend mode="normal" in2="shape" result="effect1_innerShadow"/>
      <feGaussianBlur stdDeviation="0.25" result="effect2_foregroundBlur"/>
    </filter>
    <filter id="filter3_wechat_big" x="11.5" y="4.5" width="100" height="87.1323" filterUnits="userSpaceOnUse" color-interpolation-filters="sRGB">
      <feFlood flood-opacity="0" result="BackgroundImageFix"/>
      <feBlend mode="normal" in="SourceGraphic" in2="BackgroundImageFix" result="shape"/>
      <feColorMatrix in="SourceAlpha" type="matrix" values="0 0 0 0 0 0 0 0 0 0 0 0 0 0 0 0 0 0 127 0" result="hardAlpha"/>
      <feOffset dx="-3" dy="1"/>
      <feComposite in2="hardAlpha" operator="arithmetic" k2="-1" k3="1"/>
      <feColorMatrix type="matrix" values="0 0 0 0 0 0 0 0 0 0.8625 0 0 0 0 0.294643 0 0 0 1 0"/>
      <feBlend mode="normal" in2="shape" result="effect1_innerShadow"/>
      <feGaussianBlur stdDeviation="0.25" result="effect2_foregroundBlur"/>
    </filter>
    <filter id="filter4_wechat_big" x="10.5" y="4.5" width="100" height="87.1323" filterUnits="userSpaceOnUse" color-interpolation-filters="sRGB">
      <feFlood flood-opacity="0" result="BackgroundImageFix"/>
      <feBlend mode="normal" in="SourceGraphic" in2="BackgroundImageFix" result="shape"/>
      <feColorMatrix in="SourceAlpha" type="matrix" values="0 0 0 0 0 0 0 0 0 0 0 0 0 0 0 0 0 0 127 0" result="hardAlpha"/>
      <feOffset dx="1"/>
      <feComposite in2="hardAlpha" operator="arithmetic" k2="-1" k3="1"/>
      <feColorMatrix type="matrix" values="0 0 0 0 1 0 0 0 0 1 0 0 0 0 1 0 0 0 0.3 0"/>
      <feBlend mode="normal" in2="shape" result="effect1_innerShadow"/>
      <feGaussianBlur stdDeviation="0.25" result="effect2_foregroundBlur"/>
    </filter>
    <linearGradient id="paint0_wechat_big" x1="58.8274" y1="5.50749" x2="58.8274" y2="91.6398" gradientUnits="userSpaceOnUse">
      <stop stop-color="#00FF66" stop-opacity="0.5"/>
      <stop offset="1" stop-color="#00CE52" stop-opacity="0.6"/>
    </linearGradient>
  </defs>
</svg>
