<svg width="242" height="780" viewBox="0 0 242 780" fill="none" xmlns="http://www.w3.org/2000/svg">
<path d="M36.7327 132.075C40.108 131.354 43.7533 132.619 45.9211 135.603C48.8512 139.636 47.9725 145.269 43.9583 148.186C39.9442 151.102 34.3151 150.197 31.385 146.164C29.2173 143.18 29.1397 139.323 30.8685 136.336C30.8728 136.244 30.851 136.152 30.795 136.075L19.8804 121.053C10.02 130.397 8.51781 145.956 17.0358 157.173C25.6308 168.492 42.6574 171.174 54.2269 163.035C66.6131 154.32 69.3943 137.142 60.4827 124.876C52.3613 113.698 37.3598 110.503 25.5935 116.902L36.5081 131.925C36.564 132.002 36.6443 132.051 36.7327 132.075" stroke="#FFFA00" stroke-width="0.5"/>
<path d="M31.9219 180.392C34.2286 177.824 37.9217 176.706 41.4292 177.845C46.1702 179.386 48.7705 184.46 47.2372 189.179C45.704 193.897 40.618 196.474 35.8769 194.933C32.3694 193.794 30.0394 190.719 29.682 187.286C29.6318 187.209 29.5602 187.148 29.4696 187.118L11.8094 181.38C9.3248 194.736 17.2547 208.206 30.7393 212.274C44.3458 216.379 59.6967 208.541 64.2726 195.156C69.1713 180.826 61.3239 165.293 46.9047 160.608C33.7641 156.338 19.7496 162.571 13.9916 174.664L31.6518 180.402C31.7424 180.432 31.8363 180.424 31.9219 180.392" stroke="#FFFA00" stroke-width="0.5"/>
<path d="M29.6815 230.999C30.0385 227.566 32.3688 224.491 35.8763 223.351C40.6173 221.811 45.7033 224.387 47.2366 229.106C48.7699 233.825 46.1696 238.899 41.4286 240.439C37.9211 241.579 34.2285 240.461 31.9214 237.893C31.836 237.861 31.7419 237.853 31.6513 237.883L13.9911 243.621C19.8313 255.886 34.1644 262.123 47.4649 257.488C60.8857 252.812 68.6974 237.447 64.5318 223.929C60.0718 209.456 44.5934 201.502 30.1742 206.187C17.0336 210.457 9.35927 223.737 11.8089 236.905L29.4691 231.167C29.5597 231.137 29.6314 231.076 29.6815 230.999" stroke="#FFFA00" stroke-width="0.5"/>
<path d="M30.8686 281.949C29.1396 278.962 29.217 275.104 31.3848 272.121C34.3149 268.088 39.944 267.183 43.9581 270.099C47.9722 273.015 48.851 278.649 45.9208 282.682C43.7531 285.665 40.1084 286.931 36.7329 286.21C36.6448 286.234 36.5642 286.283 36.5082 286.36L25.5936 301.383C37.5278 307.873 52.7894 304.494 60.8255 292.926C68.9342 281.254 66.223 264.233 54.907 255.744C42.7919 246.657 25.5947 249.321 16.6831 261.586C8.56173 272.765 10.1589 288.019 19.8806 297.232L30.7952 282.21C30.8511 282.133 30.8732 282.041 30.8686 281.949" stroke="#FFFA00" stroke-width="0.5"/>
<path d="M35.0287 331.162C31.874 329.762 29.669 326.595 29.669 322.907C29.669 317.922 33.691 313.881 38.6527 313.881C43.6145 313.881 47.6365 317.922 47.6365 322.907C47.6365 326.595 45.4319 329.761 42.2772 331.162C42.2202 331.233 42.1838 331.321 42.1838 331.416V349.985C55.6537 348.221 66.0142 336.516 65.7164 322.435C65.4159 308.226 53.2173 296.048 39.0732 295.832C23.9306 295.602 11.5832 307.865 11.5832 323.026C11.5832 336.843 21.8418 348.246 35.1221 349.985V331.416C35.1221 331.321 35.0862 331.233 35.0287 331.162" stroke="#FFFA00" stroke-width="0.5"/>
<path d="M40.5729 377.222C37.1976 377.943 33.5523 376.677 31.3846 373.694C28.4545 369.661 29.3332 364.027 33.3473 361.111C37.3615 358.194 42.9905 359.1 45.9207 363.132C48.0884 366.116 48.1659 369.974 46.4371 372.961C46.4329 373.052 46.4547 373.144 46.5106 373.221L57.4252 388.244C67.2856 378.899 68.7879 363.341 60.2699 352.123C51.6749 340.804 34.6483 338.123 23.0787 346.262C10.6925 354.976 7.9114 372.155 16.823 384.42C24.9443 395.599 39.9459 398.793 51.7122 392.395L40.7976 377.372C40.7416 377.295 40.6614 377.246 40.5729 377.222" stroke="#FFFA00" stroke-width="0.5"/>
<path d="M45.3838 419.917C43.0771 422.484 39.3839 423.603 35.8764 422.463C31.1354 420.923 28.5352 415.849 30.0684 411.13C31.6017 406.411 36.6877 403.834 41.4287 405.375C44.9362 406.514 47.2663 409.59 47.6237 413.023C47.6739 413.099 47.7455 413.161 47.836 413.19L65.4962 418.928C67.9809 405.572 60.0509 392.102 46.5663 388.034C32.9599 383.929 17.609 391.767 13.033 405.153C8.13439 419.483 15.9817 435.015 30.401 439.7C43.5416 443.97 57.556 437.737 63.314 425.644L45.6539 419.906C45.5633 419.877 45.4693 419.884 45.3838 419.917" stroke="#FFFA00" stroke-width="0.5"/>
<path d="M46.437 500.382C48.1661 503.369 48.0886 507.227 45.9209 510.211C42.9908 514.244 37.3617 515.149 33.3476 512.233C29.3334 509.316 28.4547 503.683 31.3848 499.65C33.5526 496.666 37.1973 495.401 40.5728 496.122C40.6609 496.097 40.7415 496.048 40.7975 495.971L51.7121 480.949C39.7778 474.458 24.5163 477.838 16.4802 489.405C8.37142 501.077 11.0827 518.099 22.3987 526.587C34.5138 535.674 51.711 533.011 60.6226 520.745C68.7439 509.567 67.1468 494.312 57.4251 485.099L46.5105 500.122C46.4545 500.199 46.4324 500.291 46.437 500.382" stroke="#FFFA00" stroke-width="0.5"/>
<path d="M42.277 542.181C45.4316 543.581 47.6367 546.748 47.6367 550.436C47.6367 555.421 43.6147 559.462 38.6529 559.462C33.6912 559.462 29.6691 555.421 29.6691 550.436C29.6691 546.748 31.8738 543.582 35.0284 542.181C35.0855 542.11 35.1218 542.023 35.1218 541.927V523.358C21.652 525.123 11.2915 536.827 11.5893 550.909C11.8898 565.118 24.0884 577.295 38.2325 577.511C53.3751 577.741 65.7224 565.478 65.7224 550.317C65.7224 536.5 55.4638 525.098 42.1836 523.358V541.927C42.1836 542.023 42.2195 542.11 42.277 542.181" stroke="#FFFA00" stroke-width="0.5"/>
<path d="M228.394 115.336C231.77 114.615 235.415 115.88 237.583 118.864C240.513 122.897 239.634 128.53 235.62 131.447C231.606 134.363 225.977 133.458 223.047 129.425C220.879 126.441 220.801 122.584 222.53 119.596C222.534 119.505 222.513 119.413 222.457 119.336L211.542 104.314C201.682 113.658 200.179 129.217 208.697 140.434C217.292 151.753 234.319 154.435 245.889 146.296C258.275 137.581 261.056 120.403 252.144 108.137C244.023 96.9591 229.021 93.7641 217.255 100.163L228.17 115.186C228.226 115.263 228.306 115.312 228.394 115.336" stroke="#FFFA00" stroke-width="0.5"/>
<path d="M223.583 163.653C225.89 161.085 229.583 159.967 233.09 161.106C237.831 162.647 240.432 167.721 238.898 172.439C237.365 177.158 232.279 179.735 227.538 178.194C224.031 177.055 221.701 173.98 221.343 170.546C221.293 170.47 221.221 170.409 221.131 170.379L203.471 164.641C200.986 177.997 208.916 191.467 222.4 195.535C236.007 199.64 251.358 191.802 255.934 178.417C260.832 164.086 252.985 148.554 238.566 143.869C225.425 139.599 211.411 145.832 205.653 157.925L223.313 163.663C223.404 163.693 223.497 163.685 223.583 163.653" stroke="#FFFA00" stroke-width="0.5"/>
<path d="M221.343 214.26C221.7 210.827 224.03 207.752 227.538 206.612C232.279 205.072 237.365 207.648 238.898 212.367C240.431 217.086 237.831 222.16 233.09 223.7C229.583 224.84 225.89 223.722 223.583 221.154C223.498 221.122 223.403 221.114 223.313 221.144L205.653 226.882C211.493 239.147 225.826 245.384 239.127 240.749C252.547 236.073 260.359 220.708 256.193 207.19C251.733 192.717 236.255 184.763 221.836 189.448C208.695 193.718 201.021 206.998 203.471 220.166L221.131 214.428C221.221 214.398 221.293 214.337 221.343 214.26" stroke="#FFFA00" stroke-width="0.5"/>
<path d="M222.53 265.21C220.801 262.223 220.879 258.365 223.046 255.382C225.977 251.349 231.606 250.444 235.62 253.36C239.634 256.276 240.513 261.91 237.582 265.943C235.415 268.926 231.77 270.192 228.394 269.471C228.306 269.495 228.226 269.544 228.17 269.621L217.255 284.644C229.189 291.134 244.451 287.755 252.487 276.187C260.596 264.515 257.885 247.494 246.569 239.005C234.454 229.918 217.256 232.582 208.345 244.847C200.223 256.026 201.821 271.28 211.542 280.493L222.457 265.471C222.513 265.394 222.535 265.302 222.53 265.21" stroke="#FFFA00" stroke-width="0.5"/>
<path d="M226.69 314.423C223.535 313.023 221.33 309.856 221.33 306.168C221.33 301.183 225.352 297.142 230.314 297.142C235.276 297.142 239.298 301.183 239.298 306.168C239.298 309.856 237.093 313.022 233.938 314.423C233.881 314.494 233.845 314.582 233.845 314.677V333.246C247.315 331.482 257.675 319.777 257.378 305.696C257.077 291.487 244.878 279.309 230.734 279.093C215.592 278.863 203.244 291.126 203.244 306.287C203.244 320.104 213.503 331.507 226.783 333.246V314.677C226.783 314.582 226.747 314.494 226.69 314.423" stroke="#FFFA00" stroke-width="0.5"/>
<path d="M232.235 360.483C228.859 361.204 225.214 359.938 223.046 356.955C220.116 352.922 220.995 347.288 225.009 344.372C229.023 341.455 234.652 342.361 237.582 346.393C239.75 349.377 239.828 353.235 238.099 356.222C238.095 356.313 238.116 356.405 238.172 356.482L249.087 371.505C258.947 362.16 260.449 346.601 251.931 335.384C243.336 324.065 226.31 321.384 214.74 329.523C202.354 338.237 199.573 355.416 208.485 367.681C216.606 378.86 231.608 382.054 243.374 375.656L232.459 360.633C232.403 360.556 232.323 360.507 232.235 360.483" stroke="#FFFA00" stroke-width="0.5"/>
<path d="M237.045 403.178C234.739 405.745 231.046 406.864 227.538 405.724C222.797 404.184 220.197 399.11 221.73 394.391C223.263 389.672 228.349 387.095 233.09 388.636C236.598 389.775 238.928 392.851 239.285 396.284C239.336 396.36 239.407 396.422 239.498 396.451L257.158 402.189C259.642 388.833 251.713 375.363 238.228 371.295C224.621 367.19 209.271 375.028 204.695 388.414C199.796 402.744 207.643 418.276 222.063 422.961C235.203 427.231 249.218 420.998 254.976 408.905L237.315 403.167C237.225 403.138 237.131 403.145 237.045 403.178" stroke="#FFFA00" stroke-width="0.5"/>
<path d="M239.285 443.581C238.928 447.014 236.598 450.09 233.091 451.23C228.349 452.77 223.263 450.194 221.73 445.475C220.197 440.756 222.797 435.682 227.538 434.142C231.046 433.002 234.738 434.12 237.045 436.688C237.131 436.72 237.225 436.728 237.315 436.698L254.976 430.96C249.135 418.695 234.802 412.458 221.502 417.093C208.081 421.769 200.269 437.134 204.435 450.652C208.895 465.125 224.373 473.079 238.793 468.394C251.933 464.124 259.608 450.844 257.158 437.676L239.498 443.414C239.407 443.444 239.335 443.505 239.285 443.581" stroke="#FFFA00" stroke-width="0.5"/>
<path d="M238.099 483.643C239.828 486.63 239.75 490.488 237.583 493.472C234.652 497.505 229.023 498.41 225.009 495.494C220.995 492.577 220.116 486.944 223.046 482.911C225.214 479.927 228.859 478.662 232.234 479.383C232.322 479.358 232.403 479.309 232.459 479.232L243.374 464.21C231.439 457.719 216.178 461.099 208.142 472.666C200.033 484.338 202.744 501.36 214.06 509.848C226.175 518.935 243.373 516.272 252.284 504.006C260.406 492.828 258.808 477.573 249.087 468.36L238.172 483.383C238.116 483.46 238.094 483.552 238.099 483.643" stroke="#FFFA00" stroke-width="0.5"/>
<path d="M233.939 525.442C237.093 526.842 239.298 530.009 239.298 533.697C239.298 538.682 235.276 542.723 230.315 542.723C225.353 542.723 221.331 538.682 221.331 533.697C221.331 530.009 223.535 526.843 226.69 525.442C226.747 525.371 226.783 525.284 226.783 525.188V506.619C213.314 508.384 202.953 520.088 203.251 534.17C203.551 548.379 215.75 560.556 229.894 560.772C245.037 561.002 257.384 548.739 257.384 533.578C257.384 519.761 247.125 508.359 233.845 506.619V525.188C233.845 525.284 233.881 525.371 233.939 525.442" stroke="#FFFA00" stroke-width="0.5"/>
<path d="M95.309 118.716C92.4359 122.671 93.3123 128.206 97.2672 131.08L96.9733 131.484C92.795 128.449 91.8691 122.6 94.9045 118.423L95.309 118.716ZM97.2672 131.08C101.222 133.953 106.757 133.076 109.631 129.122L110.035 129.415C107 133.593 101.152 134.52 96.9733 131.484L97.2672 131.08ZM109.631 129.122C112.504 125.167 111.627 119.632 107.672 116.758L107.966 116.354C112.145 119.389 113.07 125.238 110.035 129.415L109.631 129.122ZM107.672 116.758C103.717 113.885 98.1822 114.762 95.309 118.716L94.9045 118.423C97.94 114.245 103.788 113.318 107.966 116.354L107.672 116.758ZM124.761 140.115C115.817 152.426 98.5858 155.155 86.2743 146.21L86.5682 145.806C98.6563 154.588 115.574 151.908 124.357 139.821L124.761 140.115ZM86.2743 146.21C73.9632 137.266 71.2341 120.035 80.1786 107.723L80.5831 108.017C71.8009 120.105 74.4805 137.024 86.5682 145.806L86.2743 146.21ZM80.1786 107.723C89.1231 95.4124 106.354 92.6832 118.665 101.628L118.372 102.032C106.284 93.25 89.3653 95.9297 80.5831 108.017L80.1786 107.723ZM118.665 101.628C130.977 110.573 133.706 127.803 124.761 140.115L124.357 139.821C133.139 127.733 130.46 110.815 118.372 102.032L118.665 101.628Z" fill="#FFFA00"/>
<path d="M99.7348 161.007C95.086 162.517 92.5414 167.511 94.052 172.16L93.5765 172.314C91.9805 167.403 94.6689 162.127 99.5803 160.531L99.7348 161.007ZM94.052 172.16C95.5626 176.809 100.556 179.353 105.205 177.843L105.36 178.318C100.448 179.914 95.1725 177.226 93.5765 172.314L94.052 172.16ZM105.205 177.843C109.854 176.332 112.399 171.339 110.888 166.69L111.363 166.535C112.959 171.447 110.271 176.722 105.36 178.318L105.205 177.843ZM110.888 166.69C109.377 162.04 104.384 159.496 99.7348 161.007L99.5803 160.531C104.492 158.936 109.767 161.623 111.363 166.535L110.888 166.69ZM110.984 195.63C96.5118 200.332 80.9675 192.412 76.2649 177.939L76.7405 177.785C81.3577 191.995 96.6199 199.771 110.83 195.154L110.984 195.63ZM76.2649 177.939C71.5625 163.467 79.4828 147.922 93.9554 143.22L94.1099 143.695C79.9 148.312 72.1234 163.575 76.7405 177.785L76.2649 177.939ZM93.9554 143.22C108.428 138.517 123.972 146.438 128.675 160.91L128.199 161.065C123.582 146.855 108.32 139.078 94.1099 143.695L93.9554 143.22ZM128.675 160.91C133.377 175.383 125.457 190.927 110.984 195.63L110.83 195.154C125.04 190.537 132.817 175.275 128.199 161.065L128.675 160.91Z" fill="#FFFA00"/>
<path d="M105.205 206.513C100.556 205.002 95.5626 207.546 94.052 212.195L93.5764 212.041C95.1724 207.129 100.448 204.441 105.36 206.037L105.205 206.513ZM94.052 212.195C92.5413 216.845 95.0859 221.838 99.7348 223.349L99.5802 223.824C94.6688 222.228 91.9805 216.953 93.5764 212.041L94.052 212.195ZM99.7348 223.349C104.384 224.859 109.377 222.315 110.888 217.666L111.363 217.82C109.767 222.732 104.492 225.42 99.5802 223.824L99.7348 223.349ZM110.888 217.666C112.399 213.017 109.854 208.023 105.205 206.513L105.36 206.037C110.271 207.633 112.959 212.908 111.363 217.82L110.888 217.666ZM93.9554 241.136C79.4828 236.433 71.5624 220.889 76.2649 206.416L76.7404 206.571C72.1232 220.781 79.8999 236.043 94.1099 240.66L93.9554 241.136ZM76.2649 206.416C80.9673 191.944 96.5118 184.023 110.984 188.726L110.83 189.201C96.6199 184.584 81.3575 192.361 76.7404 206.571L76.2649 206.416ZM110.984 188.726C125.457 193.428 133.377 208.973 128.675 223.445L128.199 223.291C132.816 209.081 125.04 193.818 110.83 189.201L110.984 188.726ZM128.675 223.445C123.972 237.918 108.428 245.838 93.9554 241.136L94.1099 240.66C108.32 245.277 123.582 237.501 128.199 223.291L128.675 223.445Z" fill="#FFFA00"/>
<path d="M109.63 255.234C106.757 251.279 101.222 250.402 97.2671 253.276L96.9732 252.871C101.151 249.836 106.999 250.762 110.035 254.94L109.63 255.234ZM97.2671 253.276C93.3122 256.149 92.4358 261.685 95.3089 265.639L94.9044 265.933C91.869 261.755 92.7949 255.907 96.9732 252.871L97.2671 253.276ZM95.3089 265.639C98.1821 269.594 103.717 270.471 107.672 267.597L107.966 268.002C103.788 271.037 97.9398 270.111 94.9044 265.933L95.3089 265.639ZM107.672 267.597C111.627 264.724 112.504 259.188 109.63 255.234L110.035 254.94C113.07 259.118 112.144 264.966 107.966 268.002L107.672 267.597ZM80.1784 276.632C71.2338 264.321 73.9626 247.09 86.2741 238.145L86.568 238.55C74.4799 247.332 71.8007 264.25 80.5829 276.338L80.1784 276.632ZM86.2741 238.145C98.5852 229.201 115.816 231.93 124.761 244.241L124.356 244.535C115.574 232.447 98.6557 229.767 86.568 238.55L86.2741 238.145ZM124.761 244.241C133.705 256.552 130.976 273.783 118.665 282.728L118.371 282.323C130.459 273.541 133.139 256.622 124.356 244.535L124.761 244.241ZM118.665 282.728C106.354 291.673 89.1229 288.943 80.1784 276.632L80.5829 276.338C89.3651 288.426 106.283 291.106 118.371 282.323L118.665 282.728Z" fill="#FFFA00"/>
<path d="M111.321 305.942C111.321 301.054 107.358 297.091 102.47 297.091V296.591C107.635 296.591 111.821 300.778 111.821 305.942H111.321ZM102.47 297.091C97.5814 297.091 93.6188 301.054 93.6188 305.942H93.1188C93.1188 300.778 97.3053 296.591 102.47 296.591V297.091ZM93.6188 305.942C93.6188 310.83 97.5814 314.793 102.47 314.793V315.293C97.3053 315.293 93.1188 311.106 93.1188 305.942H93.6188ZM102.47 314.793C107.358 314.793 111.321 310.83 111.321 305.942H111.821C111.821 311.106 107.635 315.293 102.47 315.293V314.793ZM74.9165 305.942C74.9165 290.725 87.2522 278.389 102.47 278.389V278.889C87.5284 278.889 75.4165 291.001 75.4165 305.942H74.9165ZM102.47 278.389C117.687 278.389 130.024 290.725 130.024 305.942H129.524C129.524 291.001 117.411 278.889 102.47 278.889V278.389ZM130.024 305.942C130.024 321.16 117.687 333.496 102.47 333.496V332.996C117.411 332.996 129.524 320.883 129.524 305.942H130.024ZM102.47 333.496C87.2522 333.496 74.9165 321.16 74.9165 305.942H75.4165C75.4165 320.883 87.5284 332.996 102.47 332.996V333.496Z" fill="#FFFA00"/>
<path d="M109.631 356.651C112.504 352.696 111.628 347.161 107.673 344.287L107.967 343.883C112.145 346.919 113.071 352.767 110.035 356.945L109.631 356.651ZM107.673 344.287C103.718 341.414 98.1825 342.291 95.3094 346.246L94.9049 345.952C97.9403 341.774 103.788 340.847 107.967 343.883L107.673 344.287ZM95.3094 346.246C92.4363 350.2 93.3127 355.735 97.2676 358.609L96.9737 359.013C92.7954 355.978 91.8695 350.13 94.9049 345.952L95.3094 346.246ZM97.2676 358.609C101.222 361.482 106.758 360.605 109.631 356.651L110.035 356.945C107 361.123 101.152 362.049 96.9737 359.013L97.2676 358.609ZM80.1788 335.253C89.1234 322.942 106.354 320.212 118.666 329.157L118.372 329.561C106.284 320.779 89.3656 323.459 80.5833 335.546L80.1788 335.253ZM118.666 329.157C130.977 338.101 133.706 355.333 124.761 367.644L124.357 367.35C133.139 355.262 130.459 338.344 118.372 329.561L118.666 329.157ZM124.761 367.644C115.817 379.955 98.5856 382.684 86.2745 373.739L86.5684 373.335C98.6561 382.117 115.575 379.437 124.357 367.35L124.761 367.644ZM86.2745 373.739C73.9631 364.795 71.2343 347.564 80.1788 335.253L80.5833 335.546C71.8011 347.634 74.4804 364.552 86.5684 373.335L86.2745 373.739Z" fill="#FFFA00"/>
<path d="M105.205 405.372C109.854 403.861 112.398 398.868 110.887 394.219L111.363 394.064C112.959 398.976 110.271 404.252 105.359 405.847L105.205 405.372ZM110.887 394.219C109.377 389.57 104.383 387.026 99.7344 388.536L99.5799 388.06C104.491 386.465 109.767 389.152 111.363 394.064L110.887 394.219ZM99.7344 388.536C95.0855 390.047 92.5409 395.04 94.0516 399.689L93.576 399.844C91.9801 394.932 94.6684 389.656 99.5799 388.06L99.7344 388.536ZM94.0516 399.689C95.5622 404.338 100.556 406.882 105.205 405.372L105.359 405.847C100.448 407.443 95.172 404.756 93.576 399.844L94.0516 399.689ZM93.9551 370.749C108.428 366.047 123.972 373.966 128.675 388.439L128.199 388.594C123.582 374.384 108.32 366.607 94.1096 371.225L93.9551 370.749ZM128.675 388.439C133.377 402.912 125.457 418.457 110.984 423.159L110.83 422.683C125.04 418.066 132.816 402.804 128.199 388.594L128.675 388.439ZM110.984 423.159C96.5115 427.861 80.9671 419.941 76.2646 405.468L76.7402 405.314C81.3573 419.524 96.6197 427.3 110.83 422.683L110.984 423.159ZM76.2646 405.468C71.5621 390.995 79.4825 375.451 93.9551 370.749L94.1096 371.225C79.8997 375.842 72.1229 391.104 76.7402 405.314L76.2646 405.468Z" fill="#FFFA00"/>
<path d="M95.3091 493.168C98.1822 497.123 103.718 498 107.672 495.126L107.966 495.531C103.788 498.567 97.94 497.64 94.9046 493.462L95.3091 493.168ZM107.672 495.126C111.627 492.253 112.504 486.718 109.631 482.763L110.035 482.469C113.071 486.647 112.145 492.495 107.966 495.531L107.672 495.126ZM109.631 482.763C106.757 478.809 101.222 477.931 97.2672 480.805L96.9734 480.4C101.152 477.365 107 478.291 110.035 482.469L109.631 482.763ZM97.2672 480.805C93.3124 483.678 92.436 489.214 95.3091 493.168L94.9046 493.462C91.8692 489.284 92.7951 483.436 96.9734 480.4L97.2672 480.805ZM124.761 471.77C133.706 484.081 130.977 501.312 118.665 510.257L118.371 509.852C130.46 501.07 133.139 484.152 124.357 472.064L124.761 471.77ZM118.665 510.257C106.354 519.201 89.1231 516.472 80.1786 504.161L80.5831 503.867C89.3653 515.955 106.284 518.635 118.371 509.852L118.665 510.257ZM80.1786 504.161C71.234 491.85 73.9632 474.619 86.2743 465.674L86.5682 466.079C74.4805 474.861 71.8009 491.78 80.5831 503.867L80.1786 504.161ZM86.2743 465.674C98.5857 456.73 115.817 459.459 124.761 471.77L124.357 472.064C115.574 459.976 98.6562 457.296 86.5682 466.079L86.2743 465.674Z" fill="#FFFA00"/>
<path d="M93.6189 533.472C93.6189 538.36 97.5816 542.323 102.47 542.323V542.823C97.3054 542.823 93.1189 538.636 93.1189 533.472H93.6189ZM102.47 542.323C107.359 542.323 111.321 538.36 111.321 533.472H111.821C111.821 538.636 107.635 542.823 102.47 542.823V542.323ZM111.321 533.472C111.321 528.583 107.359 524.62 102.47 524.62V524.12C107.635 524.12 111.821 528.307 111.821 533.472H111.321ZM102.47 524.62C97.5816 524.62 93.6189 528.583 93.6189 533.472H93.1189C93.1189 528.307 97.3054 524.12 102.47 524.12V524.62ZM130.023 533.471C130.023 548.689 117.688 561.025 102.47 561.025V560.525C117.412 560.525 129.523 548.413 129.523 533.471H130.023ZM102.47 561.025C87.2526 561.025 74.9164 548.689 74.9164 533.471H75.4164C75.4164 548.413 87.5287 560.525 102.47 560.525V561.025ZM74.9164 533.471C74.9164 518.254 87.2526 505.918 102.47 505.918V506.418C87.5287 506.418 75.4164 518.53 75.4164 533.471H74.9164ZM102.47 505.918C117.688 505.918 130.023 518.254 130.023 533.471H129.523C129.523 518.53 117.412 506.418 102.47 506.418V505.918Z" fill="#FFFA00"/>
<path d="M178.334 483.643L178.187 483.441L177.985 483.588L178.131 483.79L178.334 483.643ZM178.336 483.641L178.483 483.844L178.685 483.697L178.539 483.494L178.336 483.641ZM170.897 473.403L171.1 473.256L170.953 473.053L170.751 473.2L170.897 473.403ZM160.707 480.806L160.56 480.604L160.358 480.751L160.505 480.953L160.707 480.806ZM166.946 489.393L167.093 489.596L167.295 489.449L167.148 489.246L166.946 489.393ZM134.401 513.039L134.254 512.836L134.054 512.981L134.197 513.183L134.401 513.039ZM161.609 520.565C158.76 516.643 159.615 511.166 163.517 508.332L163.223 507.927C159.096 510.926 158.194 516.716 161.205 520.859L161.609 520.565ZM163.517 508.332C167.418 505.497 172.891 506.376 175.741 510.298L176.145 510.004C173.135 505.861 167.349 504.929 163.223 507.927L163.517 508.332ZM175.741 510.298C178.59 514.22 177.735 519.697 173.833 522.532L174.127 522.936C178.254 519.938 179.156 514.148 176.145 510.004L175.741 510.298ZM173.833 522.532C169.932 525.366 164.459 524.487 161.609 520.565L161.205 520.859C164.215 525.003 170 525.934 174.127 522.936L173.833 522.532ZM189.594 498.746C186.131 493.98 180.875 486.726 178.536 483.496L178.131 483.79C180.47 487.019 185.726 494.273 189.189 499.04L189.594 498.746ZM178.481 483.845L178.483 483.844L178.189 483.439L178.187 483.441L178.481 483.845ZM178.539 483.494L171.1 473.256L170.695 473.55L178.134 483.788L178.539 483.494ZM170.751 473.2L160.56 480.604L160.854 481.009L171.044 473.605L170.751 473.2ZM160.505 480.953L166.743 489.54L167.148 489.246L160.909 480.659L160.505 480.953ZM166.799 489.191L134.254 512.836L134.548 513.241L167.093 489.596L166.799 489.191ZM134.401 513.039C134.197 513.183 134.197 513.183 134.197 513.183C134.197 513.183 134.197 513.183 134.197 513.183C134.197 513.184 134.198 513.184 134.198 513.185C134.199 513.186 134.201 513.188 134.202 513.191C134.206 513.196 134.212 513.204 134.219 513.215C134.234 513.236 134.256 513.267 134.285 513.308C134.344 513.391 134.43 513.512 134.541 513.669C134.763 513.983 135.084 514.438 135.484 515.003C136.283 516.132 137.394 517.699 138.64 519.452C141.131 522.958 144.164 527.208 146.325 530.183L146.729 529.889C144.57 526.917 141.539 522.668 139.048 519.162C137.802 517.41 136.691 515.843 135.892 514.714C135.492 514.149 135.171 513.694 134.949 513.381C134.838 513.224 134.752 513.102 134.694 513.02C134.665 512.979 134.643 512.947 134.628 512.926C134.62 512.916 134.615 512.908 134.611 512.902C134.609 512.9 134.607 512.898 134.607 512.896C134.606 512.896 134.606 512.895 134.605 512.895C134.605 512.895 134.605 512.895 134.605 512.894C134.605 512.894 134.605 512.894 134.401 513.039ZM146.325 530.183C155.045 542.186 171.801 544.881 183.751 536.199L183.457 535.795C171.733 544.313 155.289 541.67 146.729 529.889L146.325 530.183ZM183.751 536.199C195.7 527.518 198.314 510.749 189.594 498.746L189.189 499.04C197.749 510.821 195.181 527.277 183.457 535.795L183.751 536.199Z" fill="#FFFA00"/>
<path d="M159.127 436.71L158.889 436.633L158.812 436.87L159.05 436.948L159.127 436.71ZM159.128 436.707L159.366 436.784L159.443 436.547L159.205 436.469L159.128 436.707ZM147.092 432.796L147.169 432.559L146.931 432.481L146.854 432.719L147.092 432.796ZM143.199 444.776L142.962 444.699L142.884 444.937L143.122 445.014L143.199 444.776ZM153.294 448.056L153.532 448.133L153.609 447.895L153.371 447.818L153.294 448.056ZM140.863 486.315L140.625 486.237L140.549 486.472L140.782 486.551L140.863 486.315ZM167.299 476.411C162.689 474.913 160.161 469.98 161.651 465.393L161.176 465.239C159.6 470.09 162.273 475.304 167.144 476.887L167.299 476.411ZM161.651 465.393C163.142 460.807 168.086 458.301 172.697 459.799L172.851 459.323C167.98 457.741 162.752 460.387 161.176 465.239L161.651 465.393ZM172.697 459.799C177.307 461.297 179.834 466.23 178.344 470.817L178.82 470.971C180.396 466.12 177.722 460.906 172.851 459.323L172.697 459.799ZM178.344 470.817C176.854 475.404 171.91 477.91 167.299 476.411L167.144 476.887C172.016 478.47 177.243 475.823 178.82 470.971L178.344 470.817ZM177.114 442.31C171.511 440.49 162.995 437.71 159.205 436.473L159.05 436.948C162.84 438.186 171.356 440.965 176.959 442.786L177.114 442.31ZM159.365 436.787L159.366 436.784L158.89 436.63L158.889 436.633L159.365 436.787ZM159.205 436.469L147.169 432.559L147.015 433.034L159.051 436.945L159.205 436.469ZM146.854 432.719L142.962 444.699L143.437 444.853L147.33 432.874L146.854 432.719ZM143.122 445.014L153.217 448.294L153.371 447.818L143.277 444.538L143.122 445.014ZM153.056 447.979L140.625 486.237L141.101 486.392L153.532 448.133L153.056 447.979ZM140.863 486.315C140.782 486.551 140.783 486.551 140.783 486.551C140.783 486.552 140.783 486.552 140.783 486.552C140.783 486.552 140.784 486.552 140.785 486.552C140.786 486.553 140.789 486.554 140.792 486.555C140.798 486.557 140.807 486.56 140.819 486.564C140.844 486.572 140.88 486.585 140.928 486.601C141.024 486.633 141.165 486.681 141.347 486.743C141.711 486.866 142.238 487.045 142.894 487.267C144.204 487.711 146.024 488.326 148.062 489.012C152.139 490.384 157.09 492.04 160.586 493.176L160.741 492.7C157.247 491.565 152.298 489.91 148.222 488.538C146.184 487.852 144.364 487.237 143.054 486.793C142.399 486.572 141.871 486.393 141.507 486.269C141.325 486.208 141.184 486.16 141.089 486.127C141.041 486.111 141.005 486.099 140.98 486.091C140.968 486.086 140.959 486.083 140.953 486.081C140.95 486.08 140.947 486.079 140.946 486.079C140.945 486.079 140.944 486.078 140.944 486.078C140.944 486.078 140.944 486.078 140.943 486.078C140.943 486.078 140.943 486.078 140.863 486.315ZM160.586 493.176C174.697 497.761 189.837 490.092 194.401 476.045L193.926 475.891C189.447 489.673 174.591 497.201 160.741 492.7L160.586 493.176ZM194.401 476.045C198.965 461.998 191.224 446.895 177.114 442.31L176.959 442.786C190.809 447.286 198.404 462.108 193.926 475.891L194.401 476.045Z" fill="#FFFA00"/>
<path d="M135.457 373.659L135.311 373.861L135.512 374.008L135.66 373.806L135.457 373.659ZM135.455 373.657L135.602 373.455L135.4 373.308L135.253 373.51L135.455 373.657ZM128.016 383.896L127.814 383.749L127.667 383.951L127.869 384.098L128.016 383.896ZM138.207 391.3L138.06 391.502L138.262 391.649L138.409 391.447L138.207 391.3ZM144.445 382.713L144.592 382.51L144.39 382.364L144.243 382.566L144.445 382.713ZM176.99 406.358L176.843 406.56L177.043 406.705L177.19 406.508L176.99 406.358ZM175.741 378.155C172.892 382.077 167.418 382.956 163.517 380.122L163.223 380.526C167.35 383.524 173.135 382.593 176.145 378.449L175.741 378.155ZM163.517 380.122C159.615 377.287 158.76 371.81 161.609 367.888L161.205 367.594C158.195 371.738 159.096 377.528 163.223 380.526L163.517 380.122ZM161.609 367.888C164.459 363.966 169.932 363.087 173.834 365.922L174.127 365.517C170.001 362.519 164.216 363.451 161.205 367.594L161.609 367.888ZM173.834 365.922C177.735 368.757 178.591 374.233 175.741 378.155L176.145 378.449C179.156 374.305 178.254 368.516 174.127 365.517L173.834 365.922ZM146.341 358.283C142.879 363.049 137.604 370.289 135.255 373.512L135.66 373.806C138.008 370.584 143.283 363.343 146.746 358.577L146.341 358.283ZM135.604 373.457L135.602 373.455L135.308 373.859L135.311 373.861L135.604 373.457ZM135.253 373.51L127.814 383.749L128.218 384.043L135.657 373.804L135.253 373.51ZM127.869 384.098L138.06 391.502L138.354 391.097L128.163 383.694L127.869 384.098ZM138.409 391.447L144.648 382.86L144.243 382.566L138.004 391.153L138.409 391.447ZM144.298 382.915L176.843 406.56L177.137 406.156L144.592 382.51L144.298 382.915ZM176.99 406.358C177.19 406.508 177.191 406.507 177.191 406.507C177.191 406.507 177.191 406.507 177.191 406.507C177.191 406.507 177.191 406.506 177.192 406.506C177.193 406.504 177.194 406.502 177.196 406.5C177.2 406.494 177.206 406.487 177.214 406.476C177.229 406.456 177.252 406.425 177.283 406.384C177.343 406.303 177.432 406.184 177.547 406.03C177.777 405.722 178.11 405.275 178.523 404.721C179.35 403.612 180.498 402.071 181.78 400.344C184.344 396.891 187.45 392.694 189.611 389.72L189.206 389.426C187.047 392.398 183.943 396.593 181.378 400.046C180.096 401.773 178.949 403.313 178.123 404.422C177.709 404.977 177.376 405.423 177.146 405.731C177.031 405.885 176.942 406.004 176.882 406.085C176.852 406.126 176.829 406.156 176.813 406.177C176.806 406.187 176.8 406.195 176.796 406.2C176.794 406.203 176.792 406.205 176.791 406.206C176.791 406.207 176.791 406.207 176.79 406.208C176.79 406.208 176.79 406.208 176.79 406.208C176.79 406.208 176.79 406.208 176.99 406.358ZM189.611 389.72C198.331 377.717 195.717 360.948 183.767 352.267L183.473 352.671C195.198 361.189 197.766 377.645 189.206 389.426L189.611 389.72ZM183.767 352.267C171.818 343.585 155.062 346.28 146.341 358.283L146.746 358.577C155.306 346.796 171.749 344.153 183.473 352.671L183.767 352.267Z" fill="#FFFA00"/>
<path d="M140.035 346.861V347.111H140.285L140.285 346.861L140.035 346.861ZM140.032 346.861V346.611H139.782V346.861H140.032ZM140.032 359.516H139.782V359.766H140.032V359.516ZM152.628 359.516V359.766H152.878V359.516H152.628ZM152.628 348.902V348.652H152.378V348.902H152.628ZM192.856 348.902V349.152H193.103L193.106 348.906L192.856 348.902ZM175.268 326.82C175.268 331.668 171.357 335.596 166.534 335.596V336.096C171.635 336.096 175.768 331.942 175.768 326.82H175.268ZM166.534 335.596C161.712 335.596 157.801 331.668 157.801 326.82H157.301C157.301 331.942 161.433 336.096 166.534 336.096V335.596ZM157.801 326.82C157.801 321.972 161.712 318.045 166.534 318.045V317.545C161.433 317.545 157.301 321.699 157.301 326.82H157.801ZM166.534 318.045C171.357 318.045 175.268 321.972 175.268 326.82H175.768C175.768 321.699 171.635 317.545 166.534 317.545V318.045ZM139.803 328.024C139.803 333.915 139.791 342.873 139.785 346.86L140.285 346.861C140.291 342.873 140.303 333.916 140.303 328.024H139.803ZM140.035 346.611H140.032V347.111H140.035V346.611ZM139.782 346.861V359.516H140.282V346.861H139.782ZM140.032 359.766H152.628V359.266H140.032V359.766ZM152.878 359.516V348.902H152.378V359.516H152.878ZM152.628 349.152H192.856V348.652H152.628V349.152ZM192.856 348.902C193.106 348.906 193.106 348.906 193.106 348.906C193.106 348.905 193.106 348.905 193.106 348.905C193.106 348.905 193.106 348.904 193.106 348.903C193.106 348.902 193.106 348.899 193.106 348.896C193.106 348.889 193.106 348.88 193.106 348.867C193.107 348.841 193.107 348.802 193.108 348.752C193.109 348.651 193.111 348.502 193.114 348.31C193.119 347.926 193.126 347.368 193.134 346.677C193.151 345.294 193.174 343.373 193.196 341.222C193.241 336.921 193.287 331.7 193.287 328.024H192.787C192.787 331.698 192.741 336.916 192.696 341.217C192.674 343.367 192.651 345.288 192.634 346.671C192.626 347.362 192.619 347.919 192.614 348.304C192.611 348.496 192.609 348.645 192.608 348.745C192.607 348.796 192.607 348.834 192.607 348.86C192.606 348.873 192.606 348.883 192.606 348.889C192.606 348.892 192.606 348.895 192.606 348.897C192.606 348.897 192.606 348.898 192.606 348.898C192.606 348.899 192.606 348.899 192.606 348.899C192.606 348.899 192.606 348.899 192.856 348.902ZM193.287 328.024C193.287 313.188 181.315 301.158 166.545 301.158V301.658C181.037 301.658 192.787 313.461 192.787 328.024H193.287ZM166.545 301.158C151.775 301.158 139.803 313.188 139.803 328.024H140.303C140.303 313.461 152.053 301.658 166.545 301.658V301.158Z" fill="#FFFA00"/>
<path d="M154.735 313.799L154.882 314.001L155.084 313.854L154.938 313.652L154.735 313.799ZM154.733 313.801L154.586 313.598L154.383 313.745L154.53 313.948L154.733 313.801ZM162.171 324.039L161.969 324.186L162.116 324.389L162.318 324.242L162.171 324.039ZM172.362 316.635L172.509 316.838L172.711 316.691L172.564 316.489L172.362 316.635ZM166.123 308.049L165.976 307.846L165.774 307.993L165.921 308.196L166.123 308.049ZM198.668 284.403L198.815 284.606L199.014 284.461L198.872 284.259L198.668 284.403ZM171.46 276.877C174.309 280.798 173.454 286.275 169.552 289.11L169.846 289.515C173.973 286.516 174.874 280.726 171.864 276.583L171.46 276.877ZM169.552 289.11C165.651 291.945 160.177 291.066 157.328 287.144L156.924 287.438C159.934 291.581 165.719 292.513 169.846 289.515L169.552 289.11ZM157.328 287.144C154.478 283.222 155.334 277.745 159.235 274.91L158.942 274.506C154.815 277.504 153.913 283.294 156.924 287.438L157.328 287.144ZM159.235 274.91C163.137 272.076 168.61 272.954 171.46 276.877L171.864 276.583C168.853 272.439 163.068 271.508 158.942 274.506L159.235 274.91ZM143.475 298.696C146.938 303.462 152.193 310.716 154.533 313.945L154.938 313.652C152.598 310.423 147.343 303.169 143.88 298.402L143.475 298.696ZM154.588 313.597L154.586 313.598L154.88 314.003L154.882 314.001L154.588 313.597ZM154.53 313.948L161.969 324.186L162.374 323.892L154.935 313.654L154.53 313.948ZM162.318 324.242L172.509 316.838L172.215 316.433L162.024 323.837L162.318 324.242ZM172.564 316.489L166.325 307.902L165.921 308.196L172.16 316.782L172.564 316.489ZM166.27 308.251L198.815 284.606L198.521 284.201L165.976 307.846L166.27 308.251ZM198.668 284.403C198.872 284.259 198.872 284.259 198.872 284.259C198.872 284.259 198.872 284.259 198.872 284.259C198.872 284.258 198.871 284.258 198.871 284.257C198.87 284.256 198.868 284.254 198.866 284.251C198.863 284.246 198.857 284.238 198.85 284.227C198.835 284.206 198.812 284.175 198.783 284.134C198.725 284.051 198.639 283.93 198.528 283.773C198.306 283.459 197.984 283.004 197.585 282.439C196.785 281.31 195.675 279.743 194.429 277.99C191.937 274.484 188.905 270.234 186.744 267.259L186.34 267.553C188.499 270.525 191.53 274.773 194.021 278.279C195.267 280.032 196.378 281.599 197.177 282.728C197.576 283.293 197.898 283.748 198.12 284.061C198.231 284.218 198.317 284.34 198.375 284.422C198.404 284.463 198.426 284.495 198.441 284.516C198.449 284.526 198.454 284.534 198.458 284.54C198.46 284.542 198.461 284.544 198.462 284.546C198.463 284.546 198.463 284.547 198.463 284.547C198.464 284.547 198.464 284.547 198.464 284.547C198.464 284.548 198.464 284.548 198.668 284.403ZM186.744 267.259C178.024 255.256 161.268 252.561 149.318 261.243L149.612 261.647C161.336 253.129 177.78 255.772 186.34 267.553L186.744 267.259ZM149.318 261.243C137.369 269.924 134.754 286.693 143.475 298.696L143.88 298.402C135.32 286.621 137.888 270.165 149.612 261.647L149.318 261.243Z" fill="#FFFA00"/>
<path d="M173.942 269.72L174.18 269.797L174.257 269.56L174.019 269.482L173.942 269.72ZM173.941 269.723L173.703 269.646L173.626 269.884L173.864 269.961L173.941 269.723ZM185.977 273.634L185.9 273.872L186.138 273.949L186.215 273.711L185.977 273.634ZM189.869 261.654L190.107 261.732L190.184 261.494L189.947 261.416L189.869 261.654ZM179.775 258.374L179.537 258.297L179.46 258.535L179.698 258.612L179.775 258.374ZM192.206 220.116L192.444 220.193L192.52 219.958L192.286 219.879L192.206 220.116ZM165.77 230.019C170.38 231.517 172.908 236.451 171.417 241.037L171.893 241.192C173.469 236.34 170.795 231.126 165.924 229.543L165.77 230.019ZM171.417 241.037C169.927 245.624 164.982 248.13 160.372 246.632L160.218 247.107C165.088 248.69 170.317 246.043 171.893 241.192L171.417 241.037ZM160.372 246.632C155.761 245.133 153.234 240.2 154.725 235.613L154.249 235.459C152.673 240.31 155.346 245.524 160.218 247.107L160.372 246.632ZM154.725 235.613C156.215 231.027 161.159 228.521 165.77 230.019L165.924 229.543C161.053 227.961 155.825 230.608 154.249 235.459L154.725 235.613ZM155.955 264.12C161.558 265.941 170.073 268.72 173.864 269.958L174.019 269.482C170.229 268.245 161.713 265.465 156.11 263.645L155.955 264.12ZM173.704 269.643L173.703 269.646L174.179 269.8L174.18 269.797L173.704 269.643ZM173.864 269.961L185.9 273.872L186.054 273.396L174.018 269.485L173.864 269.961ZM186.215 273.711L190.107 261.732L189.632 261.577L185.739 273.557L186.215 273.711ZM189.947 261.416L179.852 258.137L179.698 258.612L189.792 261.892L189.947 261.416ZM180.013 258.452L192.444 220.193L191.968 220.038L179.537 258.297L180.013 258.452ZM192.206 220.116C192.286 219.879 192.286 219.879 192.286 219.879C192.286 219.879 192.286 219.879 192.286 219.879C192.285 219.879 192.285 219.878 192.284 219.878C192.282 219.878 192.28 219.877 192.277 219.876C192.271 219.874 192.262 219.87 192.249 219.866C192.225 219.858 192.189 219.846 192.141 219.829C192.045 219.797 191.904 219.749 191.722 219.687C191.358 219.564 190.83 219.385 190.175 219.163C188.865 218.72 187.045 218.105 185.007 217.419C180.93 216.047 175.979 214.39 172.483 213.254L172.328 213.73C175.822 214.865 180.771 216.521 184.847 217.893C186.885 218.578 188.705 219.193 190.015 219.637C190.67 219.859 191.198 220.037 191.562 220.161C191.743 220.223 191.884 220.27 191.98 220.303C192.028 220.319 192.064 220.331 192.089 220.34C192.101 220.344 192.11 220.347 192.116 220.349C192.119 220.35 192.122 220.351 192.123 220.352C192.124 220.352 192.125 220.352 192.125 220.352C192.125 220.352 192.125 220.352 192.125 220.352C192.125 220.352 192.126 220.352 192.206 220.116ZM172.483 213.254C158.372 208.67 143.232 216.338 138.668 230.385L139.143 230.54C143.621 216.757 158.478 209.23 172.328 213.73L172.483 213.254ZM138.668 230.385C134.103 244.433 141.845 259.536 155.955 264.12L156.11 263.645C142.26 259.145 134.665 244.322 139.143 230.54L138.668 230.385Z" fill="#FFFA00"/>
<path d="M190.319 214.079L190.556 214.002L190.479 213.765L190.242 213.842L190.319 214.079ZM190.32 214.082L190.082 214.16L190.159 214.397L190.397 214.32L190.32 214.082ZM202.356 210.172L202.433 210.409L202.671 210.332L202.594 210.094L202.356 210.172ZM198.464 198.192L198.701 198.115L198.624 197.877L198.386 197.954L198.464 198.192ZM188.369 201.472L188.131 201.549L188.208 201.787L188.446 201.71L188.369 201.472ZM175.938 163.213L176.176 163.136L176.1 162.901L175.864 162.974L175.938 163.213ZM160.372 186.764C164.982 185.266 169.927 187.772 171.417 192.358L171.893 192.204C170.316 187.352 165.088 184.706 160.217 186.288L160.372 186.764ZM171.417 192.358C172.907 196.945 170.38 201.878 165.769 203.376L165.924 203.852C170.795 202.269 173.469 197.055 171.893 192.204L171.417 192.358ZM165.769 203.376C161.159 204.875 156.214 202.369 154.724 197.782L154.249 197.937C155.825 202.788 161.053 205.435 165.924 203.852L165.769 203.376ZM154.724 197.782C153.234 193.195 155.761 188.262 160.372 186.764L160.217 186.288C155.346 187.871 152.672 193.085 154.249 197.937L154.724 197.782ZM172.476 220.121C178.079 218.301 186.601 215.544 190.396 214.317L190.242 213.842C186.448 215.068 177.924 217.825 172.321 219.646L172.476 220.121ZM190.081 214.157L190.082 214.16L190.557 214.005L190.556 214.002L190.081 214.157ZM190.397 214.32L202.433 210.409L202.279 209.934L190.242 213.845L190.397 214.32ZM202.594 210.094L198.701 198.115L198.226 198.269L202.118 210.249L202.594 210.094ZM198.386 197.954L188.292 201.234L188.446 201.71L198.541 198.43L198.386 197.954ZM188.607 201.395L176.176 163.136L175.7 163.29L188.131 201.549L188.607 201.395ZM175.938 163.213C175.864 162.974 175.864 162.974 175.864 162.974C175.864 162.974 175.864 162.974 175.863 162.975C175.863 162.975 175.862 162.975 175.862 162.975C175.86 162.976 175.858 162.976 175.854 162.977C175.848 162.979 175.839 162.982 175.827 162.986C175.802 162.994 175.765 163.005 175.717 163.02C175.621 163.05 175.478 163.094 175.295 163.151C174.928 163.265 174.396 163.431 173.735 163.636C172.415 164.048 170.581 164.62 168.528 165.263C164.424 166.549 159.445 168.119 155.948 169.255L156.103 169.731C159.597 168.596 164.574 167.026 168.678 165.74C170.73 165.097 172.563 164.525 173.884 164.114C174.544 163.908 175.076 163.743 175.443 163.629C175.627 163.572 175.769 163.527 175.865 163.497C175.913 163.482 175.95 163.471 175.975 163.463C175.987 163.46 175.996 163.457 176.003 163.455C176.006 163.454 176.008 163.453 176.01 163.453C176.01 163.452 176.011 163.452 176.011 163.452C176.012 163.452 176.012 163.452 176.012 163.452C176.012 163.452 176.012 163.452 175.938 163.213ZM155.948 169.255C141.838 173.84 134.097 188.943 138.661 202.99L139.137 202.836C134.658 189.053 142.253 174.231 156.103 169.731L155.948 169.255ZM138.661 202.99C143.225 217.038 158.365 224.706 172.476 220.121L172.321 219.646C158.471 224.146 143.615 216.618 139.137 202.836L138.661 202.99Z" fill="#FFFA00"/>
<path d="M197.611 150.748L197.758 150.546L197.556 150.399L197.409 150.601L197.611 150.748ZM197.614 150.75L197.467 150.952L197.669 151.099L197.816 150.897L197.614 150.75ZM205.053 140.511L205.255 140.658L205.402 140.456L205.2 140.309L205.053 140.511ZM194.862 133.107L195.009 132.905L194.807 132.758L194.66 132.96L194.862 133.107ZM188.623 141.694L188.477 141.896L188.679 142.043L188.826 141.841L188.623 141.694ZM156.079 118.049L156.226 117.847L156.026 117.702L155.878 117.899L156.079 118.049ZM157.328 146.251C160.177 142.33 165.651 141.451 169.552 144.285L169.846 143.881C165.719 140.882 159.934 141.814 156.924 145.958L157.328 146.251ZM169.552 144.285C173.454 147.12 174.309 152.597 171.46 156.519L171.864 156.813C174.874 152.669 173.973 146.879 169.846 143.881L169.552 144.285ZM171.46 156.519C168.61 160.441 163.137 161.32 159.235 158.485L158.942 158.889C163.068 161.888 168.853 160.956 171.864 156.813L171.46 156.519ZM159.235 158.485C155.334 155.65 154.478 150.174 157.328 146.251L156.924 145.958C153.913 150.101 154.815 155.891 158.942 158.889L159.235 158.485ZM186.728 166.124C190.19 161.358 195.465 154.118 197.813 150.895L197.409 150.601C195.061 153.823 189.786 161.064 186.323 165.83L186.728 166.124ZM197.464 150.95L197.467 150.952L197.761 150.548L197.758 150.546L197.464 150.95ZM197.816 150.897L205.255 140.658L204.85 140.364L197.412 150.603L197.816 150.897ZM205.2 140.309L195.009 132.905L194.715 133.31L204.906 140.713L205.2 140.309ZM194.66 132.96L188.421 141.547L188.826 141.841L195.064 133.254L194.66 132.96ZM188.77 141.492L156.226 117.847L155.932 118.251L188.477 141.896L188.77 141.492ZM156.079 118.049C155.878 117.899 155.878 117.899 155.878 117.9C155.878 117.9 155.878 117.9 155.878 117.9C155.878 117.9 155.877 117.901 155.877 117.901C155.876 117.903 155.874 117.905 155.872 117.907C155.869 117.913 155.863 117.92 155.855 117.931C155.84 117.951 155.817 117.982 155.786 118.023C155.726 118.103 155.637 118.223 155.522 118.377C155.292 118.685 154.959 119.131 154.545 119.686C153.719 120.795 152.571 122.336 151.289 124.063C148.724 127.515 145.619 131.713 143.458 134.687L143.863 134.981C146.022 132.009 149.126 127.814 151.69 124.361C152.973 122.634 154.12 121.094 154.946 119.985C155.36 119.43 155.693 118.984 155.923 118.676C156.038 118.522 156.127 118.403 156.187 118.322C156.217 118.281 156.24 118.251 156.256 118.23C156.263 118.22 156.269 118.212 156.273 118.207C156.275 118.204 156.276 118.202 156.277 118.201C156.278 118.2 156.278 118.199 156.279 118.199C156.279 118.199 156.279 118.199 156.279 118.199C156.279 118.199 156.279 118.199 156.079 118.049ZM143.458 134.687C134.738 146.69 137.352 163.459 149.301 172.14L149.595 171.736C137.871 163.218 135.303 146.762 143.863 134.981L143.458 134.687ZM149.301 172.14C161.251 180.822 178.007 178.127 186.728 166.124L186.323 165.83C177.763 177.611 161.319 180.254 149.595 171.736L149.301 172.14Z" fill="#FFFA00"/>
<path d="M193.033 86.5345V86.2845H192.784L192.783 86.5342L193.033 86.5345ZM193.037 86.5345V86.7845H193.287V86.5345H193.037ZM193.037 73.8788H193.287V73.6288H193.037V73.8788ZM180.44 73.8788V73.6288H180.19V73.8788H180.44ZM180.44 84.4929V84.7429H180.69V84.4929H180.44ZM140.213 84.4929V84.2429H139.966L139.963 84.4895L140.213 84.4929ZM157.801 106.575C157.801 101.727 161.712 97.7989 166.534 97.7989V97.2989C161.434 97.2989 157.301 101.453 157.301 106.575H157.801ZM166.534 97.7989C171.357 97.7989 175.268 101.727 175.268 106.575H175.768C175.768 101.453 171.635 97.2989 166.534 97.2989V97.7989ZM175.268 106.575C175.268 111.423 171.357 115.351 166.534 115.351V115.851C171.635 115.851 175.768 111.697 175.768 106.575H175.268ZM166.534 115.351C161.712 115.351 157.801 111.423 157.801 106.575H157.301C157.301 111.697 161.434 115.851 166.534 115.851V115.351ZM193.266 105.371C193.266 99.4802 193.278 90.5226 193.283 86.5349L192.783 86.5342C192.778 90.5218 192.766 99.4798 192.766 105.371H193.266ZM193.033 86.7845H193.037V86.2845H193.033V86.7845ZM193.287 86.5345V73.8788H192.787V86.5345H193.287ZM193.037 73.6288H180.44V74.1288H193.037V73.6288ZM180.19 73.8788V84.4929H180.69V73.8788H180.19ZM180.44 84.2429L140.213 84.2429V84.7429L180.44 84.7429V84.2429ZM140.213 84.4929C139.963 84.4895 139.963 84.4896 139.963 84.4897C139.963 84.4898 139.963 84.49 139.963 84.4902C139.963 84.4906 139.963 84.4912 139.963 84.492C139.963 84.4937 139.963 84.4961 139.963 84.4994C139.963 84.5059 139.963 84.5157 139.962 84.5286C139.962 84.5544 139.962 84.5929 139.961 84.6433C139.96 84.7442 139.958 84.8932 139.955 85.0853C139.95 85.4696 139.943 86.0269 139.935 86.7185C139.918 88.1017 139.895 90.0226 139.873 92.1732C139.827 96.4741 139.782 101.695 139.782 105.371H140.282C140.282 101.698 140.327 96.4793 140.373 92.1785C140.395 90.0282 140.418 88.1076 140.435 86.7246C140.443 86.0331 140.45 85.476 140.455 85.0917C140.458 84.8996 140.459 84.7507 140.461 84.6499C140.461 84.5994 140.462 84.561 140.462 84.5352C140.462 84.5223 140.463 84.5126 140.463 84.506C140.463 84.5028 140.463 84.5003 140.463 84.4987C140.463 84.4979 140.463 84.4972 140.463 84.4968C140.463 84.4966 140.463 84.4965 140.463 84.4964C140.463 84.4963 140.463 84.4962 140.213 84.4929ZM139.782 105.371C139.782 120.208 151.754 132.237 166.524 132.237V131.737C152.032 131.737 140.282 119.934 140.282 105.371H139.782ZM166.524 132.237C181.294 132.237 193.266 120.208 193.266 105.371H192.766C192.766 119.934 181.016 131.737 166.524 131.737V132.237Z" fill="#FFFA00"/>
<path d="M47.6237 5.64763C47.2667 9.08062 44.9364 12.1563 41.4289 13.296C36.6878 14.8365 31.6018 12.26 30.0686 7.54107C28.5353 2.82217 31.1356 -2.25172 35.8766 -3.79218C39.3841 -4.93183 43.0767 -3.81355 45.3838 -1.24617C45.4692 -1.21395 45.5633 -1.20626 45.6539 -1.23569L63.3141 -6.97383C57.4739 -19.2393 43.1408 -25.4759 29.8402 -20.8411C16.4195 -16.1645 8.60774 -0.799916 12.7733 12.7186C17.2333 27.1913 32.7117 35.1448 47.131 30.4597C60.2716 26.1901 67.9459 12.91 65.4962 -0.257751L47.836 5.48039C47.7455 5.50982 47.6738 5.57091 47.6237 5.64763" stroke="#FFFA00" stroke-width="0.5"/>
<path d="M46.437 45.7094C48.1661 48.6965 48.0886 52.5546 45.9209 55.5382C42.9908 59.5712 37.3617 60.4763 33.3476 57.5598C29.3334 54.6434 28.4547 49.0101 31.3848 44.9772C33.5526 41.9935 37.1973 40.7278 40.5728 41.4488C40.6609 41.4246 40.7415 41.3755 40.7975 41.2985L51.7121 26.2758C39.7778 19.7857 24.5163 23.1649 16.4802 34.7324C8.37142 46.4044 11.0827 63.4262 22.3987 71.9144C34.5138 81.0016 51.711 78.3381 60.6226 66.0724C68.7439 54.8943 67.1468 39.6397 57.4251 30.4266L46.5105 45.4492C46.4545 45.5263 46.4324 45.6179 46.437 45.7094" stroke="#FFFA00" stroke-width="0.5"/>
<path d="M42.277 87.5083C45.4316 88.9087 47.6367 92.0754 47.6367 95.7634C47.6367 100.748 43.6147 104.789 38.6529 104.789C33.6912 104.789 29.6691 100.748 29.6691 95.7634C29.6691 92.0754 31.8738 88.9091 35.0284 87.5083C35.0855 87.437 35.1218 87.3499 35.1218 87.2547V68.6856C21.652 70.4497 11.2915 82.1541 11.5893 96.2359C11.8898 110.445 24.0884 122.622 38.2325 122.838C53.3751 123.069 65.7224 110.806 65.7224 95.6442C65.7224 81.8274 55.4638 70.4249 42.1836 68.6856V87.2547C42.1836 87.3499 42.2195 87.437 42.277 87.5083" stroke="#FFFA00" stroke-width="0.5"/>
<path d="M239.285 -11.0914C238.928 -7.65839 236.598 -4.58267 233.091 -3.44302C228.349 -1.90256 223.263 -4.47904 221.73 -9.19794C220.197 -13.9168 222.797 -18.9907 227.538 -20.5312C231.046 -21.6708 234.738 -20.5526 237.045 -17.9852C237.131 -17.953 237.225 -17.9453 237.315 -17.9747L254.976 -23.7128C249.135 -35.9783 234.802 -42.2149 221.502 -37.5802C208.081 -32.9035 200.269 -17.5389 204.435 -4.02046C208.895 10.4523 224.373 18.4058 238.793 13.7207C251.933 9.45105 259.608 -3.829 257.158 -16.9968L239.498 -11.2586C239.407 -11.2292 239.335 -11.1681 239.285 -11.0914" stroke="#FFFA00" stroke-width="0.5"/>
<path d="M238.099 28.9703C239.828 31.9575 239.75 35.8155 237.583 38.7992C234.652 42.8321 229.023 43.7372 225.009 40.8208C220.995 37.9043 220.116 32.2711 223.046 28.2381C225.214 25.2544 228.859 23.9887 232.234 24.7097C232.322 24.6855 232.403 24.6364 232.459 24.5594L243.374 9.53675C231.439 3.04658 216.178 6.42582 208.142 17.9933C200.033 29.6653 202.744 46.6871 214.06 55.1753C226.175 64.2625 243.373 61.599 252.284 49.3333C260.406 38.1552 258.808 22.9006 249.087 13.6875L238.172 28.7102C238.116 28.7872 238.094 28.8788 238.099 28.9703" stroke="#FFFA00" stroke-width="0.5"/>
<path d="M233.939 70.7693C237.093 72.1696 239.298 75.3364 239.298 79.0244C239.298 84.0094 235.276 88.0503 230.315 88.0503C225.353 88.0503 221.331 84.0094 221.331 79.0244C221.331 75.3364 223.535 72.1701 226.69 70.7693C226.747 70.698 226.783 70.6109 226.783 70.5156V51.9466C213.314 53.7107 202.953 65.4151 203.251 79.4969C203.551 93.7059 215.75 105.883 229.894 106.099C245.037 106.33 257.384 94.0665 257.384 78.9052C257.384 65.0884 247.125 53.6859 233.845 51.9466V70.5156C233.845 70.6109 233.881 70.698 233.939 70.7693" stroke="#FFFA00" stroke-width="0.5"/>
<path d="M99.7344 -3.79503C104.383 -2.28454 109.377 -4.8286 110.888 -9.47783L111.363 -9.32332C109.767 -4.41145 104.491 -1.72368 99.5799 -3.3195L99.7344 -3.79503ZM110.888 -9.47783C112.398 -14.1271 109.854 -19.1205 105.205 -20.631L105.359 -21.1065C110.271 -19.5107 112.959 -14.2352 111.363 -9.32332L110.888 -9.47783ZM105.205 -20.631C100.556 -22.1414 95.5623 -19.5974 94.0516 -14.9482L93.5761 -15.1027C95.1721 -20.0145 100.448 -22.7023 105.359 -21.1065L105.205 -20.631ZM94.0516 -14.9482C92.541 -10.2989 95.0856 -5.30552 99.7344 -3.79503L99.5799 -3.3195C94.6685 -4.91532 91.9801 -10.1908 93.5761 -15.1027L94.0516 -14.9482ZM110.984 -38.4179C125.457 -33.7155 133.377 -18.1715 128.675 -3.69849L128.199 -3.853C132.816 -18.0634 125.04 -33.3253 110.83 -37.9424L110.984 -38.4179ZM128.675 -3.69849C123.972 10.7741 108.428 18.6944 93.9551 13.9919L94.1096 13.5164C108.32 18.1335 123.582 10.3569 128.199 -3.853L128.675 -3.69849ZM93.9551 13.9919C79.4825 9.28953 71.5622 -6.25494 76.2647 -20.7275L76.7402 -20.573C72.1231 -6.36306 79.8997 8.89934 94.1096 13.5164L93.9551 13.9919ZM76.2647 -20.7275C80.9672 -35.2005 96.5116 -43.1203 110.984 -38.4179L110.83 -37.9424C96.6197 -42.5595 81.3574 -34.7833 76.7402 -20.573L76.2647 -20.7275Z" fill="#FFFA00"/>
<path d="M95.3091 38.4954C98.1822 42.45 103.718 43.327 107.672 40.4536L107.966 40.8581C103.788 43.8938 97.94 42.9672 94.9046 38.7893L95.3091 38.4954ZM107.672 40.4536C111.627 37.5802 112.504 32.0448 109.631 28.0903L110.035 27.7964C113.071 31.9743 112.145 37.8224 107.966 40.8581L107.672 40.4536ZM109.631 28.0903C106.757 24.1358 101.222 23.2587 97.2673 26.1321L96.9734 25.7276C101.152 22.6919 107 23.6185 110.035 27.7964L109.631 28.0903ZM97.2673 26.1321C93.3124 29.0055 92.436 34.5409 95.3091 38.4954L94.9046 38.7893C91.8692 34.6114 92.7951 28.7633 96.9734 25.7276L97.2673 26.1321ZM124.761 17.0973C133.706 29.4084 130.977 46.6393 118.665 55.5841L118.371 55.1796C130.46 46.3971 133.139 29.4789 124.357 17.3912L124.761 17.0973ZM118.665 55.5841C106.354 64.5286 89.1231 61.7995 80.1786 49.4884L80.5831 49.1945C89.3653 61.2822 106.284 63.9618 118.371 55.1796L118.665 55.5841ZM80.1786 49.4884C71.234 37.1773 73.9632 19.9461 86.2743 11.0016L86.5682 11.4061C74.4805 20.1883 71.8009 37.1068 80.5831 49.1945L80.1786 49.4884ZM86.2743 11.0016C98.5857 2.0568 115.817 4.78622 124.761 17.0973L124.357 17.3912C115.574 5.30351 98.6562 2.62362 86.5682 11.4061L86.2743 11.0016Z" fill="#FFFA00"/>
<path d="M93.6189 78.7987C93.6189 83.6867 97.5816 87.6498 102.47 87.6498V88.1498C97.3054 88.1498 93.1189 83.9628 93.1189 78.7987H93.6189ZM102.47 87.6498C107.359 87.6498 111.321 83.6867 111.321 78.7987H111.821C111.821 83.9628 107.635 88.1498 102.47 88.1498V87.6498ZM111.321 78.7987C111.321 73.9106 107.359 69.9475 102.47 69.9475V69.4475C107.635 69.4475 111.821 73.6345 111.821 78.7987H111.321ZM102.47 69.9475C97.5816 69.9475 93.6189 73.9106 93.6189 78.7987H93.1189C93.1189 73.6345 97.3054 69.4475 102.47 69.4475V69.9475ZM130.023 78.7987C130.023 94.016 117.688 106.352 102.47 106.352V105.852C117.412 105.852 129.523 93.7399 129.523 78.7987H130.023ZM102.47 106.352C87.2526 106.352 74.9164 94.016 74.9164 78.7987H75.4164C75.4164 93.7399 87.5287 105.852 102.47 105.852V106.352ZM74.9164 78.7987C74.9164 63.5813 87.2526 51.2452 102.47 51.2452V51.7452C87.5287 51.7452 75.4164 63.8575 75.4164 78.7987H74.9164ZM102.47 51.2452C117.688 51.2452 130.023 63.5813 130.023 78.7987H129.523C129.523 63.8575 117.412 51.7452 102.47 51.7452V51.2452Z" fill="#FFFA00"/>
<path d="M178.334 28.9704L178.187 28.7681L177.985 28.9149L178.131 29.117L178.334 28.9704ZM178.336 28.9685L178.483 29.1708L178.685 29.0238L178.539 28.8216L178.336 28.9685ZM170.897 18.7299L171.1 18.5829L170.953 18.3807L170.751 18.5276L170.897 18.7299ZM160.707 26.1337L160.56 25.9314L160.358 26.0784L160.505 26.2806L160.707 26.1337ZM166.946 34.7206L167.093 34.9229L167.295 34.7759L167.148 34.5737L166.946 34.7206ZM134.401 58.3658L134.254 58.1636L134.054 58.3086L134.197 58.51L134.401 58.3658ZM161.609 65.8926C158.76 61.9708 159.615 56.4938 163.517 53.6591L163.223 53.2546C159.096 56.2529 158.194 62.0431 161.205 66.1865L161.609 65.8926ZM163.517 53.6591C167.418 50.8245 172.891 51.7036 175.741 55.6254L176.145 55.3315C173.135 51.1881 167.349 50.2564 163.223 53.2546L163.517 53.6591ZM175.741 55.6254C178.59 59.5476 177.735 65.0242 173.833 67.8589L174.127 68.2634C178.254 65.2651 179.156 59.4753 176.145 55.3315L175.741 55.6254ZM173.833 67.8589C169.932 70.6935 164.459 69.8147 161.609 65.8926L161.205 66.1865C164.215 70.3303 170 71.2616 174.127 68.2634L173.833 67.8589ZM189.594 44.0729C186.131 39.307 180.875 32.0532 178.536 28.8237L178.131 29.117C180.47 32.3465 185.726 39.6005 189.189 44.3668L189.594 44.0729ZM178.481 29.1726L178.483 29.1708L178.189 28.7663L178.187 28.7681L178.481 29.1726ZM178.539 28.8216L171.1 18.5829L170.695 18.8768L178.134 29.1155L178.539 28.8216ZM170.751 18.5276L160.56 25.9314L160.854 26.336L171.044 18.9321L170.751 18.5276ZM160.505 26.2806L166.743 34.8676L167.148 34.5737L160.909 25.9868L160.505 26.2806ZM166.799 34.5184L134.254 58.1636L134.548 58.5681L167.093 34.9229L166.799 34.5184ZM134.401 58.3658C134.197 58.51 134.197 58.5101 134.197 58.5102C134.197 58.5103 134.197 58.5104 134.197 58.5106C134.197 58.5109 134.198 58.5114 134.198 58.5121C134.199 58.5134 134.201 58.5154 134.202 58.5181C134.206 58.5234 134.212 58.5314 134.219 58.542C134.234 58.5631 134.256 58.5944 134.285 58.6357C134.344 58.7181 134.43 58.8397 134.541 58.9966C134.763 59.3104 135.084 59.7654 135.484 60.3299C136.283 61.4589 137.394 63.0262 138.64 64.7794C141.131 68.2854 144.164 72.5356 146.325 75.5098L146.729 75.2159C144.57 72.244 141.539 67.9957 139.048 64.4897C137.802 62.7369 136.691 61.1698 135.892 60.041C135.492 59.4765 135.171 59.0217 134.949 58.7079C134.838 58.5511 134.752 58.4295 134.694 58.3471C134.665 58.3059 134.643 58.2745 134.628 58.2534C134.62 58.2429 134.615 58.2349 134.611 58.2296C134.609 58.2269 134.607 58.2249 134.607 58.2236C134.606 58.2229 134.606 58.2224 134.605 58.2221C134.605 58.2219 134.605 58.2218 134.605 58.2217C134.605 58.2216 134.605 58.2216 134.401 58.3658ZM146.325 75.5098C155.045 87.5128 171.801 90.2081 183.751 81.5265L183.457 81.122C171.733 89.64 155.289 86.9973 146.729 75.2159L146.325 75.5098ZM183.751 81.5265C195.7 72.8448 198.314 56.0759 189.594 44.0729L189.189 44.3668C197.749 56.1482 195.181 72.6039 183.457 81.122L183.751 81.5265Z" fill="#FFFA00"/>
<path d="M159.127 -17.9625L158.889 -18.0398L158.812 -17.8024L159.05 -17.7249L159.127 -17.9625ZM159.128 -17.9655L159.366 -17.8883L159.443 -18.126L159.205 -18.2033L159.128 -17.9655ZM147.092 -21.8763L147.169 -22.1141L146.931 -22.1914L146.854 -21.9536L147.092 -21.8763ZM143.199 -9.89668L142.962 -9.97393L142.884 -9.73617L143.122 -9.65891L143.199 -9.89668ZM153.294 -6.61676L153.532 -6.53951L153.609 -6.77727L153.371 -6.85453L153.294 -6.61676ZM140.863 31.642L140.625 31.5647L140.549 31.7993L140.782 31.8787L140.863 31.642ZM167.299 21.7386C162.688 20.2406 160.161 15.3069 161.651 10.7204L161.176 10.5659C159.6 15.4171 162.273 20.6315 167.144 22.2141L167.299 21.7386ZM161.651 10.7204C163.142 6.13385 168.086 3.62797 172.697 5.12596L172.851 4.65044C167.98 3.0678 162.752 5.7146 161.176 10.5659L161.651 10.7204ZM172.697 5.12596C177.307 6.62409 179.834 11.5577 178.344 16.1442L178.82 16.2987C180.396 11.4474 177.722 6.23321 172.851 4.65044L172.697 5.12596ZM178.344 16.1442C176.854 20.7307 171.91 23.2367 167.299 21.7386L167.144 22.2141C172.016 23.7969 177.243 21.15 178.82 16.2987L178.344 16.1442ZM177.114 -12.3628C171.511 -14.1832 162.995 -16.9624 159.205 -18.2002L159.05 -17.7249C162.84 -16.4871 171.356 -13.7078 176.959 -11.8873L177.114 -12.3628ZM159.365 -17.8853L159.366 -17.8883L158.89 -18.0428L158.889 -18.0398L159.365 -17.8853ZM159.205 -18.2033L147.169 -22.1141L147.015 -21.6386L159.051 -17.7278L159.205 -18.2033ZM146.854 -21.9536L142.962 -9.97393L143.437 -9.81942L147.33 -21.7991L146.854 -21.9536ZM143.122 -9.65891L153.217 -6.379L153.371 -6.85453L143.277 -10.1344L143.122 -9.65891ZM153.056 -6.69402L140.625 31.5647L141.101 31.7192L153.532 -6.53951L153.056 -6.69402ZM140.863 31.642C140.782 31.8787 140.783 31.8787 140.783 31.8787C140.783 31.8787 140.783 31.8788 140.783 31.8789C140.783 31.879 140.784 31.8792 140.785 31.8795C140.786 31.88 140.789 31.8808 140.792 31.8818C140.798 31.8839 140.807 31.8871 140.819 31.8912C140.844 31.8995 140.88 31.9119 140.928 31.9281C141.024 31.9606 141.165 32.0084 141.347 32.0702C141.711 32.1936 142.238 32.3725 142.894 32.5943C144.204 33.0378 146.024 33.6529 148.062 34.3389C152.139 35.7109 157.09 37.3672 160.586 38.5032L160.741 38.0277C157.247 36.8925 152.298 35.237 148.222 33.8651C146.184 33.1791 144.364 32.5642 143.054 32.1207C142.399 31.8989 141.871 31.7201 141.507 31.5966C141.325 31.5349 141.184 31.4871 141.089 31.4547C141.041 31.4384 141.005 31.4261 140.98 31.4178C140.968 31.4136 140.959 31.4105 140.953 31.4084C140.95 31.4073 140.947 31.4066 140.946 31.406C140.945 31.4058 140.944 31.4056 140.944 31.4054C140.944 31.4054 140.944 31.4053 140.943 31.4053C140.943 31.4053 140.943 31.4052 140.863 31.642ZM160.586 38.5032C174.697 43.088 189.837 35.4195 194.401 21.3723L193.926 21.2178C189.447 35.0003 174.591 42.5278 160.741 38.0277L160.586 38.5032ZM194.401 21.3723C198.965 7.32502 191.224 -7.77803 177.114 -12.3628L176.959 -11.8873C190.809 -7.38715 198.404 7.43523 193.926 21.2178L194.401 21.3723Z" fill="#FFFA00"/>
<path d="M142.75 -53.3335L142.512 -53.2562L142.589 -53.0188L142.827 -53.0956L142.75 -53.3335ZM142.749 -53.3365L142.986 -53.4137L142.909 -53.6515L142.671 -53.5742L142.749 -53.3365ZM130.712 -49.4257L130.635 -49.6634L130.397 -49.5862L130.475 -49.3484L130.712 -49.4257ZM134.605 -37.446L134.367 -37.3687L134.444 -37.131L134.682 -37.2082L134.605 -37.446ZM144.699 -40.7259L144.937 -40.8032L144.86 -41.0409L144.622 -40.9637L144.699 -40.7259ZM157.13 -2.46719L156.893 -2.38994L156.969 -2.15533L157.204 -2.22842L157.13 -2.46719ZM172.697 -26.0179C168.086 -24.5199 163.142 -27.0258 161.651 -31.6123L161.176 -31.4578C162.752 -26.6065 167.98 -23.9597 172.851 -25.5424L172.697 -26.0179ZM161.651 -31.6123C160.161 -36.1988 162.688 -41.1325 167.299 -42.6305L167.144 -43.1061C162.273 -41.5234 159.599 -36.3091 161.176 -31.4578L161.651 -31.6123ZM167.299 -42.6305C171.91 -44.1287 176.854 -41.6227 178.344 -37.0361L178.82 -37.1906C177.243 -42.0419 172.016 -44.6888 167.144 -43.1061L167.299 -42.6305ZM178.344 -37.0361C179.834 -32.4496 177.307 -27.516 172.697 -26.0179L172.851 -25.5424C177.722 -27.1251 180.396 -32.3394 178.82 -37.1906L178.344 -37.0361ZM160.593 -59.3754C154.99 -57.555 146.467 -54.7981 142.673 -53.5714L142.827 -53.0956C146.621 -54.3223 155.144 -57.0794 160.747 -58.8999L160.593 -59.3754ZM142.987 -53.4107L142.986 -53.4137L142.511 -53.2592L142.512 -53.2562L142.987 -53.4107ZM142.671 -53.5742L130.635 -49.6634L130.79 -49.1879L142.826 -53.0987L142.671 -53.5742ZM130.475 -49.3484L134.367 -37.3687L134.843 -37.5232L130.95 -49.5029L130.475 -49.3484ZM134.682 -37.2082L144.777 -40.4881L144.622 -40.9637L134.528 -37.6838L134.682 -37.2082ZM144.462 -40.6487L156.893 -2.38994L157.368 -2.54445L144.937 -40.8032L144.462 -40.6487ZM157.13 -2.46719C157.204 -2.22842 157.205 -2.22844 157.205 -2.22847C157.205 -2.2285 157.205 -2.22855 157.205 -2.22861C157.205 -2.22873 157.206 -2.22891 157.207 -2.22916C157.208 -2.22964 157.211 -2.23037 157.214 -2.23134C157.22 -2.23328 157.229 -2.23617 157.242 -2.24C157.266 -2.24766 157.303 -2.25905 157.351 -2.27401C157.448 -2.30394 157.59 -2.34812 157.773 -2.40515C158.141 -2.51921 158.673 -2.68469 159.333 -2.89037C160.654 -3.30171 162.488 -3.87383 164.54 -4.51693C168.644 -5.80305 173.623 -7.37339 177.12 -8.50944L176.965 -8.98497C173.472 -7.84981 168.495 -6.28015 164.39 -4.99406C162.338 -4.35106 160.505 -3.77903 159.184 -3.36775C158.524 -3.16211 157.992 -2.99666 157.625 -2.88262C157.442 -2.8256 157.299 -2.78144 157.203 -2.75153C157.155 -2.73657 157.118 -2.72518 157.094 -2.71753C157.081 -2.71371 157.072 -2.71082 157.066 -2.70888C157.063 -2.70791 157.06 -2.70718 157.059 -2.7067C157.058 -2.70646 157.057 -2.70627 157.057 -2.70615C157.057 -2.70609 157.057 -2.70605 157.056 -2.70602C157.056 -2.70598 157.056 -2.70597 157.13 -2.46719ZM177.12 -8.50944C191.23 -13.0942 198.972 -28.1973 194.407 -42.2445L193.932 -42.09C198.41 -28.3075 190.815 -13.4851 176.965 -8.98497L177.12 -8.50944ZM194.407 -42.2445C189.843 -56.2918 174.703 -63.9602 160.593 -59.3754L160.747 -58.8999C174.597 -63.4 189.454 -55.8725 193.932 -42.09L194.407 -42.2445Z" fill="#FFFA00"/>
<path d="M36.7327 587.167C40.108 586.445 43.7533 587.711 45.9211 590.695C48.8512 594.728 47.9725 600.361 43.9583 603.278C39.9442 606.194 34.3151 605.289 31.385 601.256C29.2173 598.272 29.1397 594.415 30.8685 591.427C30.8728 591.336 30.851 591.244 30.795 591.167L19.8804 576.145C10.02 585.489 8.51781 601.048 17.0358 612.265C25.6308 623.584 42.6574 626.266 54.2269 618.126C66.6131 609.412 69.3943 592.234 60.4827 579.968C52.3613 568.79 37.3598 565.595 25.5935 571.994L36.5081 587.016C36.564 587.094 36.6443 587.143 36.7327 587.167" stroke="#FFFA00" stroke-width="0.5"/>
<path d="M31.9219 635.484C34.2286 632.916 37.9217 631.797 41.4292 632.937C46.1702 634.478 48.7705 639.551 47.2372 644.27C45.704 648.989 40.618 651.566 35.8769 650.025C32.3694 648.886 30.0394 645.811 29.682 642.377C29.6318 642.301 29.5602 642.24 29.4696 642.21L11.8094 636.472C9.3248 649.828 17.2547 663.298 30.7393 667.366C44.3458 671.471 59.6967 663.633 64.2726 650.248C69.1713 635.917 61.3239 620.385 46.9047 615.7C33.7641 611.43 19.7496 617.663 13.9916 629.756L31.6518 635.494C31.7424 635.523 31.8363 635.516 31.9219 635.484" stroke="#FFFA00" stroke-width="0.5"/>
<path d="M29.6815 686.091C30.0385 682.658 32.3688 679.583 35.8763 678.443C40.6173 676.903 45.7033 679.479 47.2366 684.198C48.7699 688.917 46.1696 693.991 41.4286 695.531C37.9211 696.671 34.2285 695.553 31.9214 692.985C31.836 692.953 31.7419 692.945 31.6513 692.975L13.9911 698.713C19.8313 710.978 34.1644 717.215 47.4649 712.58C60.8857 707.904 68.6974 692.539 64.5318 679.02C60.0718 664.548 44.5934 656.594 30.1742 661.279C17.0336 665.549 9.35927 678.829 11.8089 691.997L29.4691 686.259C29.5597 686.229 29.6314 686.168 29.6815 686.091" stroke="#FFFA00" stroke-width="0.5"/>
<path d="M30.8686 737.041C29.1396 734.054 29.217 730.196 31.3848 727.212C34.3149 723.179 39.944 722.274 43.9581 725.191C47.9722 728.107 48.851 733.741 45.9208 737.774C43.7531 740.757 40.1084 742.023 36.7329 741.302C36.6448 741.326 36.5642 741.375 36.5082 741.452L25.5936 756.475C37.5278 762.965 52.7894 759.586 60.8255 748.018C68.9342 736.346 66.223 719.325 54.907 710.836C42.7919 701.749 25.5947 704.413 16.6831 716.678C8.56173 727.856 10.1589 743.111 19.8806 752.324L30.7952 737.301C30.8511 737.224 30.8732 737.133 30.8686 737.041" stroke="#FFFA00" stroke-width="0.5"/>
<path d="M35.0287 786.254C31.874 784.854 29.669 781.687 29.669 777.999C29.669 773.014 33.691 768.973 38.6527 768.973C43.6145 768.973 47.6365 773.014 47.6365 777.999C47.6365 781.687 45.4319 784.853 42.2772 786.254C42.2202 786.325 42.1838 786.413 42.1838 786.508V805.077C55.6537 803.313 66.0142 791.608 65.7164 777.526C65.4159 763.317 53.2173 751.14 39.0732 750.924C23.9306 750.694 11.5832 762.957 11.5832 778.118C11.5832 791.935 21.8418 803.337 35.1221 805.077V786.508C35.1221 786.413 35.0862 786.325 35.0287 786.254" stroke="#FFFA00" stroke-width="0.5"/>
<path d="M228.394 570.428C231.77 569.706 235.415 570.972 237.583 573.956C240.513 577.989 239.634 583.622 235.62 586.539C231.606 589.455 225.977 588.55 223.047 584.517C220.879 581.533 220.801 577.676 222.53 574.688C222.534 574.597 222.513 574.505 222.457 574.428L211.542 559.406C201.682 568.75 200.179 584.309 208.697 595.526C217.292 606.845 234.319 609.527 245.889 601.387C258.275 592.673 261.056 575.495 252.144 563.229C244.023 552.051 229.021 548.856 217.255 555.255L228.17 570.277C228.226 570.355 228.306 570.404 228.394 570.428" stroke="#FFFA00" stroke-width="0.5"/>
<path d="M223.583 618.745C225.89 616.177 229.583 615.058 233.09 616.198C237.831 617.739 240.432 622.812 238.898 627.531C237.365 632.25 232.279 634.827 227.538 633.286C224.031 632.147 221.701 629.071 221.343 625.638C221.293 625.562 221.221 625.501 221.131 625.471L203.471 619.733C200.986 633.089 208.916 646.559 222.4 650.627C236.007 654.732 251.358 646.894 255.934 633.509C260.832 619.178 252.985 603.646 238.566 598.961C225.425 594.691 211.411 600.924 205.653 613.017L223.313 618.755C223.404 618.784 223.497 618.777 223.583 618.745" stroke="#FFFA00" stroke-width="0.5"/>
<path d="M221.343 669.352C221.7 665.919 224.03 662.844 227.538 661.704C232.279 660.164 237.365 662.74 238.898 667.459C240.431 672.178 237.831 677.252 233.09 678.792C229.583 679.932 225.89 678.814 223.583 676.246C223.498 676.214 223.403 676.206 223.313 676.236L205.653 681.974C211.493 694.239 225.826 700.476 239.127 695.841C252.547 691.165 260.359 675.8 256.193 662.281C251.733 647.809 236.255 639.855 221.836 644.54C208.695 648.81 201.021 662.09 203.471 675.258L221.131 669.52C221.221 669.49 221.293 669.429 221.343 669.352" stroke="#FFFA00" stroke-width="0.5"/>
<path d="M222.53 720.302C220.801 717.315 220.879 713.457 223.046 710.473C225.977 706.44 231.606 705.535 235.62 708.452C239.634 711.368 240.513 717.002 237.582 721.035C235.415 724.018 231.77 725.284 228.394 724.563C228.306 724.587 228.226 724.636 228.17 724.713L217.255 739.736C229.189 746.226 244.451 742.847 252.487 731.279C260.596 719.607 257.885 702.585 246.569 694.097C234.454 685.01 217.256 687.674 208.345 699.939C200.223 711.117 201.821 726.372 211.542 735.585L222.457 720.562C222.513 720.485 222.535 720.394 222.53 720.302" stroke="#FFFA00" stroke-width="0.5"/>
<path d="M226.69 769.515C223.535 768.115 221.33 764.948 221.33 761.26C221.33 756.275 225.352 752.234 230.314 752.234C235.276 752.234 239.298 756.275 239.298 761.26C239.298 764.948 237.093 768.114 233.938 769.515C233.881 769.586 233.845 769.673 233.845 769.769V788.338C247.315 786.574 257.675 774.869 257.378 760.787C257.077 746.578 244.878 734.401 230.734 734.185C215.592 733.955 203.244 746.218 203.244 761.379C203.244 775.196 213.503 786.598 226.783 788.338V769.769C226.783 769.673 226.747 769.586 226.69 769.515" stroke="#FFFA00" stroke-width="0.5"/>
<path d="M232.235 815.575C228.859 816.296 225.214 815.03 223.046 812.046C220.116 808.013 220.995 802.38 225.009 799.464C229.023 796.547 234.652 797.452 237.582 801.485C239.75 804.469 239.828 808.326 238.099 811.314C238.095 811.405 238.116 811.497 238.172 811.574L249.087 826.597C258.947 817.252 260.449 801.693 251.931 790.476C243.336 779.157 226.31 776.476 214.74 784.615C202.354 793.329 199.573 810.508 208.485 822.773C216.606 833.951 231.608 837.146 243.374 830.748L232.459 815.725C232.403 815.648 232.323 815.599 232.235 815.575" stroke="#FFFA00" stroke-width="0.5"/>
<path d="M95.309 573.808C92.4359 577.763 93.3123 583.298 97.2672 586.172L96.9733 586.576C92.795 583.54 91.8691 577.692 94.9045 573.514L95.309 573.808ZM97.2672 586.172C101.222 589.045 106.757 588.168 109.631 584.213L110.035 584.507C107 588.685 101.152 589.612 96.9733 586.576L97.2672 586.172ZM109.631 584.213C112.504 580.259 111.627 574.723 107.672 571.85L107.966 571.446C112.145 574.481 113.07 580.329 110.035 584.507L109.631 584.213ZM107.672 571.85C103.718 568.977 98.1822 569.854 95.309 573.808L94.9045 573.514C97.94 569.336 103.788 568.41 107.966 571.446L107.672 571.85ZM124.761 595.206C115.817 607.518 98.5858 610.247 86.2743 601.302L86.5682 600.898C98.6563 609.68 115.574 607 124.357 594.913L124.761 595.206ZM86.2743 601.302C73.9632 592.358 71.2341 575.126 80.1786 562.815L80.5831 563.109C71.8009 575.197 74.4805 592.115 86.5682 600.898L86.2743 601.302ZM80.1786 562.815C89.1231 550.504 106.354 547.775 118.665 556.72L118.372 557.124C106.284 548.342 89.3653 551.022 80.5831 563.109L80.1786 562.815ZM118.665 556.72C130.977 565.664 133.706 582.895 124.761 595.206L124.357 594.913C133.139 582.825 130.46 565.907 118.372 557.124L118.665 556.72Z" fill="#FFFA00"/>
<path d="M99.7348 616.099C95.086 617.609 92.5414 622.603 94.052 627.252L93.5765 627.406C91.9805 622.495 94.6689 617.219 99.5803 615.623L99.7348 616.099ZM94.052 627.252C95.5626 631.901 100.556 634.445 105.205 632.935L105.36 633.41C100.448 635.006 95.1725 632.318 93.5765 627.406L94.052 627.252ZM105.205 632.935C109.854 631.424 112.399 626.431 110.888 621.782L111.363 621.627C112.959 626.539 110.271 631.814 105.36 633.41L105.205 632.935ZM110.888 621.782C109.377 617.132 104.384 614.588 99.7348 616.099L99.5803 615.623C104.492 614.028 109.768 616.715 111.363 621.627L110.888 621.782ZM110.984 650.722C96.5118 655.424 80.9675 647.504 76.2649 633.031L76.7405 632.877C81.3577 647.087 96.6199 654.863 110.83 650.246L110.984 650.722ZM76.2649 633.031C71.5625 618.559 79.4828 603.014 93.9554 598.312L94.1099 598.787C79.9 603.404 72.1234 618.667 76.7405 632.877L76.2649 633.031ZM93.9554 598.312C108.428 593.609 123.972 601.53 128.675 616.002L128.199 616.157C123.582 601.947 108.32 594.17 94.1099 598.787L93.9554 598.312ZM128.675 616.002C133.377 630.475 125.457 646.019 110.984 650.722L110.83 650.246C125.04 645.629 132.817 630.367 128.199 616.157L128.675 616.002Z" fill="#FFFA00"/>
<path d="M105.205 661.605C100.556 660.094 95.5626 662.638 94.052 667.287L93.5764 667.133C95.1724 662.221 100.448 659.533 105.36 661.129L105.205 661.605ZM94.052 667.287C92.5413 671.937 95.0859 676.93 99.7348 678.441L99.5802 678.916C94.6688 677.32 91.9805 672.045 93.5764 667.133L94.052 667.287ZM99.7348 678.441C104.384 679.951 109.377 677.407 110.888 672.758L111.363 672.912C109.767 677.824 104.492 680.512 99.5802 678.916L99.7348 678.441ZM110.888 672.758C112.399 668.108 109.854 663.115 105.205 661.605L105.36 661.129C110.271 662.725 112.959 668 111.363 672.912L110.888 672.758ZM93.9554 696.227C79.4828 691.525 71.5624 675.981 76.2649 661.508L76.7404 661.663C72.1232 675.873 79.8999 691.135 94.1099 695.752L93.9554 696.227ZM76.2649 661.508C80.9673 647.035 96.5118 639.115 110.984 643.818L110.83 644.293C96.6199 639.676 81.3575 647.453 76.7404 661.663L76.2649 661.508ZM110.984 643.818C125.457 648.52 133.377 664.064 128.675 678.537L128.199 678.383C132.816 664.173 125.04 648.91 110.83 644.293L110.984 643.818ZM128.675 678.537C123.972 693.01 108.428 700.93 93.9554 696.227L94.1099 695.752C108.32 700.369 123.582 692.593 128.199 678.383L128.675 678.537Z" fill="#FFFA00"/>
<path d="M109.63 710.326C106.757 706.371 101.222 705.494 97.2671 708.368L96.9732 707.963C101.151 704.927 106.999 705.854 110.035 710.032L109.63 710.326ZM97.2671 708.368C93.3122 711.241 92.4358 716.776 95.3089 720.731L94.9044 721.025C91.869 716.847 92.7949 710.999 96.9732 707.963L97.2671 708.368ZM95.3089 720.731C98.1821 724.685 103.717 725.563 107.672 722.689L107.966 723.094C103.788 726.129 97.9399 725.203 94.9044 721.025L95.3089 720.731ZM107.672 722.689C111.627 719.816 112.504 714.28 109.63 710.326L110.035 710.032C113.07 714.21 112.144 720.058 107.966 723.094L107.672 722.689ZM80.1784 731.724C71.2338 719.413 73.9626 702.182 86.2741 693.237L86.568 693.642C74.4799 702.424 71.8007 719.342 80.5829 731.43L80.1784 731.724ZM86.2741 693.237C98.5852 684.293 115.816 687.022 124.761 699.333L124.356 699.627C115.574 687.539 98.6557 684.859 86.568 693.642L86.2741 693.237ZM124.761 699.333C133.705 711.644 130.976 728.875 118.665 737.82L118.371 737.415C130.459 728.633 133.139 711.714 124.356 699.627L124.761 699.333ZM118.665 737.82C106.354 746.764 89.1229 744.035 80.1784 731.724L80.5829 731.43C89.3651 743.518 106.283 746.198 118.371 737.415L118.665 737.82Z" fill="#FFFA00"/>
<path d="M111.321 761.034C111.321 756.146 107.358 752.183 102.47 752.183V751.683C107.635 751.683 111.821 755.87 111.821 761.034H111.321ZM102.47 752.183C97.5814 752.183 93.6188 756.146 93.6188 761.034H93.1188C93.1188 755.87 97.3053 751.683 102.47 751.683V752.183ZM93.6188 761.034C93.6188 765.922 97.5814 769.885 102.47 769.885V770.385C97.3053 770.385 93.1188 766.198 93.1188 761.034H93.6188ZM102.47 769.885C107.358 769.885 111.321 765.922 111.321 761.034H111.821C111.821 766.198 107.635 770.385 102.47 770.385V769.885ZM74.9165 761.034C74.9165 745.817 87.2522 733.481 102.47 733.481V733.981C87.5284 733.981 75.4165 746.093 75.4165 761.034H74.9165ZM102.47 733.481C117.687 733.481 130.024 745.817 130.024 761.034H129.524C129.524 746.093 117.411 733.981 102.47 733.981V733.481ZM130.024 761.034C130.024 776.252 117.687 788.588 102.47 788.588V788.088C117.411 788.088 129.524 775.975 129.524 761.034H130.024ZM102.47 788.588C87.2522 788.588 74.9165 776.252 74.9165 761.034H75.4165C75.4165 775.975 87.5284 788.088 102.47 788.088V788.588Z" fill="#FFFA00"/>
<path d="M109.631 811.743C112.504 807.788 111.628 802.253 107.673 799.379L107.967 798.975C112.145 802.01 113.071 807.859 110.035 812.036L109.631 811.743ZM107.673 799.379C103.718 796.506 98.1825 797.383 95.3094 801.337L94.9049 801.044C97.9403 796.866 103.788 795.939 107.967 798.975L107.673 799.379ZM95.3094 801.337C92.4363 805.292 93.3127 810.827 97.2676 813.701L96.9737 814.105C92.7954 811.07 91.8695 805.221 94.9049 801.044L95.3094 801.337ZM97.2676 813.701C101.222 816.574 106.758 815.697 109.631 811.743L110.035 812.036C107 816.214 101.152 817.141 96.9737 814.105L97.2676 813.701ZM80.1788 790.345C89.1234 778.033 106.354 775.304 118.666 784.249L118.372 784.653C106.284 775.871 89.3656 778.551 80.5833 790.638L80.1788 790.345ZM118.666 784.249C130.977 793.193 133.706 810.424 124.761 822.736L124.357 822.442C133.139 810.354 130.459 793.436 118.372 784.653L118.666 784.249ZM124.761 822.736C115.817 835.047 98.5856 837.776 86.2745 828.831L86.5684 828.427C98.6561 837.209 115.575 834.529 124.357 822.442L124.761 822.736ZM86.2745 828.831C73.9631 819.887 71.2343 802.656 80.1788 790.345L80.5833 790.638C71.8011 802.726 74.4804 819.644 86.5684 828.427L86.2745 828.831Z" fill="#FFFA00"/>
<path d="M140.035 801.953V802.203H140.285L140.285 801.953L140.035 801.953ZM140.032 801.953V801.703H139.782V801.953H140.032ZM140.032 814.608H139.782V814.858H140.032V814.608ZM152.628 814.608V814.858H152.878V814.608H152.628ZM152.628 803.994V803.744H152.378V803.994H152.628ZM192.856 803.994V804.244H193.103L193.106 803.998L192.856 803.994ZM175.268 781.913C175.268 786.76 171.357 790.688 166.534 790.688V791.188C171.635 791.188 175.768 787.034 175.768 781.913H175.268ZM166.534 790.688C161.712 790.688 157.801 786.76 157.801 781.913H157.301C157.301 787.034 161.433 791.188 166.534 791.188V790.688ZM157.801 781.913C157.801 777.064 161.712 773.137 166.534 773.137V772.637C161.433 772.637 157.301 776.791 157.301 781.913H157.801ZM166.534 773.137C171.357 773.137 175.268 777.064 175.268 781.913H175.768C175.768 776.791 171.635 772.637 166.534 772.637V773.137ZM139.803 783.116C139.803 789.007 139.791 797.965 139.785 801.952L140.285 801.953C140.291 797.965 140.303 789.008 140.303 783.116H139.803ZM140.035 801.703H140.032V802.203H140.035V801.703ZM139.782 801.953V814.608H140.282V801.953H139.782ZM140.032 814.858H152.628V814.358H140.032V814.858ZM152.878 814.608V803.994H152.378V814.608H152.878ZM152.628 804.244H192.856V803.744H152.628V804.244ZM192.856 803.994C193.106 803.998 193.106 803.998 193.106 803.998C193.106 803.997 193.106 803.997 193.106 803.997C193.106 803.997 193.106 803.996 193.106 803.995C193.106 803.994 193.106 803.991 193.106 803.988C193.106 803.981 193.106 803.972 193.106 803.959C193.107 803.933 193.107 803.894 193.108 803.844C193.109 803.743 193.111 803.594 193.114 803.402C193.119 803.018 193.126 802.46 193.134 801.769C193.151 800.386 193.174 798.465 193.196 796.314C193.241 792.013 193.287 786.792 193.287 783.116H192.787C192.787 786.79 192.741 792.008 192.696 796.309C192.674 798.459 192.651 800.38 192.634 801.763C192.626 802.454 192.619 803.011 192.614 803.396C192.611 803.588 192.609 803.737 192.608 803.837C192.607 803.888 192.607 803.926 192.607 803.952C192.606 803.965 192.606 803.975 192.606 803.981C192.606 803.985 192.606 803.987 192.606 803.989C192.606 803.989 192.606 803.99 192.606 803.99C192.606 803.991 192.606 803.991 192.606 803.991C192.606 803.991 192.606 803.991 192.856 803.994ZM193.287 783.116C193.287 768.28 181.315 756.25 166.545 756.25V756.75C181.037 756.75 192.787 768.553 192.787 783.116H193.287ZM166.545 756.25C151.775 756.25 139.803 768.28 139.803 783.116H140.303C140.303 768.553 152.053 756.75 166.545 756.75V756.25Z" fill="#FFFA00"/>
<path d="M154.735 768.891L154.882 769.093L155.084 768.946L154.938 768.744L154.735 768.891ZM154.733 768.893L154.586 768.69L154.383 768.837L154.53 769.04L154.733 768.893ZM162.171 779.131L161.969 779.278L162.116 779.481L162.318 779.334L162.171 779.131ZM172.362 771.727L172.509 771.93L172.711 771.783L172.564 771.581L172.362 771.727ZM166.123 763.141L165.976 762.938L165.774 763.085L165.921 763.287L166.123 763.141ZM198.668 739.495L198.815 739.698L199.014 739.553L198.872 739.351L198.668 739.495ZM171.46 731.969C174.309 735.89 173.454 741.367 169.552 744.202L169.846 744.607C173.973 741.608 174.874 735.818 171.864 731.675L171.46 731.969ZM169.552 744.202C165.651 747.037 160.177 746.158 157.328 742.236L156.924 742.53C159.934 746.673 165.719 747.605 169.846 744.607L169.552 744.202ZM157.328 742.236C154.478 738.314 155.334 732.837 159.235 730.002L158.942 729.598C154.815 732.596 153.913 738.386 156.924 742.53L157.328 742.236ZM159.235 730.002C163.137 727.168 168.61 728.046 171.46 731.969L171.864 731.675C168.853 727.531 163.068 726.6 158.942 729.598L159.235 730.002ZM143.475 753.788C146.938 758.554 152.193 765.808 154.533 769.037L154.938 768.744C152.598 765.515 147.343 758.261 143.88 753.494L143.475 753.788ZM154.588 768.689L154.586 768.69L154.88 769.095L154.882 769.093L154.588 768.689ZM154.53 769.04L161.969 779.278L162.374 778.984L154.935 768.746L154.53 769.04ZM162.318 779.334L172.509 771.93L172.215 771.525L162.024 778.929L162.318 779.334ZM172.564 771.581L166.325 762.994L165.921 763.287L172.16 771.874L172.564 771.581ZM166.27 763.343L198.815 739.698L198.521 739.293L165.976 762.938L166.27 763.343ZM198.668 739.495C198.872 739.351 198.872 739.351 198.872 739.351C198.872 739.351 198.872 739.351 198.872 739.351C198.872 739.35 198.871 739.35 198.871 739.349C198.87 739.348 198.868 739.346 198.866 739.343C198.863 739.338 198.857 739.33 198.85 739.319C198.835 739.298 198.812 739.267 198.783 739.226C198.725 739.143 198.639 739.021 198.528 738.865C198.306 738.551 197.984 738.096 197.585 737.531C196.785 736.402 195.675 734.835 194.429 733.082C191.937 729.576 188.905 725.326 186.744 722.351L186.34 722.645C188.499 725.617 191.53 729.865 194.021 733.371C195.267 735.124 196.378 736.691 197.177 737.82C197.576 738.385 197.898 738.839 198.12 739.153C198.231 739.31 198.317 739.432 198.375 739.514C198.404 739.555 198.426 739.587 198.441 739.608C198.449 739.618 198.454 739.626 198.458 739.632C198.46 739.634 198.461 739.636 198.462 739.638C198.463 739.638 198.463 739.639 198.463 739.639C198.464 739.639 198.464 739.639 198.464 739.639C198.464 739.64 198.464 739.64 198.668 739.495ZM186.744 722.351C178.024 710.348 161.268 707.653 149.318 716.335L149.612 716.739C161.336 708.221 177.78 710.864 186.34 722.645L186.744 722.351ZM149.318 716.335C137.369 725.016 134.754 741.785 143.475 753.788L143.88 753.494C135.32 741.713 137.888 725.257 149.612 716.739L149.318 716.335Z" fill="#FFFA00"/>
<path d="M173.942 724.812L174.18 724.889L174.257 724.652L174.019 724.574L173.942 724.812ZM173.941 724.815L173.703 724.738L173.626 724.976L173.864 725.053L173.941 724.815ZM185.977 728.726L185.9 728.964L186.138 729.041L186.215 728.803L185.977 728.726ZM189.869 716.746L190.107 716.823L190.184 716.586L189.947 716.508L189.869 716.746ZM179.775 713.466L179.537 713.389L179.46 713.627L179.698 713.704L179.775 713.466ZM192.206 675.208L192.444 675.285L192.52 675.05L192.286 674.971L192.206 675.208ZM165.77 685.111C170.38 686.609 172.908 691.543 171.417 696.129L171.893 696.284C173.469 691.432 170.795 686.218 165.924 684.635L165.77 685.111ZM171.417 696.129C169.927 700.716 164.982 703.222 160.372 701.724L160.218 702.199C165.088 703.782 170.317 701.135 171.893 696.284L171.417 696.129ZM160.372 701.724C155.761 700.225 153.234 695.292 154.725 690.705L154.249 690.551C152.673 695.402 155.346 700.616 160.218 702.199L160.372 701.724ZM154.725 690.705C156.215 686.119 161.159 683.613 165.77 685.111L165.924 684.635C161.053 683.053 155.825 685.7 154.249 690.551L154.725 690.705ZM155.955 719.212C161.558 721.033 170.073 723.812 173.864 725.05L174.019 724.574C170.229 723.337 161.713 720.557 156.11 718.737L155.955 719.212ZM173.704 724.735L173.703 724.738L174.179 724.892L174.18 724.889L173.704 724.735ZM173.864 725.053L185.9 728.964L186.054 728.488L174.018 724.577L173.864 725.053ZM186.215 728.803L190.107 716.823L189.632 716.669L185.739 728.649L186.215 728.803ZM189.947 716.508L179.852 713.229L179.698 713.704L189.792 716.984L189.947 716.508ZM180.013 713.544L192.444 675.285L191.968 675.13L179.537 713.389L180.013 713.544ZM192.206 675.208C192.286 674.971 192.286 674.971 192.286 674.971C192.286 674.971 192.286 674.971 192.286 674.971C192.285 674.971 192.285 674.97 192.284 674.97C192.282 674.97 192.28 674.969 192.277 674.968C192.271 674.966 192.262 674.962 192.249 674.958C192.225 674.95 192.189 674.938 192.141 674.921C192.045 674.889 191.904 674.841 191.722 674.779C191.358 674.656 190.83 674.477 190.175 674.255C188.865 673.812 187.045 673.197 185.007 672.511C180.93 671.139 175.979 669.482 172.483 668.346L172.328 668.822C175.822 669.957 180.771 671.612 184.847 672.984C186.885 673.67 188.705 674.285 190.015 674.729C190.67 674.951 191.198 675.129 191.562 675.253C191.743 675.315 191.884 675.362 191.98 675.395C192.028 675.411 192.064 675.423 192.089 675.432C192.101 675.436 192.11 675.439 192.116 675.441C192.119 675.442 192.122 675.443 192.123 675.443C192.124 675.444 192.125 675.444 192.125 675.444C192.125 675.444 192.125 675.444 192.125 675.444C192.125 675.444 192.126 675.444 192.206 675.208ZM172.483 668.346C158.372 663.762 143.232 671.43 138.668 685.477L139.143 685.632C143.621 671.849 158.478 664.322 172.328 668.822L172.483 668.346ZM138.668 685.477C134.103 699.524 141.845 714.628 155.955 719.212L156.11 718.737C142.26 714.237 134.665 699.414 139.143 685.632L138.668 685.477Z" fill="#FFFA00"/>
<path d="M190.319 669.171L190.556 669.094L190.479 668.857L190.242 668.933L190.319 669.171ZM190.32 669.174L190.082 669.252L190.159 669.489L190.397 669.412L190.32 669.174ZM202.356 665.264L202.433 665.501L202.671 665.424L202.594 665.186L202.356 665.264ZM198.464 653.284L198.701 653.207L198.624 652.969L198.386 653.046L198.464 653.284ZM188.369 656.564L188.131 656.641L188.208 656.879L188.446 656.802L188.369 656.564ZM175.938 618.305L176.176 618.228L176.1 617.993L175.864 618.066L175.938 618.305ZM160.372 641.856C164.982 640.358 169.927 642.864 171.417 647.45L171.893 647.296C170.316 642.444 165.088 639.798 160.217 641.38L160.372 641.856ZM171.417 647.45C172.907 652.037 170.38 656.97 165.769 658.468L165.924 658.944C170.795 657.361 173.469 652.147 171.893 647.296L171.417 647.45ZM165.769 658.468C161.159 659.967 156.214 657.461 154.724 652.874L154.249 653.029C155.825 657.88 161.053 660.527 165.924 658.944L165.769 658.468ZM154.724 652.874C153.234 648.287 155.761 643.354 160.372 641.856L160.217 641.38C155.346 642.963 152.672 648.177 154.249 653.029L154.724 652.874ZM172.476 675.213C178.079 673.393 186.601 670.636 190.396 669.409L190.242 668.933C186.448 670.16 177.924 672.917 172.321 674.738L172.476 675.213ZM190.081 669.249L190.082 669.252L190.557 669.097L190.556 669.094L190.081 669.249ZM190.397 669.412L202.433 665.501L202.279 665.026L190.242 668.937L190.397 669.412ZM202.594 665.186L198.701 653.207L198.226 653.361L202.118 665.341L202.594 665.186ZM198.386 653.046L188.292 656.326L188.446 656.802L198.541 653.522L198.386 653.046ZM188.607 656.487L176.176 618.228L175.7 618.382L188.131 656.641L188.607 656.487ZM175.938 618.305C175.864 618.066 175.864 618.066 175.864 618.066C175.864 618.066 175.864 618.066 175.863 618.066C175.863 618.067 175.862 618.067 175.862 618.067C175.86 618.068 175.858 618.068 175.854 618.069C175.848 618.071 175.839 618.074 175.827 618.078C175.802 618.086 175.765 618.097 175.717 618.112C175.621 618.142 175.478 618.186 175.295 618.243C174.928 618.357 174.396 618.523 173.735 618.728C172.415 619.14 170.581 619.712 168.528 620.355C164.424 621.641 159.445 623.211 155.948 624.347L156.103 624.823C159.597 623.688 164.574 622.118 168.678 620.832C170.73 620.189 172.563 619.617 173.884 619.206C174.544 619 175.076 618.835 175.443 618.72C175.627 618.663 175.769 618.619 175.865 618.589C175.913 618.574 175.95 618.563 175.975 618.555C175.987 618.552 175.996 618.549 176.003 618.547C176.006 618.546 176.008 618.545 176.01 618.545C176.01 618.544 176.011 618.544 176.011 618.544C176.012 618.544 176.012 618.544 176.012 618.544C176.012 618.544 176.012 618.544 175.938 618.305ZM155.948 624.347C141.838 628.932 134.097 644.035 138.661 658.082L139.137 657.928C134.658 644.145 142.253 629.323 156.103 624.823L155.948 624.347ZM138.661 658.082C143.225 672.13 158.365 679.798 172.476 675.213L172.321 674.738C158.471 679.238 143.615 671.71 139.137 657.928L138.661 658.082Z" fill="#FFFA00"/>
<path d="M197.611 605.84L197.758 605.638L197.556 605.491L197.409 605.693L197.611 605.84ZM197.614 605.842L197.467 606.044L197.669 606.191L197.816 605.989L197.614 605.842ZM205.053 595.603L205.255 595.75L205.402 595.548L205.2 595.401L205.053 595.603ZM194.862 588.199L195.009 587.997L194.807 587.85L194.66 588.052L194.862 588.199ZM188.623 596.786L188.477 596.988L188.679 597.135L188.826 596.933L188.623 596.786ZM156.079 573.141L156.226 572.939L156.026 572.794L155.878 572.991L156.079 573.141ZM157.328 601.343C160.177 597.422 165.651 596.543 169.552 599.377L169.846 598.973C165.719 595.974 159.934 596.906 156.924 601.05L157.328 601.343ZM169.552 599.377C173.454 602.212 174.309 607.689 171.46 611.611L171.864 611.905C174.874 607.761 173.973 601.971 169.846 598.973L169.552 599.377ZM171.46 611.611C168.61 615.533 163.137 616.412 159.235 613.577L158.942 613.981C163.068 616.98 168.853 616.048 171.864 611.905L171.46 611.611ZM159.235 613.577C155.334 610.742 154.478 605.266 157.328 601.343L156.924 601.05C153.913 605.193 154.815 610.983 158.942 613.981L159.235 613.577ZM186.728 621.216C190.19 616.45 195.465 609.21 197.813 605.987L197.409 605.693C195.061 608.915 189.786 616.156 186.323 620.922L186.728 621.216ZM197.464 606.042L197.467 606.044L197.761 605.64L197.758 605.638L197.464 606.042ZM197.816 605.989L205.255 595.75L204.85 595.456L197.412 605.695L197.816 605.989ZM205.2 595.401L195.009 587.997L194.715 588.402L204.906 595.805L205.2 595.401ZM194.66 588.052L188.421 596.639L188.826 596.933L195.064 588.346L194.66 588.052ZM188.77 596.584L156.226 572.939L155.932 573.343L188.477 596.988L188.77 596.584ZM156.079 573.141C155.878 572.991 155.878 572.991 155.878 572.992C155.878 572.992 155.878 572.992 155.878 572.992C155.878 572.992 155.877 572.993 155.877 572.993C155.876 572.995 155.874 572.997 155.872 572.999C155.869 573.005 155.863 573.012 155.855 573.023C155.84 573.043 155.817 573.074 155.786 573.115C155.726 573.195 155.637 573.315 155.522 573.469C155.292 573.777 154.959 574.224 154.545 574.778C153.719 575.887 152.571 577.428 151.289 579.155C148.724 582.608 145.619 586.805 143.458 589.779L143.863 590.073C146.022 587.101 149.126 582.906 151.69 579.453C152.973 577.726 154.12 576.186 154.946 575.077C155.36 574.522 155.693 574.076 155.923 573.768C156.038 573.614 156.127 573.495 156.187 573.414C156.217 573.373 156.24 573.343 156.256 573.322C156.263 573.312 156.269 573.304 156.273 573.299C156.275 573.296 156.276 573.294 156.277 573.293C156.278 573.292 156.278 573.291 156.279 573.291C156.279 573.291 156.279 573.291 156.279 573.291C156.279 573.291 156.279 573.291 156.079 573.141ZM143.458 589.779C134.738 601.782 137.352 618.551 149.301 627.232L149.595 626.828C137.871 618.31 135.303 601.854 143.863 590.073L143.458 589.779ZM149.301 627.232C161.251 635.914 178.007 633.219 186.728 621.216L186.323 620.922C177.763 632.703 161.319 635.346 149.595 626.828L149.301 627.232Z" fill="#FFFA00"/>
<path d="M193.033 541.627V541.377H192.784L192.783 541.626L193.033 541.627ZM193.037 541.627V541.877H193.287V541.627H193.037ZM193.037 528.971H193.287V528.721H193.037V528.971ZM180.44 528.971V528.721H180.19V528.971H180.44ZM180.44 539.585V539.835H180.69V539.585H180.44ZM140.213 539.585V539.335H139.966L139.963 539.582L140.213 539.585ZM157.801 561.667C157.801 556.819 161.712 552.891 166.534 552.891V552.391C161.434 552.391 157.301 556.545 157.301 561.667H157.801ZM166.534 552.891C171.357 552.891 175.268 556.819 175.268 561.667H175.768C175.768 556.545 171.635 552.391 166.534 552.391V552.891ZM175.268 561.667C175.268 566.515 171.357 570.443 166.534 570.443V570.943C171.635 570.943 175.768 566.789 175.768 561.667H175.268ZM166.534 570.443C161.712 570.443 157.801 566.515 157.801 561.667H157.301C157.301 566.789 161.434 570.943 166.534 570.943V570.443ZM193.266 560.463C193.266 554.572 193.278 545.615 193.283 541.627L192.783 541.626C192.778 545.614 192.766 554.572 192.766 560.463H193.266ZM193.033 541.877H193.037V541.377H193.033V541.877ZM193.287 541.627V528.971H192.787V541.627H193.287ZM193.037 528.721H180.44V529.221H193.037V528.721ZM180.19 528.971V539.585H180.69V528.971H180.19ZM180.44 539.335H140.213V539.835H180.44V539.335ZM140.213 539.585C139.963 539.582 139.963 539.582 139.963 539.582C139.963 539.582 139.963 539.582 139.963 539.582C139.963 539.583 139.963 539.583 139.963 539.584C139.963 539.586 139.963 539.588 139.963 539.591C139.963 539.598 139.963 539.608 139.962 539.621C139.962 539.646 139.962 539.685 139.961 539.735C139.96 539.836 139.958 539.985 139.955 540.177C139.95 540.562 139.943 541.119 139.935 541.81C139.918 543.194 139.895 545.115 139.873 547.265C139.827 551.566 139.782 556.787 139.782 560.463H140.282C140.282 556.79 140.327 551.571 140.373 547.27C140.395 545.12 140.418 543.2 140.435 541.817C140.443 541.125 140.45 540.568 140.455 540.184C140.458 539.992 140.459 539.843 140.461 539.742C140.461 539.691 140.462 539.653 140.462 539.627C140.462 539.614 140.463 539.605 140.463 539.598C140.463 539.595 140.463 539.592 140.463 539.591C140.463 539.59 140.463 539.589 140.463 539.589C140.463 539.589 140.463 539.588 140.463 539.588C140.463 539.588 140.463 539.588 140.213 539.585ZM139.782 560.463C139.782 575.3 151.754 587.329 166.524 587.329V586.829C152.032 586.829 140.282 575.026 140.282 560.463H139.782ZM166.524 587.329C181.294 587.329 193.266 575.3 193.266 560.463H192.766C192.766 575.026 181.016 586.829 166.524 586.829V587.329Z" fill="#FFFA00"/>
<path d="M47.6237 460.32C47.2667 463.753 44.9364 466.829 41.4289 467.969C36.6878 469.509 31.6018 466.933 30.0686 462.214C28.5353 457.495 31.1356 452.421 35.8766 450.881C39.3841 449.741 43.0767 450.859 45.3838 453.427C45.4692 453.459 45.5633 453.466 45.6539 453.437L63.3141 447.699C57.4739 435.433 43.1408 429.197 29.8402 433.832C16.4195 438.508 8.60774 453.873 12.7733 467.391C17.2333 481.864 32.7117 489.818 47.131 485.132C60.2716 480.863 67.9459 467.583 65.4962 454.415L47.836 460.153C47.7455 460.183 47.6738 460.244 47.6237 460.32" stroke="#FFFA00" stroke-width="0.5"/>
<path d="M99.7349 450.878C104.384 452.388 109.377 449.844 110.888 445.195L111.364 445.349C109.768 450.261 104.492 452.949 99.5804 451.353L99.7349 450.878ZM110.888 445.195C112.399 440.546 109.854 435.552 105.205 434.042L105.36 433.566C110.271 435.162 112.96 440.438 111.364 445.349L110.888 445.195ZM105.205 434.042C100.556 432.531 95.5627 435.075 94.0521 439.725L93.5766 439.57C95.1726 434.658 100.448 431.97 105.36 433.566L105.205 434.042ZM94.0521 439.725C92.5415 444.374 95.0861 449.367 99.7349 450.878L99.5804 451.353C94.669 449.757 91.9806 444.482 93.5766 439.57L94.0521 439.725ZM110.985 416.255C125.457 420.957 133.378 436.501 128.675 450.974L128.2 450.82C132.817 436.609 125.04 421.347 110.83 416.73L110.985 416.255ZM128.675 450.974C123.973 465.447 108.428 473.367 93.9556 468.665L94.1101 468.189C108.32 472.806 123.582 465.03 128.2 450.82L128.675 450.974ZM93.9556 468.665C79.483 463.962 71.5627 448.418 76.2652 433.945L76.7407 434.1C72.1236 448.31 79.9002 463.572 94.1101 468.189L93.9556 468.665ZM76.2652 433.945C80.9677 419.472 96.512 411.552 110.985 416.255L110.83 416.73C96.6202 412.113 81.3579 419.889 76.7407 434.1L76.2652 433.945Z" fill="#FFFA00"/>
<path d="M142.75 401.339L142.512 401.416L142.589 401.654L142.827 401.577L142.75 401.339ZM142.749 401.336L142.986 401.259L142.909 401.021L142.671 401.098L142.749 401.336ZM130.712 405.247L130.635 405.009L130.397 405.087L130.475 405.324L130.712 405.247ZM134.605 417.227L134.367 417.304L134.444 417.542L134.682 417.464L134.605 417.227ZM144.699 413.947L144.937 413.87L144.86 413.632L144.622 413.709L144.699 413.947ZM157.13 452.206L156.893 452.283L156.969 452.517L157.204 452.444L157.13 452.206ZM172.697 428.655C168.086 430.153 163.142 427.647 161.651 423.06L161.176 423.215C162.752 428.066 167.98 430.713 172.851 429.13L172.697 428.655ZM161.651 423.06C160.161 418.474 162.688 413.54 167.299 412.042L167.144 411.567C162.273 413.149 159.599 418.364 161.176 423.215L161.651 423.06ZM167.299 412.042C171.91 410.544 176.854 413.05 178.344 417.637L178.82 417.482C177.243 412.631 172.016 409.984 167.144 411.567L167.299 412.042ZM178.344 417.637C179.834 422.223 177.307 427.157 172.697 428.655L172.851 429.13C177.722 427.548 180.396 422.333 178.82 417.482L178.344 417.637ZM160.593 395.297C154.99 397.118 146.467 399.875 142.673 401.101L142.827 401.577C146.621 400.35 155.144 397.593 160.747 395.773L160.593 395.297ZM142.987 401.262L142.986 401.259L142.511 401.414L142.512 401.416L142.987 401.262ZM142.671 401.098L130.635 405.009L130.79 405.485L142.826 401.574L142.671 401.098ZM130.475 405.324L134.367 417.304L134.843 417.149L130.95 405.17L130.475 405.324ZM134.682 417.464L144.777 414.185L144.622 413.709L134.528 416.989L134.682 417.464ZM144.462 414.024L156.893 452.283L157.368 452.128L144.937 413.87L144.462 414.024ZM157.13 452.206C157.204 452.444 157.205 452.444 157.205 452.444C157.205 452.444 157.205 452.444 157.205 452.444C157.205 452.444 157.206 452.444 157.207 452.444C157.208 452.443 157.211 452.442 157.214 452.441C157.22 452.439 157.229 452.437 157.242 452.433C157.266 452.425 157.303 452.414 157.351 452.399C157.448 452.369 157.59 452.325 157.773 452.268C158.141 452.154 158.673 451.988 159.333 451.782C160.654 451.371 162.488 450.799 164.54 450.156C168.644 448.87 173.623 447.299 177.12 446.163L176.965 445.688C173.472 446.823 168.495 448.393 164.39 449.679C162.338 450.322 160.505 450.894 159.184 451.305C158.524 451.511 157.992 451.676 157.625 451.79C157.442 451.847 157.299 451.891 157.203 451.921C157.155 451.936 157.118 451.948 157.094 451.955C157.081 451.959 157.072 451.962 157.066 451.964C157.063 451.965 157.06 451.966 157.059 451.966C157.058 451.966 157.057 451.966 157.057 451.967C157.057 451.967 157.057 451.967 157.056 451.967C157.056 451.967 157.056 451.967 157.13 452.206ZM177.12 446.163C191.23 441.579 198.972 426.475 194.407 412.428L193.932 412.583C198.41 426.365 190.815 441.188 176.965 445.688L177.12 446.163ZM194.407 412.428C189.843 398.381 174.703 390.713 160.593 395.297L160.747 395.773C174.597 391.273 189.454 398.8 193.932 412.583L194.407 412.428Z" fill="#FFFA00"/>
</svg>
